PendotA-Regular.glyphspackage
{
glyphname = space;
layers = (
{
layerId = m01;
width = 400;
},
{
layerId = "75405DBD-BDE7-4DB9-970A-41B7BDE3CB72";
shapes = (
{
closed = 1;
nodes = (
(0,0,l),
(400,0,l),
(400,15,l),
(0,15,l)
);
},
{
closed = 1;
nodes = (
(0,680,l),
(400,680,l),
(400,695,l),
(0,695,l)
);
},
{
closed = 1;
nodes = (
(0,962,l),
(400,962,l),
(400,977,l),
(0,977,l)
);
},
{
closed = 1;
nodes = (
(0,1483,l),
(400,1483,l),
(400,1498,l),
(0,1498,l)
);
},
{
closed = 1;
nodes = (
(0,-493,l),
(400,-493,l),
(400,-478,l),
(0,-478,l)
);
},
{
closed = 1;
nodes = (
(0,-1130,l),
(400,-1130,l),
(400,-1115,l),
(0,-1115,l)
);
}
);
width = 400;
},
{
associatedMasterId = m01;
layerId = "7FC94F91-C030-46B3-BA59-DF12E0A43EC9";
name = "Pendot Quick Preview";
shapes = (
{
closed = 1;
nodes = (
(0,0,l),
(400,0,l),
(400,15,l),
(0,15,l)
);
},
{
closed = 1;
nodes = (
(0,680,l),
(400,680,l),
(400,695,l),
(0,695,l)
);
},
{
closed = 1;
nodes = (
(0,962,l),
(400,962,l),
(400,977,l),
(0,977,l)
);
},
{
closed = 1;
nodes = (
(0,1483,l),
(400,1483,l),
(400,1498,l),
(0,1498,l)
);
},
{
closed = 1;
nodes = (
(0,-493,l),
(400,-493,l),
(400,-478,l),
(0,-478,l)
);
},
{
closed = 1;
nodes = (
(0,-1130,l),
(400,-1130,l),
(400,-1115,l),
(0,-1115,l)
);
}
);
width = 200;
}
);
unicode = 32;
}
{
glyphname = A;
layers = (
{
layerId = m01;
shapes = (
{
closed = 0;
nodes = (
(1330,0,l),
(740,1700,l,{
co.uk.corvelsoftware.Dotter = {
forced = 1;
};
}),
(150,0,l)
);
},
{
closed = 0;
nodes = (
(355,600,l),
(455,600,o),
(1021,600,o),
(1121,600,c)
);
}
);
width = 1480;
},
{
layerId = "75405DBD-BDE7-4DB9-970A-41B7BDE3CB72";
shapes = (
{
pos = (1330,0);
ref = _dot;
},
{
pos = (740,1700);
ref = _dot;
},
{
pos = (358.235,600);
ref = _dot;
},
{
pos = (150,0);
ref = _dot;
},
{
pos = (1121,600);
ref = _dot;
},
{
pos = (1305.417,70.833);
ref = _dot;
},
{
pos = (1280.833,141.667);
ref = _dot;
},
{
pos = (1256.25,212.5);
ref = _dot;
},
{
pos = (1231.667,283.333);
ref = _dot;
},
{
pos = (1207.083,354.167);
ref = _dot;
},
{
pos = (1182.5,425);
ref = _dot;
},
{
pos = (1157.917,495.833);
ref = _dot;
},
{
pos = (1084.167,708.333);
ref = _dot;
},
{
pos = (1059.583,779.167);
ref = _dot;
},
{
pos = (1035,850);
ref = _dot;
},
{
pos = (1010.417,920.833);
ref = _dot;
},
{
pos = (985.833,991.667);
ref = _dot;
},
{
pos = (961.25,1062.5);
ref = _dot;
},
{
pos = (936.667,1133.333);
ref = _dot;
},
{
pos = (912.083,1204.167);
ref = _dot;
},
{
pos = (887.5,1275);
ref = _dot;
},
{
pos = (862.917,1345.833);
ref = _dot;
},
{
pos = (838.333,1416.667);
ref = _dot;
},
{
pos = (813.75,1487.5);
ref = _dot;
},
{
pos = (789.167,1558.333);
ref = _dot;
},
{
pos = (764.583,1629.167);
ref = _dot;
},
{
pos = (716.14,1631.25);
ref = _dot;
},
{
pos = (692.279,1562.5);
ref = _dot;
},
{
pos = (668.419,1493.75);
ref = _dot;
},
{
pos = (644.559,1425);
ref = _dot;
},
{
pos = (620.699,1356.25);
ref = _dot;
},
{
pos = (596.838,1287.5);
ref = _dot;
},
{
pos = (572.978,1218.75);
ref = _dot;
},
{
pos = (549.118,1150);
ref = _dot;
},
{
pos = (525.257,1081.25);
ref = _dot;
},
{
pos = (501.397,1012.5);
ref = _dot;
},
{
pos = (477.537,943.75);
ref = _dot;
},
{
pos = (453.676,875);
ref = _dot;
},
{
pos = (429.816,806.25);
ref = _dot;
},
{
pos = (405.956,737.5);
ref = _dot;
},
{
pos = (382.096,668.75);
ref = _dot;
},
{
pos = (332.206,525);
ref = _dot;
},
{
pos = (306.176,450);
ref = _dot;
},
{
pos = (280.147,375);
ref = _dot;
},
{
pos = (254.118,300);
ref = _dot;
},
{
pos = (228.088,225);
ref = _dot;
},
{
pos = (202.059,150);
ref = _dot;
},
{
pos = (176.029,75);
ref = _dot;
},
{
pos = (434.461,600);
ref = _dot;
},
{
pos = (510.743,600);
ref = _dot;
},
{
pos = (587.025,600);
ref = _dot;
},
{
pos = (663.307,600);
ref = _dot;
},
{
pos = (739.589,600);
ref = _dot;
},
{
pos = (815.871,600);
ref = _dot;
},
{
pos = (892.154,600);
ref = _dot;
},
{
pos = (968.436,600);
ref = _dot;
},
{
pos = (1044.718,600);
ref = _dot;
}
);
width = 1480;
},
{
associatedMasterId = m01;
layerId = "BDC1419F-222D-49CD-A627-F64CCF9CD942";
name = "Pendot Quick Preview";
width = 1480;
}
);
unicode = 65;
}
{
glyphname = B;
layers = (
{
background = {
shapes = (
{
closed = 0;
nodes = (
(255,1600,l),
(355,1600,o),
(499,1600,o),
(599,1600,cs),
(855,1600,o),
(1100,1507,o),
(1100,1227,cs),
(1100,947,o),
(855,820,o),
(600,820,cs),
(500,820,o),
(355,820,o),
(255,820,c)
);
},
{
closed = 0;
nodes = (
(250,1600,l),
(250,1500,o),
(250,100,o),
(250,0,c)
);
},
{
closed = 0;
nodes = (
(599,780,l),
(855,780,o),
(1100,687,o),
(1100,407,cs),
(1100,127,o),
(855,0,o),
(600,0,cs),
(500,0,o),
(355,0,o),
(255,0,c)
);
}
);
};
layerId = m01;
shapes = (
{
closed = 0;
nodes = (
(255,1700,l),
(355,1700,o),
(539,1700,o),
(639,1700,cs),
(905,1700,o),
(1150,1587,o),
(1150,1307,cs),
(1150,1027,o),
(905,870,o),
(640,870,cs),
(540,870,o),
(355,870,o),
(255,870,c)
);
},
{
closed = 0;
nodes = (
(250,1700,l),
(250,1600,o),
(250,100,o),
(250,0,c)
);
},
{
closed = 0;
nodes = (
(699,870,l),
(965,870,o),
(1210,747,o),
(1210,457,cs),
(1210,167,o),
(995,0,o),
(700,0,cs),
(600,0,o),
(355,0,o),
(255,0,c)
);
}
);
width = 1410;
},
{
layerId = "75405DBD-BDE7-4DB9-970A-41B7BDE3CB72";
shapes = (
{
pos = (255,1700);
ref = _dot;
},
{
pos = (255,870);
ref = _dot;
},
{
pos = (250,0);
ref = _dot;
},
{
pos = (699,870);
ref = _dot;
},
{
pos = (330.25,1700);
ref = _dot;
},
{
pos = (405.41,1700);
ref = _dot;
},
{
pos = (480.571,1700);
ref = _dot;
},
{
pos = (555.591,1700);
ref = _dot;
},
{
pos = (630.72,1700);
ref = _dot;
},
{
pos = (706.237,1697.518);
ref = _dot;
},
{
pos = (780.799,1688.445);
ref = _dot;
},
{
pos = (854.003,1671.83);
ref = _dot;
},
{
pos = (924.758,1646.385);
ref = _dot;
},
{
pos = (990.834,1610.762);
ref = _dot;
},
{
pos = (1049.602,1563.49);
ref = _dot;
},
{
pos = (1096.573,1505.249);
ref = _dot;
},
{
pos = (1129.162,1437.605);
ref = _dot;
},
{
pos = (1146.375,1364.134);
ref = _dot;
},
{
pos = (1149.647,1288.699);
ref = _dot;
},
{
pos = (1140.299,1213.826);
ref = _dot;
},
{
pos = (1117.689,1142.443);
ref = _dot;
},
{
pos = (1081.707,1076.507);
ref = _dot;
},
{
pos = (1034.01,1018.753);
ref = _dot;
},
{
pos = (976.446,970.094);
ref = _dot;
},
{
pos = (911.901,931.426);
ref = _dot;
},
{
pos = (842.274,902.443);
ref = _dot;
},
{
pos = (769.287,882.823);
ref = _dot;
},
{
pos = (619.469,870);
ref = _dot;
},
{
pos = (544.557,870);
ref = _dot;
},
{
pos = (469.28,870);
ref = _dot;
},
{
pos = (393.975,870);
ref = _dot;
},
{
pos = (318.905,870);
ref = _dot;
},
{
pos = (250,1625.436);
ref = _dot;
},
{
pos = (250,1550.187);
ref = _dot;
},
{
pos = (250,1476.015);
ref = _dot;
},
{
pos = (250,1400.606);
ref = _dot;
},
{
pos = (250,1326.038);
ref = _dot;
},
{
pos = (250,1250.702);
ref = _dot;
},
{
pos = (250,1176.08);
ref = _dot;
},
{
pos = (250,1101.065);
ref = _dot;
},
{
pos = (250,1026.465);
ref = _dot;
},
{
pos = (250,950.593);
ref = _dot;
},
{
pos = (250,802.022);
ref = _dot;
},
{
pos = (250,727.971);
ref = _dot;
},
{
pos = (250,652.401);
ref = _dot;
},
{
pos = (250,578.258);
ref = _dot;
},
{
pos = (250,503.877);
ref = _dot;
},
{
pos = (250,427.96);
ref = _dot;
},
{
pos = (250,353.81);
ref = _dot;
},
{
pos = (250,278.886);
ref = _dot;
},
{
pos = (250,203.959);
ref = _dot;
},
{
pos = (250,128.682);
ref = _dot;
},
{
pos = (914.711,839.45);
ref = _dot;
},
{
pos = (982.808,813.4);
ref = _dot;
},
{
pos = (1046.234,777.793);
ref = _dot;
},
{
pos = (1102.374,732.033);
ref = _dot;
},
{
pos = (1148.752,675.838);
ref = _dot;
},
{
pos = (1182.392,611.312);
ref = _dot;
},
{
pos = (1202.447,541.343);
ref = _dot;
},
{
pos = (1209.857,469.082);
ref = _dot;
},
{
pos = (1206.707,396.289);
ref = _dot;
},
{
pos = (1193.248,324.439);
ref = _dot;
},
{
pos = (1168.462,255.849);
ref = _dot;
},
{
pos = (1132.294,193.088);
ref = _dot;
},
{
pos = (1085.131,137.659);
ref = _dot;
},
{
pos = (1029.048,91.591);
ref = _dot;
},
{
pos = (965.822,55.214);
ref = _dot;
},
{
pos = (898.201,28.717);
ref = _dot;
},
{
pos = (827.698,11.272);
ref = _dot;
},
{
pos = (755.622,2.041);
ref = _dot;
},
{
pos = (682.921,0);
ref = _dot;
},
{
pos = (610.153,0);
ref = _dot;
},
{
pos = (537.583,0);
ref = _dot;
},
{
pos = (465.084,0);
ref = _dot;
},
{
pos = (392.428,0);
ref = _dot;
},
{
pos = (319.694,0);
ref = _dot;
}
);
width = 1410;
}
);
unicode = 66;
}
{
glyphname = C;
layers = (
{
layerId = m01;
shapes = (
{
closed = 0;
nodes = (
(1300,1440,l),
(1180,1596,o),
(1030,1700,o),
(760,1700,cs),
(435,1700,o),
(180,1420,o),
(180,870,cs),
(180,320,o),
(435,0,o),
(760,0,cs),
(1010,0,o),
(1195,132,o),
(1310,330,c)
);
}
);
width = 1490;
},
{
layerId = "75405DBD-BDE7-4DB9-970A-41B7BDE3CB72";
shapes = (
{
pos = (1300,1440);
ref = _dot;
},
{
pos = (1310,330);
ref = _dot;
},
{
pos = (1253.036,1496.374);
ref = _dot;
},
{
pos = (1201.059,1548.144);
ref = _dot;
},
{
pos = (1143.539,1593.655);
ref = _dot;
},
{
pos = (1080.662,1631.405);
ref = _dot;
},
{
pos = (1013.339,1660.502);
ref = _dot;
},
{
pos = (942.902,1680.966);
ref = _dot;
},
{
pos = (870.625,1693.533);
ref = _dot;
},
{
pos = (797.481,1699.303);
ref = _dot;
},
{
pos = (724.122,1698.827);
ref = _dot;
},
{
pos = (651.454,1688.993);
ref = _dot;
},
{
pos = (580.977,1668.762);
ref = _dot;
},
{
pos = (514.332,1638.192);
ref = _dot;
},
{
pos = (453.013,1597.986);
ref = _dot;
},
{
pos = (398.111,1549.37);
ref = _dot;
},
{
pos = (350.145,1493.888);
ref = _dot;
},
{
pos = (309.186,1433.036);
ref = _dot;
},
{
pos = (274.926,1368.165);
ref = _dot;
},
{
pos = (246.922,1300.351);
ref = _dot;
},
{
pos = (224.579,1230.461);
ref = _dot;
},
{
pos = (207.374,1159.127);
ref = _dot;
},
{
pos = (194.745,1086.84);
ref = _dot;
},
{
pos = (186.251,1013.949);
ref = _dot;
},
{
pos = (181.47,940.718);
ref = _dot;
},
{
pos = (180.076,867.345);
ref = _dot;
},
{
pos = (181.687,793.976);
ref = _dot;
},
{
pos = (186.654,720.758);
ref = _dot;
},
{
pos = (195.199,647.873);
ref = _dot;
},
{
pos = (207.657,575.555);
ref = _dot;
},
{
pos = (224.376,504.103);
ref = _dot;
},
{
pos = (245.789,433.919);
ref = _dot;
},
{
pos = (272.309,365.506);
ref = _dot;
},
{
pos = (304.411,299.533);
ref = _dot;
},
{
pos = (342.534,236.855);
ref = _dot;
},
{
pos = (387.085,178.579);
ref = _dot;
},
{
pos = (438.279,126.057);
ref = _dot;
},
{
pos = (496.015,80.846);
ref = _dot;
},
{
pos = (559.713,44.537);
ref = _dot;
},
{
pos = (628.261,18.53);
ref = _dot;
},
{
pos = (700.067,3.728);
ref = _dot;
},
{
pos = (773.305,0.132);
ref = _dot;
},
{
pos = (846.464,5.498);
ref = _dot;
},
{
pos = (918.517,19.229);
ref = _dot;
},
{
pos = (988.353,41.645);
ref = _dot;
},
{
pos = (1054.809,72.675);
ref = _dot;
},
{
pos = (1116.852,111.794);
ref = _dot;
},
{
pos = (1173.705,158.141);
ref = _dot;
},
{
pos = (1224.912,210.667);
ref = _dot;
},
{
pos = (1270.323,268.286);
ref = _dot;
}
);
width = 1490;
}
);
unicode = 67;
}
{
glyphname = D;
layers = (
{
background = {
shapes = (
{
closed = 0;
nodes = (
(750,0,l),
(1065,0,o),
(1320,267,o),
(1320,817,cs),
(1320,1367,o),
(1065,1600,o),
(749,1600,cs)
);
},
{
closed = 0;
nodes = (
(250,1600,l),
(250,1500,o),
(250,100,o),
(250,0,c)
);
}
);
};
layerId = m01;
shapes = (
{
closed = 0;
nodes = (
(255,1700,l),
(355,1700,o),
(460,1700,o),
(560,1700,cs),
(1025,1700,o),
(1320,1420,o),
(1320,870,cs),
(1320,320,o),
(1025,0,o),
(560,0,cs),
(460,0,o),
(355,0,o),
(255,0,c)
);
},
{
closed = 0;
nodes = (
(250,1700,l),
(250,1600,o),
(250,100,o),
(250,0,c)
);
}
);
width = 1500;
},
{
layerId = "75405DBD-BDE7-4DB9-970A-41B7BDE3CB72";
shapes = (
{
pos = (255,1700);
ref = _dot;
},
{
pos = (255,0);
ref = _dot;
},
{
pos = (329.559,1700);
ref = _dot;
},
{
pos = (404.118,1700);
ref = _dot;
},
{
pos = (478.715,1700);
ref = _dot;
},
{
pos = (553.092,1700);
ref = _dot;
},
{
pos = (628.459,1697.901);
ref = _dot;
},
{
pos = (703.273,1690.395);
ref = _dot;
},
{
pos = (776.945,1676.899);
ref = _dot;
},
{
pos = (848.923,1656.833);
ref = _dot;
},
{
pos = (918.61,1629.6);
ref = _dot;
},
{
pos = (985.36,1594.586);
ref = _dot;
},
{
pos = (1046.675,1552.565);
ref = _dot;
},
{
pos = (1103.161,1502.743);
ref = _dot;
},
{
pos = (1152.898,1446.648);
ref = _dot;
},
{
pos = (1195.328,1385.638);
ref = _dot;
},
{
pos = (1231.348,1319.229);
ref = _dot;
},
{
pos = (1260.177,1250.182);
ref = _dot;
},
{
pos = (1282.836,1178.066);
ref = _dot;
},
{
pos = (1299.468,1104.854);
ref = _dot;
},
{
pos = (1310.748,1031.346);
ref = _dot;
},
{
pos = (1317.439,956.736);
ref = _dot;
},
{
pos = (1319.957,881.51);
ref = _dot;
},
{
pos = (1318.661,806.705);
ref = _dot;
},
{
pos = (1313.384,731.732);
ref = _dot;
},
{
pos = (1303.711,657.132);
ref = _dot;
},
{
pos = (1289.231,583.405);
ref = _dot;
},
{
pos = (1269.535,511.085);
ref = _dot;
},
{
pos = (1244.221,440.742);
ref = _dot;
},
{
pos = (1212.895,372.985);
ref = _dot;
},
{
pos = (1175.172,308.459);
ref = _dot;
},
{
pos = (1130.682,247.855);
ref = _dot;
},
{
pos = (1079.921,192.727);
ref = _dot;
},
{
pos = (1022.814,143.522);
ref = _dot;
},
{
pos = (960.319,101.31);
ref = _dot;
},
{
pos = (893.728,66.724);
ref = _dot;
},
{
pos = (823.465,39.569);
ref = _dot;
},
{
pos = (751.171,19.91);
ref = _dot;
},
{
pos = (677.422,7.207);
ref = _dot;
},
{
pos = (602.751,0.92);
ref = _dot;
},
{
pos = (528.346,0);
ref = _dot;
},
{
pos = (453.898,0);
ref = _dot;
},
{
pos = (379.525,0);
ref = _dot;
},
{
pos = (250,1625.436);
ref = _dot;
},
{
pos = (250,1550.187);
ref = _dot;
},
{
pos = (250,1476.015);
ref = _dot;
},
{
pos = (250,1400.606);
ref = _dot;
},
{
pos = (250,1326.038);
ref = _dot;
},
{
pos = (250,1250.702);
ref = _dot;
},
{
pos = (250,1176.08);
ref = _dot;
},
{
pos = (250,1101.065);
ref = _dot;
},
{
pos = (250,1026.465);
ref = _dot;
},
{
pos = (250,950.593);
ref = _dot;
},
{
pos = (250,876.396);
ref = _dot;
},
{
pos = (250,802.022);
ref = _dot;
},
{
pos = (250,727.971);
ref = _dot;
},
{
pos = (250,652.401);
ref = _dot;
},
{
pos = (250,578.258);
ref = _dot;
},
{
pos = (250,503.877);
ref = _dot;
},
{
pos = (250,427.96);
ref = _dot;
},
{
pos = (250,353.81);
ref = _dot;
},
{
pos = (250,278.886);
ref = _dot;
},
{
pos = (250,203.959);
ref = _dot;
},
{
pos = (250,128.682);
ref = _dot;
}
);
width = 1500;
}
);
unicode = 68;
}
{
glyphname = E;
layers = (
{
layerId = m01;
shapes = (
{
ref = _c.stemLA;
},
{
closed = 0;
nodes = (
(250,900,l,{
co.uk.corvelsoftware.Dotter = {
locally_forced = 1;
};
}),
(350,900,o),
(1030,900,o),
(1130,900,c)
);
},
{
closed = 0;
nodes = (
(250,0,l,{
co.uk.corvelsoftware.Dotter = {
locally_forced = 1;
};
}),
(350,0,o),
(1030,0,o),
(1130,0,c)
);
},
{
closed = 0;
nodes = (
(250,1700,l,{
co.uk.corvelsoftware.Dotter = {
locally_forced = 1;
};
}),
(350,1700,o),
(1030,1700,o),
(1130,1700,c)
);
}
);
width = 1380;
},
{
layerId = "75405DBD-BDE7-4DB9-970A-41B7BDE3CB72";
shapes = (
{
pos = (250,1700);
ref = _dot;
},
{
pos = (250,0);
ref = _dot;
},
{
pos = (250,900);
ref = _dot;
},
{
pos = (1130,900);
ref = _dot;
},
{
pos = (1130,0);
ref = _dot;
},
{
pos = (1130,1700);
ref = _dot;
},
{
pos = (250,1545.455);
ref = _dot;
},
{
pos = (250,1390.909);
ref = _dot;
},
{
pos = (250,1236.364);
ref = _dot;
},
{
pos = (250,1081.818);
ref = _dot;
},
{
pos = (250,772.727);
ref = _dot;
},
{
pos = (250,618.182);
ref = _dot;
},
{
pos = (250,463.636);
ref = _dot;
},
{
pos = (250,309.091);
ref = _dot;
},
{
pos = (250,154.545);
ref = _dot;
},
{
pos = (426,900);
ref = _dot;
},
{
pos = (602,900);
ref = _dot;
},
{
pos = (778,900);
ref = _dot;
},
{
pos = (954,900);
ref = _dot;
},
{
pos = (426,0);
ref = _dot;
},
{
pos = (602,0);
ref = _dot;
},
{
pos = (778,0);
ref = _dot;
},
{
pos = (954,0);
ref = _dot;
},
{
pos = (426,1700);
ref = _dot;
},
{
pos = (602,1700);
ref = _dot;
},
{
pos = (778,1700);
ref = _dot;
},
{
pos = (954,1700);
ref = _dot;
}
);
width = 1380;
},
{
layerId = m003;
shapes = (
{
ref = _c.stemLA;
},
{
closed = 0;
nodes = (
(250,900,l,{
co.uk.corvelsoftware.Dotter = {
locally_forced = 1;
};
}),
(350,900,o),
(1030,900,o),
(1130,900,c)
);
},
{
closed = 0;
nodes = (
(250,0,l,{
co.uk.corvelsoftware.Dotter = {
locally_forced = 1;
};
}),
(350,0,o),
(1030,0,o),
(1130,0,c)
);
},
{
closed = 0;
nodes = (
(250,1700,l,{
co.uk.corvelsoftware.Dotter = {
locally_forced = 1;
};
}),
(350,1700,o),
(1030,1700,o),
(1130,1700,c)
);
}
);
width = 1380;
},
{
associatedMasterId = m01;
layerId = m004;
shapes = (
{
ref = _c.stemLA;
},
{
closed = 0;
nodes = (
(250,900,l,{
co.uk.corvelsoftware.Dotter = {
locally_forced = 1;
};
}),
(350,900,o),
(1030,900,o),
(1130,900,c)
);
},
{
closed = 0;
nodes = (
(250,0,l,{
co.uk.corvelsoftware.Dotter = {
locally_forced = 1;
};
}),
(350,0,o),
(1030,0,o),
(1130,0,c)
);
},
{
closed = 0;
nodes = (
(250,1700,l,{
co.uk.corvelsoftware.Dotter = {
locally_forced = 1;
};
}),
(350,1700,o),
(1030,1700,o),
(1130,1700,c)
);
}
);
width = 1380;
},
{
associatedMasterId = m003;
layerId = "D8154E06-60CA-47BB-BE45-5F520BA3AD11";
shapes = (
{
ref = _c.stemLA;
},
{
closed = 0;
nodes = (
(250,900,l,{
co.uk.corvelsoftware.Dotter = {
locally_forced = 1;
};
}),
(350,900,o),
(1030,900,o),
(1130,900,c)
);
},
{
closed = 0;
nodes = (
(250,0,l,{
co.uk.corvelsoftware.Dotter = {
locally_forced = 1;
};
}),
(350,0,o),
(1030,0,o),
(1130,0,c)
);
},
{
closed = 0;
nodes = (
(250,1700,l,{
co.uk.corvelsoftware.Dotter = {
locally_forced = 1;
};
}),
(350,1700,o),
(1030,1700,o),
(1130,1700,c)
);
}
);
width = 1380;
},
{
associatedMasterId = m003;
layerId = "906D5142-1F0F-495B-8D7C-A8557D4AA428";
shapes = (
{
ref = _c.stemLA;
},
{
closed = 0;
nodes = (
(250,900,l,{
co.uk.corvelsoftware.Dotter = {
locally_forced = 1;
};
}),
(350,900,o),
(1030,900,o),
(1130,900,c)
);
},
{
closed = 0;
nodes = (
(250,0,l,{
co.uk.corvelsoftware.Dotter = {
locally_forced = 1;
};
}),
(350,0,o),
(1030,0,o),
(1130,0,c)
);
},
{
closed = 0;
nodes = (
(250,1700,l,{
co.uk.corvelsoftware.Dotter = {
locally_forced = 1;
};
}),
(350,1700,o),
(1030,1700,o),
(1130,1700,c)
);
}
);
width = 1380;
}
);
unicode = 69;
}
{
glyphname = F;
layers = (
{
layerId = m01;
shapes = (
{
ref = _c.stemLA;
},
{
closed = 0;
nodes = (
(250,900,l,{
co.uk.corvelsoftware.Dotter = {
locally_forced = 1;
};
}),
(350,900,o),
(1030,900,o),
(1130,900,c)
);
},
{
closed = 0;
nodes = (
(250,1700,l,{
co.uk.corvelsoftware.Dotter = {
locally_forced = 1;
};
}),
(350,1700,o),
(1030,1700,o),
(1130,1700,c)
);
}
);
width = 1380;
},
{
layerId = "75405DBD-BDE7-4DB9-970A-41B7BDE3CB72";
shapes = (
{
closed = 1;
nodes = (
(235,1710,o),
(235,1700,c),
(235,1133.333,o),
(235,566.667,o),
(235,0,c),
(235,-10,o),
(242.5,-15,o),
(250,-15,c),
(257.5,-15,o),
(265,-10,o),
(265,0,c),
(265,566.667,o),
(265,1133.333,o),
(265,1700,c),
(265,1710,o),
(257.5,1715,o),
(250,1715,c),
(242.5,1715,o)
);
},
{
closed = 1;
nodes = (
(240,885,o),
(250,885,c),
(543.333,885,o),
(836.667,885,o),
(1130,885,c),
(1140,885,o),
(1145,892.5,o),
(1145,900,c),
(1145,907.5,o),
(1140,915,o),
(1130,915,c),
(836.667,915,o),
(543.333,915,o),
(250,915,c),
(240,915,o),
(235,907.5,o),
(235,900,c),
(235,892.5,o)
);
},
{
closed = 1;
nodes = (
(240,1685,o),
(250,1685,c),
(543.333,1685,o),
(836.667,1685,o),
(1130,1685,c),
(1140,1685,o),
(1145,1692.5,o),
(1145,1700,c),
(1145,1707.5,o),
(1140,1715,o),
(1130,1715,c),
(836.667,1715,o),
(543.333,1715,o),
(250,1715,c),
(240,1715,o),
(235,1707.5,o),
(235,1700,c),
(235,1692.5,o)
);
}
);
width = 1380;
}
);
unicode = 70;
}
{
glyphname = G;
layers = (
{
background = {
shapes = (
{
closed = 0;
nodes = (
(1285,1359,l),
(1165,1515,o),
(1000,1600,o),
(760,1600,cs),
(475,1600,o),
(190,1367,o),
(190,817,cs),
(190,267,o),
(475,0,o),
(760,0,cs),
(1000,0,o),
(1155,105,o),
(1300,293,c)
);
},
{
closed = 0;
nodes = (
(530,600,l),
(630,600,o),
(1150,600,o),
(1250,600,c)
);
}
);
};
layerId = m01;
shapes = (
{
closed = 0;
nodes = (
(1290,1440,l),
(1170,1596,o),
(1030,1700,o),
(760,1700,cs),
(435,1700,o),
(180,1420,o),
(180,870,cs),
(180,320,o),
(435,0,o),
(760,0,cs),
(1085,0,o),
(1310,253,o),
(1310,600,cs),
(1310,650,o),
(1310,750,o),
(1310,800,c)
);
},
{
closed = 0;
nodes = (
(760,800,l),
(860,800,o),
(1200,800,o),
(1300,800,c)
);
}
);
width = 1510;
},
{
layerId = "75405DBD-BDE7-4DB9-970A-41B7BDE3CB72";
shapes = (
{
closed = 1;
nodes = (
(1307.986,1441.219,o),
(1301.889,1449.146,c),
(1161.102,1632.169,o),
(992.155,1715,o),
(760,1715,c),
(310.335,1715,o),
(165,1242.47,o),
(165,870,c),
(165,506.584,o),
(310.003,-15,o),
(760,-15,c),
(1108.052,-15,o),
(1325,267.893,o),
(1325,600,c),
(1325,666.667,o),
(1325,733.333,o),
(1325,800,c),
(1325,810,o),
(1317.5,815,o),
(1310,815,c),
(1302.5,815,o),
(1295,810,o),
(1295,800,c),
(1295,733.333,o),
(1295,666.667,o),
(1295,600,c),
(1295,284.453,o),
(1091.425,15,o),
(760,15,c),
(328.987,15,o),
(195,524.861,o),
(195,870,c),
(195,1224.552,o),
(328.816,1685,o),
(760,1685,c),
(982.918,1685,o),
(1142.964,1606.545,o),
(1278.111,1430.854,c),
(1284.208,1422.928,o),
(1293.201,1423.538,o),
(1299.146,1428.111,c),
(1305.09,1432.683,o)
);
},
{
closed = 1;
nodes = (
(750,785,o),
(760,785,c),
(940,785,o),
(1120,785,o),
(1300,785,c),
(1310,785,o),
(1315,792.5,o),
(1315,800,c),
(1315,807.5,o),
(1310,815,o),
(1300,815,c),
(1120,815,o),
(940,815,o),
(760,815,c),
(750,815,o),
(745,807.5,o),
(745,800,c),
(745,792.5,o)
);
}
);
width = 1510;
}
);
unicode = 71;
}
{
glyphname = H;
layers = (
{
layerId = m01;
shapes = (
{
ref = _c.stemLA;
},
{
pos = (1020,0);
ref = _c.stemLA;
},
{
closed = 0;
nodes = (
(250,900,l,{
co.uk.corvelsoftware.Dotter = {
locally_forced = 1;
};
}),
(350,900,o),
(1170,900,o),
(1270,900,c,{
co.uk.corvelsoftware.Dotter = {
locally_forced = 1;
};
})
);
}
);
width = 1520;
},
{
layerId = "75405DBD-BDE7-4DB9-970A-41B7BDE3CB72";
shapes = (
{
pos = (250,1700);
ref = _dot;
},
{
pos = (250,0);
ref = _dot;
},
{
pos = (1270,1700);
ref = _dot;
},
{
pos = (1270,0);
ref = _dot;
},
{
pos = (250,900);
ref = _dot;
},
{
pos = (1270,900);
ref = _dot;
},
{
pos = (250,1625.436);
ref = _dot;
},
{
pos = (250,1550.187);
ref = _dot;
},
{
pos = (250,1476.015);
ref = _dot;
},
{
pos = (250,1400.606);
ref = _dot;
},
{
pos = (250,1326.038);
ref = _dot;
},
{
pos = (250,1250.702);
ref = _dot;
},
{
pos = (250,1176.08);
ref = _dot;
},
{
pos = (250,1101.065);
ref = _dot;
},
{
pos = (250,1026.465);
ref = _dot;
},
{
pos = (250,802.022);
ref = _dot;
},
{
pos = (250,727.971);
ref = _dot;
},
{
pos = (250,652.401);
ref = _dot;
},
{
pos = (250,578.258);
ref = _dot;
},
{
pos = (250,503.877);
ref = _dot;
},
{
pos = (250,427.96);
ref = _dot;
},
{
pos = (250,353.81);
ref = _dot;
},
{
pos = (250,278.886);
ref = _dot;
},
{
pos = (250,203.959);
ref = _dot;
},
{
pos = (250,128.682);
ref = _dot;
},
{
pos = (1270,1625.436);
ref = _dot;
},
{
pos = (1270,1550.187);
ref = _dot;
},
{
pos = (1270,1476.015);
ref = _dot;
},
{
pos = (1270,1400.606);
ref = _dot;
},
{
pos = (1270,1326.038);
ref = _dot;
},
{
pos = (1270,1250.702);
ref = _dot;
},
{
pos = (1270,1176.08);
ref = _dot;
},
{
pos = (1270,1101.065);
ref = _dot;
},
{
pos = (1270,1026.465);
ref = _dot;
},
{
pos = (1270,802.022);
ref = _dot;
},
{
pos = (1270,727.971);
ref = _dot;
},
{
pos = (1270,652.401);
ref = _dot;
},
{
pos = (1270,578.258);
ref = _dot;
},
{
pos = (1270,503.877);
ref = _dot;
},
{
pos = (1270,427.96);
ref = _dot;
},
{
pos = (1270,353.81);
ref = _dot;
},
{
pos = (1270,278.886);
ref = _dot;
},
{
pos = (1270,203.959);
ref = _dot;
},
{
pos = (1270,128.682);
ref = _dot;
},
{
pos = (323.131,900);
ref = _dot;
},
{
pos = (396.959,900);
ref = _dot;
},
{
pos = (470.563,900);
ref = _dot;
},
{
pos = (543.83,900);
ref = _dot;
},
{
pos = (616.767,900);
ref = _dot;
},
{
pos = (689.811,900);
ref = _dot;
},
{
pos = (762.76,900);
ref = _dot;
},
{
pos = (835.66,900);
ref = _dot;
},
{
pos = (908.555,900);
ref = _dot;
},
{
pos = (982.493,900);
ref = _dot;
},
{
pos = (1056.416,900);
ref = _dot;
},
{
pos = (1130.132,900);
ref = _dot;
},
{
pos = (1203.101,900);
ref = _dot;
}
);
width = 1520;
}
);
unicode = 72;
}
{
glyphname = I;
layers = (
{
layerId = m01;
shapes = (
{
pos = (500,0);
ref = _c.stemLA;
},
{
closed = 0;
nodes = (
(250,0,l),
(350,0,o),
(1150,0,o),
(1250,0,c)
);
},
{
closed = 0;
nodes = (
(250,1700,l),
(350,1700,o),
(1150,1700,o),
(1250,1700,c)
);
}
);
width = 1500;
},
{
layerId = "75405DBD-BDE7-4DB9-970A-41B7BDE3CB72";
shapes = (
{
pos = (750,1700);
ref = _dot;
},
{
pos = (750,0);
ref = _dot;
},
{
pos = (250,0);
ref = _dot;
},
{
pos = (1250,0);
ref = _dot;
},
{
pos = (250,1700);
ref = _dot;
},
{
pos = (1250,1700);
ref = _dot;
},
{
pos = (750,1586.667);
ref = _dot;
},
{
pos = (750,1473.333);
ref = _dot;
},
{
pos = (750,1360);
ref = _dot;
},
{
pos = (750,1246.667);
ref = _dot;
},
{
pos = (750,1133.333);
ref = _dot;
},
{
pos = (750,1020);
ref = _dot;
},
{
pos = (750,906.667);
ref = _dot;
},
{
pos = (750,793.333);
ref = _dot;
},
{
pos = (750,680);
ref = _dot;
},
{
pos = (750,566.667);
ref = _dot;
},
{
pos = (750,453.333);
ref = _dot;
},
{
pos = (750,340);
ref = _dot;
},
{
pos = (750,226.667);
ref = _dot;
},
{
pos = (750,113.333);
ref = _dot;
},
{
pos = (361.111,0);
ref = _dot;
},
{
pos = (472.222,0);
ref = _dot;
},
{
pos = (583.333,0);
ref = _dot;
},
{
pos = (916.667,0);
ref = _dot;
},
{
pos = (1027.778,0);
ref = _dot;
},
{
pos = (1138.889,0);
ref = _dot;
},
{
pos = (361.111,1700);
ref = _dot;
},
{
pos = (472.222,1700);
ref = _dot;
},
{
pos = (583.333,1700);
ref = _dot;
},
{
pos = (916.667,1700);
ref = _dot;
},
{
pos = (1027.778,1700);
ref = _dot;
},
{
pos = (1138.889,1700);
ref = _dot;
},
{
closed = 1;
nodes = (
(0,0,l),
(1500,0,l),
(1500,15,l),
(0,15,l)
);
},
{
closed = 1;
nodes = (
(0,680,l),
(1500,680,l),
(1500,695,l),
(0,695,l)
);
},
{
closed = 1;
nodes = (
(0,962,l),
(1500,962,l),
(1500,977,l),
(0,977,l)
);
},
{
closed = 1;
nodes = (
(0,1483,l),
(1500,1483,l),
(1500,1498,l),
(0,1498,l)
);
},
{
closed = 1;
nodes = (
(0,-493,l),
(1500,-493,l),
(1500,-478,l),
(0,-478,l)
);
},
{
closed = 1;
nodes = (
(0,-1130,l),
(1500,-1130,l),
(1500,-1115,l),
(0,-1115,l)
);
}
);
width = 1500;
}
);
unicode = 73;
}
{
glyphname = J;
layers = (
{
layerId = m01;
shapes = (
{
closed = 0;
nodes = (
(980,1700,l),
(980,1533,o),
(980,766,o),
(980,600,cs),
(980,140,o),
(768,0,o),
(570,0,cs),
(388,0,o),
(235,140,o),
(180,330,c)
);
}
);
width = 1230;
},
{
layerId = "75405DBD-BDE7-4DB9-970A-41B7BDE3CB72";
shapes = (
{
closed = 1;
nodes = (
(965,1710,o),
(965,1700,c),
(965,1333.333,o),
(965,966.667,o),
(965,600,c),
(965,344.019,o),
(884.025,15,o),
(570,15,c),
(384.176,15,o),
(243.428,164.829,o),
(194.408,334.171,c),
(191.628,343.777,o),
(183.033,346.494,o),
(175.829,344.408,c),
(168.625,342.323,o),
(162.811,335.435,o),
(165.592,325.829,c),
(218.361,143.535,o),
(370.644,-15,o),
(570,-15,c),
(902.699,-15,o),
(995,325.913,o),
(995,600,c),
(995,966.667,o),
(995,1333.333,o),
(995,1700,c),
(995,1710,o),
(987.5,1715,o),
(980,1715,c),
(972.5,1715,o)
);
}
);
width = 1230;
}
);
unicode = 74;
}
{
glyphname = K;
layers = (
{
layerId = m01;
shapes = (
{
closed = 0;
nodes = (
(1130,1700,l),
(280,900,l),
(1170,0,l)
);
},
{
ref = _c.stemLA;
}
);
width = 1320;
},
{
layerId = "75405DBD-BDE7-4DB9-970A-41B7BDE3CB72";
shapes = (
{
pos = (1130,1700);
ref = _dot;
},
{
pos = (1170,0);
ref = _dot;
},
{
pos = (250,1700);
ref = _dot;
},
{
pos = (250,0);
ref = _dot;
},
{
pos = (1049.468,1624.205);
ref = _dot;
},
{
pos = (968.935,1548.41);
ref = _dot;
},
{
pos = (888.403,1472.614);
ref = _dot;
},
{
pos = (807.87,1396.819);
ref = _dot;
},
{
pos = (727.338,1321.024);
ref = _dot;
},
{
pos = (646.806,1245.229);
ref = _dot;
},
{
pos = (566.273,1169.434);
ref = _dot;
},
{
pos = (485.741,1093.639);
ref = _dot;
},
{
pos = (405.209,1017.843);
ref = _dot;
},
{
pos = (324.676,942.048);
ref = _dot;
},
{
pos = (314.623,864.988);
ref = _dot;
},
{
pos = (392.384,786.353);
ref = _dot;
},
{
pos = (470.146,707.718);
ref = _dot;
},
{
pos = (547.907,629.082);
ref = _dot;
},
{
pos = (625.669,550.447);
ref = _dot;
},
{
pos = (703.43,471.812);
ref = _dot;
},
{
pos = (781.192,393.177);
ref = _dot;
},
{
pos = (858.954,314.541);
ref = _dot;
},
{
pos = (936.715,235.906);
ref = _dot;
},
{
pos = (1014.477,157.271);
ref = _dot;
},
{
pos = (1092.238,78.635);
ref = _dot;
},
{
pos = (250,1586.667);
ref = _dot;
},
{
pos = (250,1473.333);
ref = _dot;
},
{
pos = (250,1360);
ref = _dot;
},
{
pos = (250,1246.667);
ref = _dot;
},
{
pos = (250,1133.333);
ref = _dot;
},
{
pos = (250,1020);
ref = _dot;
},
{
pos = (250,906.667);
ref = _dot;
},
{
pos = (250,793.333);
ref = _dot;
},
{
pos = (250,680);
ref = _dot;
},
{
pos = (250,566.667);
ref = _dot;
},
{
pos = (250,453.333);
ref = _dot;
},
{
pos = (250,340);
ref = _dot;
},
{
pos = (250,226.667);
ref = _dot;
},
{
pos = (250,113.333);
ref = _dot;
},
{
closed = 1;
nodes = (
(0,0,l),
(1320,0,l),
(1320,15,l),
(0,15,l)
);
},
{
closed = 1;
nodes = (
(0,680,l),
(1320,680,l),
(1320,695,l),
(0,695,l)
);
},
{
closed = 1;
nodes = (
(0,962,l),
(1320,962,l),
(1320,977,l),
(0,977,l)
);
},
{
closed = 1;
nodes = (
(0,1483,l),
(1320,1483,l),
(1320,1498,l),
(0,1498,l)
);
},
{
closed = 1;
nodes = (
(0,-493,l),
(1320,-493,l),
(1320,-478,l),
(0,-478,l)
);
},
{
closed = 1;
nodes = (
(0,-1130,l),
(1320,-1130,l),
(1320,-1115,l),
(0,-1115,l)
);
}
);
width = 1320;
}
);
unicode = 75;
}
{
glyphname = L;
layers = (
{
layerId = m01;
shapes = (
{
ref = _c.stemLA;
},
{
closed = 0;
nodes = (
(250,0,l,{
co.uk.corvelsoftware.Dotter = {
locally_forced = 1;
};
}),
(350,0,o),
(1050,0,o),
(1150,0,c)
);
}
);
width = 1300;
},
{
layerId = "75405DBD-BDE7-4DB9-970A-41B7BDE3CB72";
shapes = (
{
pos = (250,1700);
ref = _dot;
},
{
pos = (250,0);
ref = _dot;
},
{
pos = (1150,0);
ref = _dot;
},
{
pos = (250,1586.667);
ref = _dot;
},
{
pos = (250,1473.333);
ref = _dot;
},
{
pos = (250,1360);
ref = _dot;
},
{
pos = (250,1246.667);
ref = _dot;
},
{
pos = (250,1133.333);
ref = _dot;
},
{
pos = (250,1020);
ref = _dot;
},
{
pos = (250,906.667);
ref = _dot;
},
{
pos = (250,793.333);
ref = _dot;
},
{
pos = (250,680);
ref = _dot;
},
{
pos = (250,566.667);
ref = _dot;
},
{
pos = (250,453.333);
ref = _dot;
},
{
pos = (250,340);
ref = _dot;
},
{
pos = (250,226.667);
ref = _dot;
},
{
pos = (250,113.333);
ref = _dot;
},
{
pos = (362.5,0);
ref = _dot;
},
{
pos = (475,0);
ref = _dot;
},
{
pos = (587.5,0);
ref = _dot;
},
{
pos = (700,0);
ref = _dot;
},
{
pos = (812.5,0);
ref = _dot;
},
{
pos = (925,0);
ref = _dot;
},
{
pos = (1037.5,0);
ref = _dot;
},
{
closed = 1;
nodes = (
(0,0,l),
(1300,0,l),
(1300,15,l),
(0,15,l)
);
},
{
closed = 1;
nodes = (
(0,680,l),
(1300,680,l),
(1300,695,l),
(0,695,l)
);
},
{
closed = 1;
nodes = (
(0,962,l),
(1300,962,l),
(1300,977,l),
(0,977,l)
);
},
{
closed = 1;
nodes = (
(0,1483,l),
(1300,1483,l),
(1300,1498,l),
(0,1498,l)
);
},
{
closed = 1;
nodes = (
(0,-493,l),
(1300,-493,l),
(1300,-478,l),
(0,-478,l)
);
},
{
closed = 1;
nodes = (
(0,-1130,l),
(1300,-1130,l),
(1300,-1115,l),
(0,-1115,l)
);
}
);
width = 1300;
}
);
unicode = 76;
}
{
glyphname = M;
layers = (
{
layerId = m01;
shapes = (
{
ref = _c.stemLA;
},
{
pos = (1380,0);
ref = _c.stemLA;
},
{
closed = 0;
nodes = (
(250,1700,l,{
co.uk.corvelsoftware.Dotter = {
locally_forced = 1;
};
}),
(940,0,l),
(1630,1704,l)
);
}
);
width = 1880;
},
{
layerId = "75405DBD-BDE7-4DB9-970A-41B7BDE3CB72";
shapes = (
{
pos = (250,1700);
ref = _dot;
},
{
pos = (250,0);
ref = _dot;
},
{
pos = (1630,1700);
ref = _dot;
},
{
pos = (1630,0);
ref = _dot;
},
{
pos = (250,1625.436);
ref = _dot;
},
{
pos = (250,1550.187);
ref = _dot;
},
{
pos = (250,1476.015);
ref = _dot;
},
{
pos = (250,1400.606);
ref = _dot;
},
{
pos = (250,1326.038);
ref = _dot;
},
{
pos = (250,1250.702);
ref = _dot;
},
{
pos = (250,1176.08);
ref = _dot;
},
{
pos = (250,1101.065);
ref = _dot;
},
{
pos = (250,1026.465);
ref = _dot;
},
{
pos = (250,950.593);
ref = _dot;
},
{
pos = (250,876.396);
ref = _dot;
},
{
pos = (250,802.022);
ref = _dot;
},
{
pos = (250,727.971);
ref = _dot;
},
{
pos = (250,652.401);
ref = _dot;
},
{
pos = (250,578.258);
ref = _dot;
},
{
pos = (250,503.877);
ref = _dot;
},
{
pos = (250,427.96);
ref = _dot;
},
{
pos = (250,353.81);
ref = _dot;
},
{
pos = (250,278.886);
ref = _dot;
},
{
pos = (250,203.959);
ref = _dot;
},
{
pos = (250,128.682);
ref = _dot;
},
{
pos = (1630,1625.436);
ref = _dot;
},
{
pos = (1630,1550.187);
ref = _dot;
},
{
pos = (1630,1476.015);
ref = _dot;
},
{
pos = (1630,1400.606);
ref = _dot;
},
{
pos = (1630,1326.038);
ref = _dot;
},
{
pos = (1630,1250.702);
ref = _dot;
},
{
pos = (1630,1176.08);
ref = _dot;
},
{
pos = (1630,1101.065);
ref = _dot;
},
{
pos = (1630,1026.465);
ref = _dot;
},
{
pos = (1630,950.593);
ref = _dot;
},
{
pos = (1630,876.396);
ref = _dot;
},
{
pos = (1630,802.022);
ref = _dot;
},
{
pos = (1630,727.971);
ref = _dot;
},
{
pos = (1630,652.401);
ref = _dot;
},
{
pos = (1630,578.258);
ref = _dot;
},
{
pos = (1630,503.877);
ref = _dot;
},
{
pos = (1630,427.96);
ref = _dot;
},
{
pos = (1630,353.81);
ref = _dot;
},
{
pos = (1630,278.886);
ref = _dot;
},
{
pos = (1630,203.959);
ref = _dot;
},
{
pos = (1630,128.682);
ref = _dot;
},
{
pos = (306.58,1560.6);
ref = _dot;
},
{
pos = (334.87,1490.9);
ref = _dot;
},
{
pos = (363.16,1421.2);
ref = _dot;
},
{
pos = (391.45,1351.5);
ref = _dot;
},
{
pos = (419.74,1281.8);
ref = _dot;
},
{
pos = (448.03,1212.1);
ref = _dot;
},
{
pos = (476.32,1142.4);
ref = _dot;
},
{
pos = (504.61,1072.7);
ref = _dot;
},
{
pos = (532.9,1003);
ref = _dot;
},
{
pos = (561.19,933.3);
ref = _dot;
},
{
pos = (589.48,863.6);
ref = _dot;
},
{
pos = (617.77,793.9);
ref = _dot;
},
{
pos = (646.06,724.2);
ref = _dot;
},
{
pos = (674.35,654.5);
ref = _dot;
},
{
pos = (702.64,584.8);
ref = _dot;
},
{
pos = (730.93,515.1);
ref = _dot;
},
{
pos = (759.22,445.4);
ref = _dot;
},
{
pos = (787.51,375.7);
ref = _dot;
},
{
pos = (815.8,306);
ref = _dot;
},
{
pos = (844.09,236.3);
ref = _dot;
},
{
pos = (872.38,166.6);
ref = _dot;
},
{
pos = (900.67,96.9);
ref = _dot;
},
{
pos = (928.96,27.2);
ref = _dot;
},
{
pos = (985.54,112.464);
ref = _dot;
},
{
pos = (1013.83,182.328);
ref = _dot;
},
{
pos = (1042.12,252.192);
ref = _dot;
},
{
pos = (1070.41,322.056);
ref = _dot;
},
{
pos = (1098.7,391.92);
ref = _dot;
},
{
pos = (1126.99,461.784);
ref = _dot;
},
{
pos = (1155.28,531.648);
ref = _dot;
},
{
pos = (1183.57,601.512);
ref = _dot;
},
{
pos = (1211.86,671.376);
ref = _dot;
},
{
pos = (1240.15,741.24);
ref = _dot;
},
{
pos = (1268.44,811.104);
ref = _dot;
},
{
pos = (1296.73,880.968);
ref = _dot;
},
{
pos = (1325.02,950.832);
ref = _dot;
},
{
pos = (1353.31,1020.696);
ref = _dot;
},
{
pos = (1381.6,1090.56);
ref = _dot;
},
{
pos = (1409.89,1160.424);
ref = _dot;
},
{
pos = (1438.18,1230.288);
ref = _dot;
},
{
pos = (1466.47,1300.152);
ref = _dot;
},
{
pos = (1494.76,1370.016);
ref = _dot;
},
{
pos = (1523.05,1439.88);
ref = _dot;
},
{
pos = (1551.34,1509.744);
ref = _dot;
},
{
pos = (1579.63,1579.608);
ref = _dot;
}
);
width = 1880;
}
);
unicode = 77;
}
{
glyphname = N;
layers = (
{
layerId = m01;
shapes = (
{
ref = _c.stemLA;
},
{
pos = (1060,0);
ref = _c.stemLA;
},
{
closed = 0;
nodes = (
(250,1700,l,{
co.uk.corvelsoftware.Dotter = {
locally_forced = 1;
};
}),
(1310,0,l,{
co.uk.corvelsoftware.Dotter = {
locally_forced = 1;
};
})
);
}
);
width = 1560;
},
{
layerId = "75405DBD-BDE7-4DB9-970A-41B7BDE3CB72";
shapes = (
{
pos = (250,1700);
ref = _dot;
},
{
pos = (250,0);
ref = _dot;
},
{
pos = (1310,1700);
ref = _dot;
},
{
pos = (1310,0);
ref = _dot;
},
{
pos = (250,1545.455);
ref = _dot;
},
{
pos = (250,1390.909);
ref = _dot;
},
{
pos = (250,1236.364);
ref = _dot;
},
{
pos = (250,1081.818);
ref = _dot;
},
{
pos = (250,927.273);
ref = _dot;
},
{
pos = (250,772.727);
ref = _dot;
},
{
pos = (250,618.182);
ref = _dot;
},
{
pos = (250,463.636);
ref = _dot;
},
{
pos = (250,309.091);
ref = _dot;
},
{
pos = (250,154.545);
ref = _dot;
},
{
pos = (1310,1545.455);
ref = _dot;
},
{
pos = (1310,1390.909);
ref = _dot;
},
{
pos = (1310,1236.364);
ref = _dot;
},
{
pos = (1310,1081.818);
ref = _dot;
},
{
pos = (1310,927.273);
ref = _dot;
},
{
pos = (1310,772.727);
ref = _dot;
},
{
pos = (1310,618.182);
ref = _dot;
},
{
pos = (1310,463.636);
ref = _dot;
},
{
pos = (1310,309.091);
ref = _dot;
},
{
pos = (1310,154.545);
ref = _dot;
},
{
pos = (413.077,1438.462);
ref = _dot;
},
{
pos = (494.615,1307.692);
ref = _dot;
},
{
pos = (576.154,1176.923);
ref = _dot;
},
{
pos = (657.692,1046.154);
ref = _dot;
},
{
pos = (739.231,915.385);
ref = _dot;
},
{
pos = (820.769,784.615);
ref = _dot;
},
{
pos = (902.308,653.846);
ref = _dot;
},
{
pos = (983.846,523.077);
ref = _dot;
},
{
pos = (1065.385,392.308);
ref = _dot;
},
{
pos = (1146.923,261.538);
ref = _dot;
},
{
closed = 1;
nodes = (
(0,1483,l),
(1560,1483,l),
(1560,1505,l),
(0,1505,l)
);
},
{
closed = 1;
nodes = (
(0,962,l),
(1560,962,l),
(1560,977,l),
(0,977,l)
);
},
{
closed = 1;
nodes = (
(0,680,l),
(1560,680,l),
(1560,695,l),
(0,695,l)
);
},
{
closed = 1;
nodes = (
(0,-493,l),
(1560,-493,l),
(1560,-478,l),
(0,-478,l)
);
},
{
closed = 1;
nodes = (
(0,-1130,l),
(1560,-1130,l),
(1560,-1108,l),
(0,-1108,l)
);
},
{
closed = 1;
nodes = (
(0,0,l),
(1560,0,l),
(1560,22,l),
(0,22,l)
);
}
);
width = 1560;
},
{
layerId = m003;
shapes = (
{
ref = _c.stemLA;
},
{
pos = (1060,0);
ref = _c.stemLA;
},
{
closed = 0;
nodes = (
(250,1700,l,{
co.uk.corvelsoftware.Dotter = {
locally_forced = 1;
};
}),
(1310,0,l,{
co.uk.corvelsoftware.Dotter = {
locally_forced = 1;
};
})
);
}
);
width = 1560;
},
{
associatedMasterId = m01;
layerId = m004;
shapes = (
{
ref = _c.stemLA;
},
{
pos = (1060,0);
ref = _c.stemLA;
},
{
closed = 0;
nodes = (
(250,1700,l,{
co.uk.corvelsoftware.Dotter = {
locally_forced = 1;
};
}),
(1310,0,l,{
co.uk.corvelsoftware.Dotter = {
locally_forced = 1;
};
})
);
}
);
width = 1560;
},
{
associatedMasterId = m003;
layerId = "3793B04B-6372-4C3D-BF5E-9853442F11D6";
shapes = (
{
ref = _c.stemLA;
},
{
pos = (1060,0);
ref = _c.stemLA;
},
{
closed = 0;
nodes = (
(250,1700,l,{
co.uk.corvelsoftware.Dotter = {
locally_forced = 1;
};
}),
(1310,0,l,{
co.uk.corvelsoftware.Dotter = {
locally_forced = 1;
};
})
);
}
);
width = 1560;
},
{
associatedMasterId = m003;
layerId = "F90C2897-23B1-472D-8B8D-0F958D83527B";
shapes = (
{
ref = _c.stemLA;
},
{
pos = (1060,0);
ref = _c.stemLA;
},
{
closed = 0;
nodes = (
(250,1700,l,{
co.uk.corvelsoftware.Dotter = {
locally_forced = 1;
};
}),
(1310,0,l,{
co.uk.corvelsoftware.Dotter = {
locally_forced = 1;
};
})
);
}
);
width = 1560;
}
);
unicode = 78;
}
{
glyphname = O;
layers = (
{
layerId = m01;
shapes = (
{
closed = 0;
nodes = (
(762,1700,l),
(437,1700,o),
(180,1420,o),
(180,870,cs),
(180,310,o),
(435,0,o),
(760,0,cs),
(1085,0,o),
(1340,310,o),
(1340,870,cs),
(1340,1420,o),
(1084,1700,o),
(759,1700,cs)
);
}
);
width = 1520;
},
{
layerId = "75405DBD-BDE7-4DB9-970A-41B7BDE3CB72";
shapes = (
{
pos = (762,1700);
ref = _dot;
},
{
pos = (689.187,1695.135);
ref = _dot;
},
{
pos = (617.765,1680.205);
ref = _dot;
},
{
pos = (549.305,1654.973);
ref = _dot;
},
{
pos = (485.369,1619.819);
ref = _dot;
},
{
pos = (427.258,1575.69);
ref = _dot;
},
{
pos = (375.745,1523.999);
ref = _dot;
},
{
pos = (331.161,1466.212);
ref = _dot;
},
{
pos = (293.403,1403.74);
ref = _dot;
},
{
pos = (262.057,1337.808);
ref = _dot;
},
{
pos = (236.656,1269.359);
ref = _dot;
},
{
pos = (216.654,1199.137);
ref = _dot;
},
{
pos = (201.477,1127.713);
ref = _dot;
},
{
pos = (190.68,1055.494);
ref = _dot;
},
{
pos = (183.806,982.795);
ref = _dot;
},
{
pos = (180.477,909.846);
ref = _dot;
},
{
pos = (180.303,836.82);
ref = _dot;
},
{
pos = (183.209,763.852);
ref = _dot;
},
{
pos = (189.376,691.088);
ref = _dot;
},
{
pos = (199.146,618.722);
ref = _dot;
},
{
pos = (212.883,547.005);
ref = _dot;
},
{
pos = (230.971,476.262);
ref = _dot;
},
{
pos = (253.858,406.928);
ref = _dot;
},
{
pos = (282.022,339.568);
ref = _dot;
},
{
pos = (315.957,274.931);
ref = _dot;
},
{
pos = (356.118,213.977);
ref = _dot;
},
{
pos = (402.857,157.918);
ref = _dot;
},
{
pos = (456.282,108.207);
ref = _dot;
},
{
pos = (516.079,66.395);
ref = _dot;
},
{
pos = (581.467,34.032);
ref = _dot;
},
{
pos = (651.077,12.199);
ref = _dot;
},
{
pos = (723.225,1.357);
ref = _dot;
},
{
pos = (796.191,1.318);
ref = _dot;
},
{
pos = (868.353,12.068);
ref = _dot;
},
{
pos = (937.991,33.811);
ref = _dot;
},
{
pos = (1003.415,66.101);
ref = _dot;
},
{
pos = (1063.264,107.838);
ref = _dot;
},
{
pos = (1116.739,157.494);
ref = _dot;
},
{
pos = (1163.532,213.507);
ref = _dot;
},
{
pos = (1203.748,274.426);
ref = _dot;
},
{
pos = (1237.729,339.039);
ref = _dot;
},
{
pos = (1265.937,406.379);
ref = _dot;
},
{
pos = (1288.867,475.7);
ref = _dot;
},
{
pos = (1306.988,546.434);
ref = _dot;
},
{
pos = (1320.758,618.144);
ref = _dot;
},
{
pos = (1330.559,690.507);
ref = _dot;
},
{
pos = (1336.755,763.268);
ref = _dot;
},
{
pos = (1339.685,836.235);
ref = _dot;
},
{
pos = (1339.539,909.261);
ref = _dot;
},
{
pos = (1336.251,982.212);
ref = _dot;
},
{
pos = (1329.426,1054.916);
ref = _dot;
},
{
pos = (1318.704,1127.146);
ref = _dot;
},
{
pos = (1303.61,1198.588);
ref = _dot;
},
{
pos = (1283.708,1268.838);
ref = _dot;
},
{
pos = (1258.417,1337.329);
ref = _dot;
},
{
pos = (1227.183,1403.314);
ref = _dot;
},
{
pos = (1189.541,1465.856);
ref = _dot;
},
{
pos = (1145.06,1523.723);
ref = _dot;
},
{
pos = (1093.631,1575.497);
ref = _dot;
},
{
pos = (1035.58,1619.706);
ref = _dot;
},
{
pos = (971.677,1654.919);
ref = _dot;
},
{
pos = (903.231,1680.188);
ref = _dot;
},
{
pos = (831.813,1695.133);
ref = _dot;
}
);
width = 1520;
}
);
unicode = 79;
}
{
glyphname = P;
layers = (
{
layerId = m01;
shapes = (
{
closed = 0;
nodes = (
(255,1700,l),
(355,1700,o),
(590,1700,o),
(690,1700,cs),
(955,1700,o),
(1200,1590,o),
(1200,1300,cs),
(1200,1010,o),
(955,870,o),
(690,870,cs),
(590,870,o),
(355,870,o),
(255,870,c)
);
},
{
closed = 0;
nodes = (
(250,1700,l),
(250,1600,o),
(250,100,o),
(250,0,c)
);
}
);
width = 1380;
},
{
layerId = "75405DBD-BDE7-4DB9-970A-41B7BDE3CB72";
shapes = (
{
pos = (255,1700);
ref = _dot;
},
{
pos = (255,870);
ref = _dot;
},
{
pos = (250,0);
ref = _dot;
},
{
pos = (345.455,1700);
ref = _dot;
},
{
pos = (435.91,1700);
ref = _dot;
},
{
pos = (526.365,1700);
ref = _dot;
},
{
pos = (616.82,1700);
ref = _dot;
},
{
pos = (707.273,1699.838);
ref = _dot;
},
{
pos = (797.47,1693.587);
ref = _dot;
},
{
pos = (886.339,1677.055);
ref = _dot;
},
{
pos = (971.943,1648.132);
ref = _dot;
},
{
pos = (1050.865,1604.262);
ref = _dot;
},
{
pos = (1117.665,1543.635);
ref = _dot;
},
{
pos = (1166.092,1467.578);
ref = _dot;
},
{
pos = (1192.913,1381.452);
ref = _dot;
},
{
pos = (1199.927,1291.408);
ref = _dot;
},
{
pos = (1189.718,1201.682);
ref = _dot;
},
{
pos = (1160.446,1116.312);
ref = _dot;
},
{
pos = (1111.729,1040.363);
ref = _dot;
},
{
pos = (1046.553,977.923);
ref = _dot;
},
{
pos = (969.69,930.514);
ref = _dot;
},
{
pos = (885.54,897.623);
ref = _dot;
},
{
pos = (797.338,877.937);
ref = _dot;
},
{
pos = (707.287,870.206);
ref = _dot;
},
{
pos = (616.82,870);
ref = _dot;
},
{
pos = (526.365,870);
ref = _dot;
},
{
pos = (435.91,870);
ref = _dot;
},
{
pos = (345.455,870);
ref = _dot;
},
{
pos = (250,1610.526);
ref = _dot;
},
{
pos = (250,1521.053);
ref = _dot;
},
{
pos = (250,1431.579);
ref = _dot;
},
{
pos = (250,1342.105);
ref = _dot;
},
{
pos = (250,1252.632);
ref = _dot;
},
{
pos = (250,1163.158);
ref = _dot;
},
{
pos = (250,1073.684);
ref = _dot;
},
{
pos = (250,984.211);
ref = _dot;
},
{
pos = (250,805.263);
ref = _dot;
},
{
pos = (250,715.789);
ref = _dot;
},
{
pos = (250,626.316);
ref = _dot;
},
{
pos = (250,536.842);
ref = _dot;
},
{
pos = (250,447.368);
ref = _dot;
},
{
pos = (250,357.895);
ref = _dot;
},
{
pos = (250,268.421);
ref = _dot;
},
{
pos = (250,178.947);
ref = _dot;
},
{
pos = (250,89.474);
ref = _dot;
}
);
width = 1380;
}
);
unicode = 80;
}
{
glyphname = Q;
layers = (
{
layerId = m01;
shapes = (
{
ref = O;
},
{
closed = 0;
nodes = (
(820,500,l),
(1320,-300,l)
);
}
);
width = 1520;
},
{
layerId = "75405DBD-BDE7-4DB9-970A-41B7BDE3CB72";
shapes = (
{
pos = (762,1700);
ref = _dot;
},
{
pos = (1064.546,108.85);
ref = _dot;
},
{
pos = (820,500);
ref = _dot;
},
{
pos = (1320,-300);
ref = _dot;
},
{
pos = (689.142,1695.129);
ref = _dot;
},
{
pos = (617.678,1680.18);
ref = _dot;
},
{
pos = (549.182,1654.916);
ref = _dot;
},
{
pos = (485.216,1619.722);
ref = _dot;
},
{
pos = (427.088,1575.541);
ref = _dot;
},
{
pos = (375.565,1523.796);
ref = _dot;
},
{
pos = (330.98,1465.951);
ref = _dot;
},
{
pos = (293.231,1403.42);
ref = _dot;
},
{
pos = (261.896,1337.433);
ref = _dot;
},
{
pos = (236.514,1268.928);
ref = _dot;
},
{
pos = (216.534,1198.653);
ref = _dot;
},
{
pos = (201.379,1127.178);
ref = _dot;
},
{
pos = (190.612,1054.908);
ref = _dot;
},
{
pos = (183.76,982.161);
ref = _dot;
},
{
pos = (180.461,909.166);
ref = _dot;
},
{
pos = (180.319,836.094);
ref = _dot;
},
{
pos = (183.256,763.082);
ref = _dot;
},
{
pos = (189.467,690.277);
ref = _dot;
},
{
pos = (199.287,617.872);
ref = _dot;
},
{
pos = (213.082,546.119);
ref = _dot;
},
{
pos = (231.235,475.347);
ref = _dot;
},
{
pos = (254.208,405.993);
ref = _dot;
},
{
pos = (282.466,338.625);
ref = _dot;
},
{
pos = (316.506,273.991);
ref = _dot;
},
{
pos = (356.796,213.067);
ref = _dot;
},
{
pos = (403.67,157.064);
ref = _dot;
},
{
pos = (457.232,107.435);
ref = _dot;
},
{
pos = (517.177,65.756);
ref = _dot;
},
{
pos = (582.685,33.535);
ref = _dot;
},
{
pos = (652.403,11.894);
ref = _dot;
},
{
pos = (724.628,1.262);
ref = _dot;
},
{
pos = (797.64,1.409);
ref = _dot;
},
{
pos = (869.816,12.384);
ref = _dot;
},
{
pos = (939.427,34.375);
ref = _dot;
},
{
pos = (1004.783,66.906);
ref = _dot;
},
{
pos = (1117.828,158.629);
ref = _dot;
},
{
pos = (1164.44,214.716);
ref = _dot;
},
{
pos = (1204.495,275.67);
ref = _dot;
},
{
pos = (1238.328,340.294);
ref = _dot;
},
{
pos = (1266.411,407.622);
ref = _dot;
},
{
pos = (1289.23,476.917);
ref = _dot;
},
{
pos = (1307.259,547.612);
ref = _dot;
},
{
pos = (1320.945,619.278);
ref = _dot;
},
{
pos = (1330.689,691.588);
ref = _dot;
},
{
pos = (1336.835,764.293);
ref = _dot;
},
{
pos = (1339.704,837.202);
ref = _dot;
},
{
pos = (1339.517,910.168);
ref = _dot;
},
{
pos = (1336.189,983.056);
ref = _dot;
},
{
pos = (1329.336,1055.697);
ref = _dot;
},
{
pos = (1318.573,1127.86);
ref = _dot;
},
{
pos = (1303.45,1199.234);
ref = _dot;
},
{
pos = (1283.518,1269.412);
ref = _dot;
},
{
pos = (1258.203,1337.829);
ref = _dot;
},
{
pos = (1226.955,1403.74);
ref = _dot;
},
{
pos = (1189.3,1466.204);
ref = _dot;
},
{
pos = (1144.82,1523.995);
ref = _dot;
},
{
pos = (1093.403,1575.696);
ref = _dot;
},
{
pos = (1035.376,1619.836);
ref = _dot;
},
{
pos = (971.512,1654.995);
ref = _dot;
},
{
pos = (903.115,1680.221);
ref = _dot;
},
{
pos = (831.753,1695.141);
ref = _dot;
},
{
pos = (860.749,434.801);
ref = _dot;
},
{
pos = (901.498,369.603);
ref = _dot;
},
{
pos = (942.247,304.404);
ref = _dot;
},
{
pos = (982.997,239.206);
ref = _dot;
},
{
pos = (1023.746,174.007);
ref = _dot;
},
{
pos = (1107.079,40.674);
ref = _dot;
},
{
pos = (1149.663,-27.461);
ref = _dot;
},
{
pos = (1192.247,-95.596);
ref = _dot;
},
{
pos = (1234.832,-163.731);
ref = _dot;
},
{
pos = (1277.416,-231.865);
ref = _dot;
}
);
width = 1520;
}
);
unicode = 81;
}
{
glyphname = R;
layers = (
{
layerId = m01;
shapes = (
{
closed = 0;
nodes = (
(255,1700,l),
(355,1700,o),
(570,1700,o),
(670,1700,cs),
(935,1700,o),
(1150,1580,o),
(1150,1300,cs),
(1150,1020,o),
(935,870,o),
(670,870,cs),
(570,870,o),
(355,870,o),
(255,870,c)
);
},
{
closed = 0;
nodes = (
(250,1700,l),
(250,1600,o),
(250,100,o),
(250,0,c)
);
},
{
closed = 0;
nodes = (
(510,870,l,{
co.uk.corvelsoftware.Dotter = {
locally_forced = 1;
};
}),
(655,870,o),
(752,794,o),
(864,600,cs),
(1210,0,l)
);
}
);
width = 1380;
},
{
layerId = "75405DBD-BDE7-4DB9-970A-41B7BDE3CB72";
shapes = (
{
pos = (255,1700);
ref = _dot;
},
{
pos = (255,870);
ref = _dot;
},
{
pos = (250,0);
ref = _dot;
},
{
pos = (510,870);
ref = _dot;
},
{
pos = (1210,0);
ref = _dot;
},
{
pos = (328.193,1700);
ref = _dot;
},
{
pos = (401.58,1700);
ref = _dot;
},
{
pos = (474.781,1700);
ref = _dot;
},
{
pos = (548.007,1700);
ref = _dot;
},
{
pos = (621.102,1700);
ref = _dot;
},
{
pos = (694.496,1699.653);
ref = _dot;
},
{
pos = (767.459,1694.205);
ref = _dot;
},
{
pos = (839.402,1681.319);
ref = _dot;
},
{
pos = (909.443,1659.609);
ref = _dot;
},
{
pos = (975.569,1627.575);
ref = _dot;
},
{
pos = (1034.423,1584.445);
ref = _dot;
},
{
pos = (1083.063,1530.098);
ref = _dot;
},
{
pos = (1118.694,1466.414);
ref = _dot;
},
{
pos = (1140.549,1396.133);
ref = _dot;
},
{
pos = (1149.498,1323.145);
ref = _dot;
},
{
pos = (1147.56,1249.424);
ref = _dot;
},
{
pos = (1134.549,1177.095);
ref = _dot;
},
{
pos = (1109.298,1108.316);
ref = _dot;
},
{
pos = (1071.688,1045.783);
ref = _dot;
},
{
pos = (1022.656,991.594);
ref = _dot;
},
{
pos = (964.051,947.165);
ref = _dot;
},
{
pos = (899.08,913.473);
ref = _dot;
},
{
pos = (829.517,889.847);
ref = _dot;
},
{
pos = (757.682,875.717);
ref = _dot;
},
{
pos = (684.26,870.146);
ref = _dot;
},
{
pos = (610.953,870);
ref = _dot;
},
{
pos = (391.031,870);
ref = _dot;
},
{
pos = (317.633,870);
ref = _dot;
},
{
pos = (250,1625.436);
ref = _dot;
},
{
pos = (250,1550.187);
ref = _dot;
},
{
pos = (250,1476.015);
ref = _dot;
},
{
pos = (250,1400.606);
ref = _dot;
},
{
pos = (250,1326.038);
ref = _dot;
},
{
pos = (250,1250.702);
ref = _dot;
},
{
pos = (250,1176.08);
ref = _dot;
},
{
pos = (250,1101.065);
ref = _dot;
},
{
pos = (250,1026.465);
ref = _dot;
},
{
pos = (250,950.593);
ref = _dot;
},
{
pos = (250,802.022);
ref = _dot;
},
{
pos = (250,727.971);
ref = _dot;
},
{
pos = (250,652.401);
ref = _dot;
},
{
pos = (250,578.258);
ref = _dot;
},
{
pos = (250,503.877);
ref = _dot;
},
{
pos = (250,427.96);
ref = _dot;
},
{
pos = (250,353.81);
ref = _dot;
},
{
pos = (250,278.886);
ref = _dot;
},
{
pos = (250,203.959);
ref = _dot;
},
{
pos = (250,128.682);
ref = _dot;
},
{
pos = (711.491,798.029);
ref = _dot;
},
{
pos = (763.266,746.525);
ref = _dot;
},
{
pos = (807.871,688.916);
ref = _dot;
},
{
pos = (847.637,627.673);
ref = _dot;
},
{
pos = (884.414,564.6);
ref = _dot;
},
{
pos = (920.744,501.6);
ref = _dot;
},
{
pos = (957.074,438.6);
ref = _dot;
},
{
pos = (993.404,375.6);
ref = _dot;
},
{
pos = (1029.734,312.6);
ref = _dot;
},
{
pos = (1066.064,249.6);
ref = _dot;
},
{
pos = (1102.394,186.6);
ref = _dot;
},
{
pos = (1138.724,123.6);
ref = _dot;
},
{
pos = (1175.054,60.6);
ref = _dot;
}
);
width = 1380;
}
);
unicode = 82;
}
{
glyphname = S;
layers = (
{
background = {
shapes = (
{
closed = 0;
nodes = (
(1230,1440,l),
(1105,1596,o),
(960,1700,o),
(690,1700,cs),
(376,1700,o),
(237,1508,o),
(237,1305,cs),
(237,1074,o),
(456,973,o),
(700,914,cs),
(973,849,o),
(1261,737,o),
(1261,454,cs),
(1261,206,o),
(1012,0,o),
(730,0,cs),
(503,0,o),
(338,102,o),
(184,300,cs)
);
}
);
};
layerId = m01;
shapes = (
{
closed = 0;
nodes = (
(1230,1440,l),
(1105,1596,o),
(960,1700,o),
(690,1700,cs),
(376,1700,o),
(240,1503,o),
(240,1300,cs),
(240,1069,o),
(456,969,o),
(700,910,cs),
(973,845,o),
(1260,737,o),
(1260,454,cs),
(1260,206,o),
(1012,0,o),
(730,0,cs),
(503,0,o),
(344,102,o),
(190,300,cs)
);
}
);
width = 1390;
},
{
layerId = "75405DBD-BDE7-4DB9-970A-41B7BDE3CB72";
shapes = (
{
closed = 1;
nodes = (
(1247.959,1441.576,o),
(1241.706,1449.38,c),
(1096.395,1630.727,o),
(923.862,1715,o),
(690,1715,c),
(436.938,1715,o),
(225,1568.653,o),
(225,1300,c),
(225,1042.858,o),
(487.053,946.059,o),
(696.475,895.42,c),
(696.475,895.42,o),
(696.487,895.417,o),
(696.5,895.414,c),
(696.513,895.411,o),
(696.526,895.408,o),
(696.526,895.408,c),
(925.829,840.812,o),
(1245,742.063,o),
(1245,454,c),
(1245,189.557,o),
(972.333,15,o),
(730,15,c),
(500.312,15,o),
(338.294,133.768,o),
(201.84,309.209,c),
(195.701,317.103,o),
(186.711,316.445,o),
(180.791,311.84,c),
(174.871,307.236,o),
(172.02,298.684,o),
(178.16,290.791,c),
(320.367,107.953,o),
(490.853,-15,o),
(730,-15,c),
(989.105,-15,o),
(1275,172.681,o),
(1275,454,c),
(1275,759.451,o),
(948.412,866.274,o),
(703.474,924.592,c),
(703.474,924.592,o),
(703.487,924.589,o),
(703.5,924.586,c),
(703.513,924.583,o),
(703.525,924.58,o),
(703.525,924.58,c),
(509.406,971.519,o),
(255,1059.649,o),
(255,1300,c),
(255,1551.969,o),
(453.589,1685,o),
(690,1685,c),
(914.826,1685,o),
(1078.638,1604.912,o),
(1218.294,1430.62,c),
(1224.547,1422.817,o),
(1233.527,1423.604,o),
(1239.38,1428.294,c),
(1245.232,1432.984,o)
);
}
);
width = 1390;
}
);
unicode = 83;
}
{
glyphname = T;
layers = (
{
layerId = m01;
shapes = (
{
pos = (500,0);
ref = _c.stemLA;
},
{
closed = 0;
nodes = (
(170,1700,l),
(270,1700,o),
(1230,1700,o),
(1330,1700,c)
);
}
);
width = 1500;
},
{
layerId = "75405DBD-BDE7-4DB9-970A-41B7BDE3CB72";
shapes = (
{
pos = (750,1700);
ref = _dot;
},
{
pos = (750,0);
ref = _dot;
},
{
pos = (170,1700);
ref = _dot;
},
{
pos = (1330,1700);
ref = _dot;
},
{
pos = (750,1545.455);
ref = _dot;
},
{
pos = (750,1390.909);
ref = _dot;
},
{
pos = (750,1236.364);
ref = _dot;
},
{
pos = (750,1081.818);
ref = _dot;
},
{
pos = (750,927.273);
ref = _dot;
},
{
pos = (750,772.727);
ref = _dot;
},
{
pos = (750,618.182);
ref = _dot;
},
{
pos = (750,463.636);
ref = _dot;
},
{
pos = (750,309.091);
ref = _dot;
},
{
pos = (750,154.545);
ref = _dot;
},
{
pos = (335.714,1700);
ref = _dot;
},
{
pos = (501.429,1700);
ref = _dot;
},
{
pos = (998.571,1700);
ref = _dot;
},
{
pos = (1164.286,1700);
ref = _dot;
}
);
width = 1500;
},
{
layerId = m003;
shapes = (
{
pos = (500,0);
ref = _c.stemLA;
},
{
closed = 0;
nodes = (
(170,1700,l),
(270,1700,o),
(1230,1700,o),
(1330,1700,c)
);
}
);
width = 1500;
},
{
associatedMasterId = m01;
layerId = m004;
shapes = (
{
pos = (500,0);
ref = _c.stemLA;
},
{
closed = 0;
nodes = (
(170,1700,l),
(270,1700,o),
(1230,1700,o),
(1330,1700,c)
);
}
);
width = 1500;
},
{
associatedMasterId = m003;
layerId = "381AAFD3-3CB5-499D-BA74-F55CE9FF8B51";
shapes = (
{
pos = (500,0);
ref = _c.stemLA;
},
{
closed = 0;
nodes = (
(170,1700,l),
(270,1700,o),
(1230,1700,o),
(1330,1700,c)
);
}
);
width = 1500;
},
{
associatedMasterId = m003;
layerId = "D1115C2E-6CD7-4B13-A17E-A1634D41B24D";
shapes = (
{
pos = (500,0);
ref = _c.stemLA;
},
{
closed = 0;
nodes = (
(170,1700,l),
(270,1700,o),
(1230,1700,o),
(1330,1700,c)
);
}
);
width = 1500;
}
);
unicode = 84;
}
{
glyphname = U;
layers = (
{
layerId = m01;
shapes = (
{
closed = 0;
nodes = (
(250,1700,l),
(250,1600,o),
(250,800,o),
(250,700,cs),
(250,220,o),
(505,0,o),
(820,0,cs),
(1135,0,o),
(1390,220,o),
(1390,700,cs),
(1390,800,o),
(1390,1600,o),
(1390,1700,c)
);
}
);
width = 1640;
},
{
layerId = "75405DBD-BDE7-4DB9-970A-41B7BDE3CB72";
shapes = (
{
pos = (250,1700);
ref = _dot;
},
{
pos = (1390,1700);
ref = _dot;
},
{
pos = (250,1627.883);
ref = _dot;
},
{
pos = (250,1555.765);
ref = _dot;
},
{
pos = (250,1483.648);
ref = _dot;
},
{
pos = (250,1411.531);
ref = _dot;
},
{
pos = (250,1339.414);
ref = _dot;
},
{
pos = (250,1267.296);
ref = _dot;
},
{
pos = (250,1195.179);
ref = _dot;
},
{
pos = (250,1123.062);
ref = _dot;
},
{
pos = (250,1050.945);
ref = _dot;
},
{
pos = (250,978.827);
ref = _dot;
},
{
pos = (250,906.71);
ref = _dot;
},
{
pos = (250,834.593);
ref = _dot;
},
{
pos = (250,762.475);
ref = _dot;
},
{
pos = (250.056,690.358);
ref = _dot;
},
{
pos = (252.596,618.297);
ref = _dot;
},
{
pos = (259.59,546.533);
ref = _dot;
},
{
pos = (271.599,475.442);
ref = _dot;
},
{
pos = (289.313,405.558);
ref = _dot;
},
{
pos = (313.387,337.61);
ref = _dot;
},
{
pos = (344.505,272.594);
ref = _dot;
},
{
pos = (383.14,211.757);
ref = _dot;
},
{
pos = (429.411,156.516);
ref = _dot;
},
{
pos = (483.016,108.368);
ref = _dot;
},
{
pos = (543.06,68.542);
ref = _dot;
},
{
pos = (608.235,37.815);
ref = _dot;
},
{
pos = (677.037,16.389);
ref = _dot;
},
{
pos = (748.031,3.985);
ref = _dot;
},
{
pos = (820,0.066);
ref = _dot;
},
{
pos = (891.969,3.985);
ref = _dot;
},
{
pos = (962.963,16.389);
ref = _dot;
},
{
pos = (1031.765,37.815);
ref = _dot;
},
{
pos = (1096.94,68.542);
ref = _dot;
},
{
pos = (1156.984,108.368);
ref = _dot;
},
{
pos = (1210.589,156.516);
ref = _dot;
},
{
pos = (1256.86,211.757);
ref = _dot;
},
{
pos = (1295.495,272.594);
ref = _dot;
},
{
pos = (1326.613,337.61);
ref = _dot;
},
{
pos = (1350.687,405.558);
ref = _dot;
},
{
pos = (1368.401,475.442);
ref = _dot;
},
{
pos = (1380.41,546.533);
ref = _dot;
},
{
pos = (1387.404,618.297);
ref = _dot;
},
{
pos = (1389.944,690.358);
ref = _dot;
},
{
pos = (1390,762.475);
ref = _dot;
},
{
pos = (1390,834.593);
ref = _dot;
},
{
pos = (1390,906.71);
ref = _dot;
},
{
pos = (1390,978.827);
ref = _dot;
},
{
pos = (1390,1050.945);
ref = _dot;
},
{
pos = (1390,1123.062);
ref = _dot;
},
{
pos = (1390,1195.179);
ref = _dot;
},
{
pos = (1390,1267.296);
ref = _dot;
},
{
pos = (1390,1339.414);
ref = _dot;
},
{
pos = (1390,1411.531);
ref = _dot;
},
{
pos = (1390,1483.648);
ref = _dot;
},
{
pos = (1390,1555.765);
ref = _dot;
},
{
pos = (1390,1627.883);
ref = _dot;
}
);
width = 1640;
}
);
unicode = 85;
}
{
glyphname = V;
layers = (
{
layerId = m01;
shapes = (
{
closed = 0;
nodes = (
(150,1700,l),
(750,0,l,{
co.uk.corvelsoftware.Dotter = {
forced = 1;
};
}),
(1350,1700,l)
);
}
);
width = 1500;
},
{
layerId = "75405DBD-BDE7-4DB9-970A-41B7BDE3CB72";
shapes = (
{
closed = 1;
nodes = (
(132.527,1704.438,o),
(135.855,1695.008,c),
(335.855,1128.341,o),
(535.855,561.674,o),
(735.855,-4.992,c),
(738.076,-11.284,o),
(744.038,-14.429,o),
(750,-14.429,c),
(755.962,-14.429,o),
(761.924,-11.284,o),
(764.145,-4.992,c),
(964.145,561.674,o),
(1164.145,1128.341,o),
(1364.145,1695.008,c),
(1367.473,1704.438,o),
(1362.065,1711.649,o),
(1354.992,1714.145,c),
(1347.92,1716.641,o),
(1339.183,1714.422,o),
(1335.855,1704.992,c),
(1135.855,1138.326,o),
(935.855,571.659,o),
(735.855,4.992,c),
(733.635,-1.299,o),
(741.817,-4.445,o),
(750,-4.445,c),
(758.183,-4.445,o),
(766.365,-1.299,o),
(764.145,4.992,c),
(564.145,571.659,o),
(364.145,1138.326,o),
(164.145,1704.992,c),
(160.817,1714.422,o),
(152.08,1716.641,o),
(145.008,1714.145,c),
(137.935,1711.649,o)
);
}
);
width = 1500;
}
);
unicode = 86;
}
{
glyphname = W;
layers = (
{
layerId = m01;
shapes = (
{
closed = 0;
nodes = (
(170,1700,l),
(645,0,l,{
co.uk.corvelsoftware.Dotter = {
forced = 1;
};
}),
(1120,1700,l,{
co.uk.corvelsoftware.Dotter = {
forced = 1;
};
}),
(1595,0,l,{
co.uk.corvelsoftware.Dotter = {
forced = 1;
};
}),
(2070,1700,l)
);
}
);
width = 2240;
},
{
layerId = "75405DBD-BDE7-4DB9-970A-41B7BDE3CB72";
shapes = (
{
pos = (170,1700);
ref = _dot;
},
{
pos = (645,0);
ref = _dot;
},
{
pos = (1120,1700);
ref = _dot;
},
{
pos = (1595,0);
ref = _dot;
},
{
pos = (2070,1700);
ref = _dot;
},
{
pos = (189.95,1628.6);
ref = _dot;
},
{
pos = (209.9,1557.2);
ref = _dot;
},
{
pos = (229.85,1485.8);
ref = _dot;
},
{
pos = (249.8,1414.4);
ref = _dot;
},
{
pos = (269.75,1343);
ref = _dot;
},
{
pos = (289.7,1271.6);
ref = _dot;
},
{
pos = (309.65,1200.2);
ref = _dot;
},
{
pos = (329.6,1128.8);
ref = _dot;
},
{
pos = (349.55,1057.4);
ref = _dot;
},
{
pos = (369.5,986);
ref = _dot;
},
{
pos = (389.45,914.6);
ref = _dot;
},
{
pos = (409.4,843.2);
ref = _dot;
},
{
pos = (429.35,771.8);
ref = _dot;
},
{
pos = (449.3,700.4);
ref = _dot;
},
{
pos = (469.25,629);
ref = _dot;
},
{
pos = (489.2,557.6);
ref = _dot;
},
{
pos = (509.15,486.2);
ref = _dot;
},
{
pos = (529.1,414.8);
ref = _dot;
},
{
pos = (549.05,343.4);
ref = _dot;
},
{
pos = (569,272);
ref = _dot;
},
{
pos = (588.95,200.6);
ref = _dot;
},
{
pos = (608.9,129.2);
ref = _dot;
},
{
pos = (628.85,57.8);
ref = _dot;
},
{
pos = (684.9,142.8);
ref = _dot;
},
{
pos = (704.85,214.2);
ref = _dot;
},
{
pos = (724.8,285.6);
ref = _dot;
},
{
pos = (744.75,357);
ref = _dot;
},
{
pos = (764.7,428.4);
ref = _dot;
},
{
pos = (784.65,499.8);
ref = _dot;
},
{
pos = (804.6,571.2);
ref = _dot;
},
{
pos = (824.55,642.6);
ref = _dot;
},
{
pos = (844.5,714);
ref = _dot;
},
{
pos = (864.45,785.4);
ref = _dot;
},
{
pos = (884.4,856.8);
ref = _dot;
},
{
pos = (904.35,928.2);
ref = _dot;
},
{
pos = (924.3,999.6);
ref = _dot;
},
{
pos = (944.25,1071);
ref = _dot;
},
{
pos = (964.2,1142.4);
ref = _dot;
},
{
pos = (984.15,1213.8);
ref = _dot;
},
{
pos = (1004.1,1285.2);
ref = _dot;
},
{
pos = (1024.05,1356.6);
ref = _dot;
},
{
pos = (1044,1428);
ref = _dot;
},
{
pos = (1063.95,1499.4);
ref = _dot;
},
{
pos = (1083.9,1570.8);
ref = _dot;
},
{
pos = (1103.85,1642.2);
ref = _dot;
},
{
pos = (1159.9,1557.2);
ref = _dot;
},
{
pos = (1179.85,1485.8);
ref = _dot;
},
{
pos = (1199.8,1414.4);
ref = _dot;
},
{
pos = (1219.75,1343);
ref = _dot;
},
{
pos = (1239.7,1271.6);
ref = _dot;
},
{
pos = (1259.65,1200.2);
ref = _dot;
},
{
pos = (1279.6,1128.8);
ref = _dot;
},
{
pos = (1299.55,1057.4);
ref = _dot;
},
{
pos = (1319.5,986);
ref = _dot;
},
{
pos = (1339.45,914.6);
ref = _dot;
},
{
pos = (1359.4,843.2);
ref = _dot;
},
{
pos = (1379.35,771.8);
ref = _dot;
},
{
pos = (1399.3,700.4);
ref = _dot;
},
{
pos = (1419.25,629);
ref = _dot;
},
{
pos = (1439.2,557.6);
ref = _dot;
},
{
pos = (1459.15,486.2);
ref = _dot;
},
{
pos = (1479.1,414.8);
ref = _dot;
},
{
pos = (1499.05,343.4);
ref = _dot;
},
{
pos = (1519,272);
ref = _dot;
},
{
pos = (1538.95,200.6);
ref = _dot;
},
{
pos = (1558.9,129.2);
ref = _dot;
},
{
pos = (1578.85,57.8);
ref = _dot;
},
{
pos = (1634.9,142.8);
ref = _dot;
},
{
pos = (1654.85,214.2);
ref = _dot;
},
{
pos = (1674.8,285.6);
ref = _dot;
},
{
pos = (1694.75,357);
ref = _dot;
},
{
pos = (1714.7,428.4);
ref = _dot;
},
{
pos = (1734.65,499.8);
ref = _dot;
},
{
pos = (1754.6,571.2);
ref = _dot;
},
{
pos = (1774.55,642.6);
ref = _dot;
},
{
pos = (1794.5,714);
ref = _dot;
},
{
pos = (1814.45,785.4);
ref = _dot;
},
{
pos = (1834.4,856.8);
ref = _dot;
},
{
pos = (1854.35,928.2);
ref = _dot;
},
{
pos = (1874.3,999.6);
ref = _dot;
},
{
pos = (1894.25,1071);
ref = _dot;
},
{
pos = (1914.2,1142.4);
ref = _dot;
},
{
pos = (1934.15,1213.8);
ref = _dot;
},
{
pos = (1954.1,1285.2);
ref = _dot;
},
{
pos = (1974.05,1356.6);
ref = _dot;
},
{
pos = (1994,1428);
ref = _dot;
},
{
pos = (2013.95,1499.4);
ref = _dot;
},
{
pos = (2033.9,1570.8);
ref = _dot;
},
{
pos = (2053.85,1642.2);
ref = _dot;
}
);
width = 2240;
}
);
unicode = 87;
}
{
glyphname = X;
layers = (
{
layerId = m01;
shapes = (
{
closed = 0;
nodes = (
(180,1700,l),
(1315,0,l)
);
},
{
closed = 0;
nodes = (
(1285,1700,l),
(150,0,l)
);
}
);
width = 1465;
},
{
layerId = "75405DBD-BDE7-4DB9-970A-41B7BDE3CB72";
shapes = (
{
pos = (180,1700);
ref = _dot;
},
{
pos = (1315,0);
ref = _dot;
},
{
pos = (1285,1700);
ref = _dot;
},
{
pos = (150,0);
ref = _dot;
},
{
pos = (243.056,1605.556);
ref = _dot;
},
{
pos = (306.111,1511.111);
ref = _dot;
},
{
pos = (369.167,1416.667);
ref = _dot;
},
{
pos = (432.222,1322.222);
ref = _dot;
},
{
pos = (495.278,1227.778);
ref = _dot;
},
{
pos = (558.333,1133.333);
ref = _dot;
},
{
pos = (621.389,1038.889);
ref = _dot;
},
{
pos = (684.444,944.444);
ref = _dot;
},
{
pos = (747.5,850);
ref = _dot;
},
{
pos = (810.556,755.556);
ref = _dot;
},
{
pos = (873.611,661.111);
ref = _dot;
},
{
pos = (936.667,566.667);
ref = _dot;
},
{
pos = (999.722,472.222);
ref = _dot;
},
{
pos = (1062.778,377.778);
ref = _dot;
},
{
pos = (1125.833,283.333);
ref = _dot;
},
{
pos = (1188.889,188.889);
ref = _dot;
},
{
pos = (1251.944,94.444);
ref = _dot;
},
{
pos = (1221.944,1605.556);
ref = _dot;
},
{
pos = (1158.889,1511.111);
ref = _dot;
},
{
pos = (1095.833,1416.667);
ref = _dot;
},
{
pos = (1032.778,1322.222);
ref = _dot;
},
{
pos = (969.722,1227.778);
ref = _dot;
},
{
pos = (906.667,1133.333);
ref = _dot;
},
{
pos = (843.611,1038.889);
ref = _dot;
},
{
pos = (780.556,944.444);
ref = _dot;
},
{
pos = (654.444,755.556);
ref = _dot;
},
{
pos = (591.389,661.111);
ref = _dot;
},
{
pos = (528.333,566.667);
ref = _dot;
},
{
pos = (465.278,472.222);
ref = _dot;
},
{
pos = (402.222,377.778);
ref = _dot;
},
{
pos = (339.167,283.333);
ref = _dot;
},
{
pos = (276.111,188.889);
ref = _dot;
},
{
pos = (213.056,94.444);
ref = _dot;
},
{
closed = 1;
nodes = (
(0,0,l),
(1465,0,l),
(1465,15,l),
(0,15,l)
);
},
{
closed = 1;
nodes = (
(0,680,l),
(1465,680,l),
(1465,695,l),
(0,695,l)
);
},
{
closed = 1;
nodes = (
(0,962,l),
(1465,962,l),
(1465,977,l),
(0,977,l)
);
},
{
closed = 1;
nodes = (
(0,1483,l),
(1465,1483,l),
(1465,1498,l),
(0,1498,l)
);
},
{
closed = 1;
nodes = (
(0,-493,l),
(1465,-493,l),
(1465,-478,l),
(0,-478,l)
);
},
{
closed = 1;
nodes = (
(0,-1130,l),
(1465,-1130,l),
(1465,-1115,l),
(0,-1115,l)
);
}
);
width = 1465;
}
);
unicode = 88;
}
{
glyphname = Y;
layers = (
{
layerId = m01;
shapes = (
{
closed = 0;
nodes = (
(150,1700,l),
(740,800,l),
(1330,1700,l)
);
},
{
closed = 0;
nodes = (
(740,0,l),
(740,100,o),
(740,700,o),
(740,800,cs,{
co.uk.corvelsoftware.Dotter = {
locally_forced = 1;
};
})
);
}
);
width = 1480;
},
{
layerId = "75405DBD-BDE7-4DB9-970A-41B7BDE3CB72";
shapes = (
{
pos = (150,1700);
ref = _dot;
},
{
pos = (1330,1700);
ref = _dot;
},
{
pos = (740,0);
ref = _dot;
},
{
pos = (740,800);
ref = _dot;
},
{
pos = (212.105,1605.263);
ref = _dot;
},
{
pos = (274.211,1510.526);
ref = _dot;
},
{
pos = (336.316,1415.789);
ref = _dot;
},
{
pos = (398.421,1321.053);
ref = _dot;
},
{
pos = (460.526,1226.316);
ref = _dot;
},
{
pos = (522.632,1131.579);
ref = _dot;
},
{
pos = (584.737,1036.842);
ref = _dot;
},
{
pos = (646.842,942.105);
ref = _dot;
},
{
pos = (833.158,942.105);
ref = _dot;
},
{
pos = (895.263,1036.842);
ref = _dot;
},
{
pos = (957.368,1131.579);
ref = _dot;
},
{
pos = (1019.474,1226.316);
ref = _dot;
},
{
pos = (1081.579,1321.053);
ref = _dot;
},
{
pos = (1143.684,1415.789);
ref = _dot;
},
{
pos = (1205.789,1510.526);
ref = _dot;
},
{
pos = (1267.895,1605.263);
ref = _dot;
},
{
pos = (740,114.286);
ref = _dot;
},
{
pos = (740,228.571);
ref = _dot;
},
{
pos = (740,342.857);
ref = _dot;
},
{
pos = (740,457.143);
ref = _dot;
},
{
pos = (740,571.429);
ref = _dot;
},
{
pos = (740,685.714);
ref = _dot;
},
{
closed = 1;
nodes = (
(0,0,l),
(1480,0,l),
(1480,15,l),
(0,15,l)
);
},
{
closed = 1;
nodes = (
(0,680,l),
(1480,680,l),
(1480,695,l),
(0,695,l)
);
},
{
closed = 1;
nodes = (
(0,962,l),
(1480,962,l),
(1480,977,l),
(0,977,l)
);
},
{
closed = 1;
nodes = (
(0,1483,l),
(1480,1483,l),
(1480,1498,l),
(0,1498,l)
);
},
{
closed = 1;
nodes = (
(0,-493,l),
(1480,-493,l),
(1480,-478,l),
(0,-478,l)
);
},
{
closed = 1;
nodes = (
(0,-1130,l),
(1480,-1130,l),
(1480,-1115,l),
(0,-1115,l)
);
}
);
width = 1480;
}
);
unicode = 89;
}
{
glyphname = Z;
layers = (
{
layerId = m01;
shapes = (
{
closed = 0;
nodes = (
(200,1700,l),
(1275,1700,l),
(170,0,l),
(1305,0,l)
);
}
);
width = 1475;
},
{
layerId = "75405DBD-BDE7-4DB9-970A-41B7BDE3CB72";
shapes = (
{
pos = (200,1700);
ref = _dot;
},
{
pos = (1305,0);
ref = _dot;
},
{
pos = (275.25,1700);
ref = _dot;
},
{
pos = (350.5,1700);
ref = _dot;
},
{
pos = (425.75,1700);
ref = _dot;
},
{
pos = (501,1700);
ref = _dot;
},
{
pos = (576.25,1700);
ref = _dot;
},
{
pos = (651.5,1700);
ref = _dot;
},
{
pos = (726.75,1700);
ref = _dot;
},
{
pos = (802,1700);
ref = _dot;
},
{
pos = (877.25,1700);
ref = _dot;
},
{
pos = (952.5,1700);
ref = _dot;
},
{
pos = (1027.75,1700);
ref = _dot;
},
{
pos = (1103,1700);
ref = _dot;
},
{
pos = (1178.25,1700);
ref = _dot;
},
{
pos = (1253.5,1700);
ref = _dot;
},
{
pos = (1204.28,1591.2);
ref = _dot;
},
{
pos = (1163.395,1528.3);
ref = _dot;
},
{
pos = (1122.51,1465.4);
ref = _dot;
},
{
pos = (1081.625,1402.5);
ref = _dot;
},
{
pos = (1040.74,1339.6);
ref = _dot;
},
{
pos = (999.855,1276.7);
ref = _dot;
},
{
pos = (958.97,1213.8);
ref = _dot;
},
{
pos = (918.085,1150.9);
ref = _dot;
},
{
pos = (877.2,1088);
ref = _dot;
},
{
pos = (836.315,1025.1);
ref = _dot;
},
{
pos = (795.43,962.2);
ref = _dot;
},
{
pos = (754.545,899.3);
ref = _dot;
},
{
pos = (713.66,836.4);
ref = _dot;
},
{
pos = (672.775,773.5);
ref = _dot;
},
{
pos = (631.89,710.6);
ref = _dot;
},
{
pos = (591.005,647.7);
ref = _dot;
},
{
pos = (550.12,584.8);
ref = _dot;
},
{
pos = (509.235,521.9);
ref = _dot;
},
{
pos = (468.35,459);
ref = _dot;
},
{
pos = (427.465,396.1);
ref = _dot;
},
{
pos = (386.58,333.2);
ref = _dot;
},
{
pos = (345.695,270.3);
ref = _dot;
},
{
pos = (304.81,207.4);
ref = _dot;
},
{
pos = (263.925,144.5);
ref = _dot;
},
{
pos = (223.04,81.6);
ref = _dot;
},
{
pos = (182.155,18.7);
ref = _dot;
},
{
pos = (297.12,0);
ref = _dot;
},
{
pos = (372.03,0);
ref = _dot;
},
{
pos = (446.94,0);
ref = _dot;
},
{
pos = (521.85,0);
ref = _dot;
},
{
pos = (596.76,0);
ref = _dot;
},
{
pos = (671.67,0);
ref = _dot;
},
{
pos = (746.58,0);
ref = _dot;
},
{
pos = (821.49,0);
ref = _dot;
},
{
pos = (896.4,0);
ref = _dot;
},
{
pos = (971.31,0);
ref = _dot;
},
{
pos = (1046.22,0);
ref = _dot;
},
{
pos = (1121.13,0);
ref = _dot;
},
{
pos = (1196.04,0);
ref = _dot;
}
);
width = 1475;
}
);
unicode = 90;
}
{
glyphname = b;
layers = (
{
layerId = m01;
shapes = (
{
ref = _c.stemLA;
},
{
ref = _c.bowlR;
}
);
width = 1170;
},
{
layerId = "75405DBD-BDE7-4DB9-970A-41B7BDE3CB72";
shapes = (
{
closed = 1;
nodes = (
(235,1710,o),
(235,1700,c),
(235,1133.333,o),
(235,566.667,o),
(235,0,c),
(235,-10,o),
(242.5,-15,o),
(250,-15,c),
(257.5,-15,o),
(265,-10,o),
(265,0,c),
(265,566.667,o),
(265,1133.333,o),
(265,1700,c),
(265,1710,o),
(257.5,1715,o),
(250,1715,c),
(242.5,1715,o)
);
},
{
closed = 1;
nodes = (
(263.91,488.532,o),
(264.923,498.481,c),
(284.828,693.978,o),
(417.27,985,o),
(650,985,c),
(911.952,985,o),
(975,712.727,o),
(975,500,c),
(975,273.142,o),
(860.987,15,o),
(600,15,c),
(361.643,15,o),
(283.216,308.046,o),
(264.93,496.449,c),
(263.964,506.402,o),
(256.016,510.654,o),
(248.551,509.93,c),
(241.086,509.205,o),
(234.104,503.504,o),
(235.07,493.551,c),
(255.065,287.544,o),
(343.148,-15,o),
(600,-15,c),
(878.427,-15,o),
(1005,255.923,o),
(1005,500,c),
(1005,730.804,o),
(930.793,1015,o),
(650,1015,c),
(400.25,1015,o),
(256.663,713.524,o),
(235.077,501.519,c),
(234.064,491.571,o),
(241.019,485.837,o),
(248.481,485.077,c),
(255.942,484.317,o)
);
}
);
width = 1170;
}
);
unicode = 98;
}
{
glyphname = c;
layers = (
{
layerId = m01;
shapes = (
{
closed = 0;
nodes = (
(910,820,l),
(830,930,o),
(730,1000,o),
(560,1000,cs),
(370,1000,o),
(180,830,o),
(180,500,cs),
(180,170,o),
(370,0,o),
(560,0,cs),
(730,0,o),
(820,80,o),
(920,200,c)
);
}
);
width = 1090;
},
{
layerId = "75405DBD-BDE7-4DB9-970A-41B7BDE3CB72";
shapes = (
{
pos = (910,820);
ref = _dot;
},
{
pos = (920,200);
ref = _dot;
},
{
pos = (852.04,888.176);
ref = _dot;
},
{
pos = (781.891,943.577);
ref = _dot;
},
{
pos = (700.47,980.379);
ref = _dot;
},
{
pos = (612.717,997.583);
ref = _dot;
},
{
pos = (523.291,997.869);
ref = _dot;
},
{
pos = (436.834,975.507);
ref = _dot;
},
{
pos = (359.306,931.121);
ref = _dot;
},
{
pos = (294.9,869.149);
ref = _dot;
},
{
pos = (245.483,794.615);
ref = _dot;
},
{
pos = (210.943,712.081);
ref = _dot;
},
{
pos = (189.967,625.071);
ref = _dot;
},
{
pos = (180.784,536.015);
ref = _dot;
},
{
pos = (181.741,446.482);
ref = _dot;
},
{
pos = (193.086,357.681);
ref = _dot;
},
{
pos = (216.586,271.325);
ref = _dot;
},
{
pos = (253.962,190.045);
ref = _dot;
},
{
pos = (306.353,117.584);
ref = _dot;
},
{
pos = (373.539,58.652);
ref = _dot;
},
{
pos = (453.219,18.269);
ref = _dot;
},
{
pos = (540.75,0.594);
ref = _dot;
},
{
pos = (630.07,5.064);
ref = _dot;
},
{
pos = (716.155,29.013);
ref = _dot;
},
{
pos = (793.578,73.643);
ref = _dot;
},
{
pos = (860.459,133.099);
ref = _dot;
}
);
width = 1090;
}
);
unicode = 99;
}
{
glyphname = e;
layers = (
{
background = {
shapes = (
{
closed = 0;
nodes = (
(920,180,l),
(823,67,o),
(720,0,o),
(560,0,cs),
(370,0,o),
(180,170,o),
(180,500,cs),
(180,830,o),
(370,1010,o),
(560,1010,cs),
(740,1010,o),
(900,890,o),
(900,630,c)
);
},
{
closed = 0;
nodes = (
(850,550,l),
(750,550,o),
(300,550,o),
(200,550,cs)
);
}
);
};
layerId = m01;
shapes = (
{
closed = 0;
nodes = (
(920,200,l),
(820,80,o),
(730,0,o),
(560,0,cs),
(370,0,o),
(180,170,o),
(180,500,cs),
(180,830,o),
(370,1010,o),
(560,1010,cs),
(780,1010,o),
(910,870,o),
(910,550,c)
);
},
{
closed = 0;
nodes = (
(905,550,l),
(805,550,o),
(280,550,o),
(180,550,cs,{
co.uk.corvelsoftware.Dotter = {
locally_forced = 1;
};
})
);
}
);
width = 1110;
},
{
layerId = "75405DBD-BDE7-4DB9-970A-41B7BDE3CB72";
shapes = (
{
pos = (920,200);
ref = _dot;
},
{
pos = (910,550);
ref = _dot;
},
{
pos = (180,550);
ref = _dot;
},
{
pos = (860.8,133.45);
ref = _dot;
},
{
pos = (794.366,74.23);
ref = _dot;
},
{
pos = (717.513,29.589);
ref = _dot;
},
{
pos = (632.016,5.364);
ref = _dot;
},
{
pos = (543.206,0.445);
ref = _dot;
},
{
pos = (456.014,17.316);
ref = _dot;
},
{
pos = (376.403,56.734);
ref = _dot;
},
{
pos = (309.006,114.674);
ref = _dot;
},
{
pos = (256.192,186.217);
ref = _dot;
},
{
pos = (218.259,266.695);
ref = _dot;
},
{
pos = (194.138,352.369);
ref = _dot;
},
{
pos = (182.146,440.589);
ref = _dot;
},
{
pos = (188.796,618.275);
ref = _dot;
},
{
pos = (208.329,705.125);
ref = _dot;
},
{
pos = (240.676,788.029);
ref = _dot;
},
{
pos = (287.064,863.932);
ref = _dot;
},
{
pos = (347.924,928.748);
ref = _dot;
},
{
pos = (422.181,977.547);
ref = _dot;
},
{
pos = (506.557,1005.237);
ref = _dot;
},
{
pos = (595.334,1008.722);
ref = _dot;
},
{
pos = (682.681,992.294);
ref = _dot;
},
{
pos = (762.099,952.722);
ref = _dot;
},
{
pos = (825.021,890.182);
ref = _dot;
},
{
pos = (867.805,812.299);
ref = _dot;
},
{
pos = (893.397,727.074);
ref = _dot;
},
{
pos = (906.282,638.966);
ref = _dot;
},
{
pos = (814.375,550);
ref = _dot;
},
{
pos = (723.75,550);
ref = _dot;
},
{
pos = (633.125,550);
ref = _dot;
},
{
pos = (542.5,550);
ref = _dot;
},
{
pos = (451.875,550);
ref = _dot;
},
{
pos = (361.25,550);
ref = _dot;
},
{
pos = (270.625,550);
ref = _dot;
}
);
width = 1110;
}
);
unicode = 101;
}
{
glyphname = f;
layers = (
{
layerId = m01;
shapes = (
{
closed = 0;
nodes = (
(330,0,l),
(330,100,o),
(330,1200,o),
(330,1300,cs),
(330,1630,o),
(485,1700,o),
(610,1700,cs),
(725,1700,o),
(800,1640,o),
(870,1500,c)
);
},
{
closed = 0;
nodes = (
(80,1000,l),
(180,1000,o),
(580,1000,o),
(680,1000,c)
);
}
);
width = 750;
},
{
layerId = "75405DBD-BDE7-4DB9-970A-41B7BDE3CB72";
shapes = (
{
closed = 1;
nodes = (
(345,-10,o),
(345,0,c),
(345,433.333,o),
(345,866.667,o),
(345,1300,c),
(345,1477.386,o),
(396.455,1685,o),
(610,1685,c),
(736.17,1685,o),
(804.282,1597.894,o),
(856.584,1493.292,c),
(861.056,1484.348,o),
(870,1483.229,o),
(876.708,1486.584,c),
(883.416,1489.938,o),
(887.889,1497.764,o),
(883.416,1506.708,c),
(825.798,1621.945,o),
(748.353,1715,o),
(610,1715,c),
(378.023,1715,o),
(315,1495.265,o),
(315,1300,c),
(315,866.667,o),
(315,433.333,o),
(315,0,c),
(315,-10,o),
(322.5,-15,o),
(330,-15,c),
(337.5,-15,o)
);
},
{
closed = 1;
nodes = (
(70,985,o),
(80,985,c),
(280,985,o),
(480,985,o),
(680,985,c),
(690,985,o),
(695,992.5,o),
(695,1000,c),
(695,1007.5,o),
(690,1015,o),
(680,1015,c),
(480,1015,o),
(280,1015,o),
(80,1015,c),
(70,1015,o),
(65,1007.5,o),
(65,1000,c),
(65,992.5,o)
);
}
);
width = 750;
},
{
associatedMasterId = m01;
layerId = "1578D373-4F81-456C-820F-BF2295BB76E8";
name = "Pendot Quick Preview";
shapes = (
{
closed = 1;
nodes = (
(357.5,7.293,o),
(354.603,14.288,o),
(349.445,19.445,c),
(344.288,24.603,o),
(337.293,27.5,o),
(330,27.5,c),
(322.707,27.5,o),
(315.712,24.603,o),
(310.555,19.445,c),
(305.397,14.288,o),
(302.5,7.293,o),
(302.5,0,c),
(302.5,-7.293,o),
(305.397,-14.288,o),
(310.555,-19.445,c),
(315.712,-24.603,o),
(322.707,-27.5,o),
(330,-27.5,c),
(337.293,-27.5,o),
(344.288,-24.603,o),
(349.445,-19.445,c),
(354.603,-14.288,o),
(357.5,-7.293,o),
(357.5,0,c)
);
},
{
closed = 1;
nodes = (
(897.5,1507.293,o),
(894.603,1514.288,o),
(889.445,1519.445,c),
(884.288,1524.603,o),
(877.293,1527.5,o),
(870,1527.5,c),
(862.707,1527.5,o),
(855.712,1524.603,o),
(850.555,1519.445,c),
(845.397,1514.288,o),
(842.5,1507.293,o),
(842.5,1500,c),
(842.5,1492.707,o),
(845.397,1485.712,o),
(850.555,1480.555,c),
(855.712,1475.397,o),
(862.707,1472.5,o),
(870,1472.5,c),
(877.293,1472.5,o),
(884.288,1475.397,o),
(889.445,1480.555,c),
(894.603,1485.712,o),
(897.5,1492.707,o),
(897.5,1500,c)
);
},
{
closed = 1;
nodes = (
(107.5,1007.293,o),
(104.603,1014.288,o),
(99.445,1019.445,c),
(94.288,1024.603,o),
(87.293,1027.5,o),
(80,1027.5,c),
(72.707,1027.5,o),
(65.712,1024.603,o),
(60.555,1019.445,c),
(55.397,1014.288,o),
(52.5,1007.293,o),
(52.5,1000,c),
(52.5,992.707,o),
(55.397,985.712,o),
(60.555,980.555,c),
(65.712,975.397,o),
(72.707,972.5,o),
(80,972.5,c),
(87.293,972.5,o),
(94.288,975.397,o),
(99.445,980.555,c),
(104.603,985.712,o),
(107.5,992.707,o),
(107.5,1000,c)
);
},
{
closed = 1;
nodes = (
(707.5,1007.293,o),
(704.603,1014.288,o),
(699.445,1019.445,c),
(694.288,1024.603,o),
(687.293,1027.5,o),
(680,1027.5,c),
(672.707,1027.5,o),
(665.712,1024.603,o),
(660.555,1019.445,c),
(655.397,1014.288,o),
(652.5,1007.293,o),
(652.5,1000,c),
(652.5,992.707,o),
(655.397,985.712,o),
(660.555,980.555,c),
(665.712,975.397,o),
(672.707,972.5,o),
(680,972.5,c),
(687.293,972.5,o),
(694.288,975.397,o),
(699.445,980.555,c),
(704.603,985.712,o),
(707.5,992.707,o),
(707.5,1000,c)
);
},
{
closed = 1;
nodes = (
(357.5,83.2,o),
(354.603,90.195,o),
(349.445,95.352,c),
(344.288,100.51,o),
(337.293,103.407,o),
(330,103.407,c),
(322.707,103.407,o),
(315.712,100.51,o),
(310.555,95.352,c),
(305.397,90.195,o),
(302.5,83.2,o),
(302.5,75.907,c),
(302.5,68.613,o),
(305.397,61.619,o),
(310.555,56.462,c),
(315.712,51.304,o),
(322.707,48.407,o),
(330,48.407,c),
(337.293,48.407,o),
(344.288,51.304,o),
(349.445,56.462,c),
(354.603,61.619,o),
(357.5,68.613,o),
(357.5,75.907,c)
);
},
{
closed = 1;
nodes = (
(357.5,159.107,o),
(354.603,166.102,o),
(349.445,171.259,c),
(344.288,176.416,o),
(337.293,179.314,o),
(330,179.314,c),
(322.707,179.314,o),
(315.712,176.416,o),
(310.555,171.259,c),
(305.397,166.102,o),
(302.5,159.107,o),
(302.5,151.814,c),
(302.5,144.52,o),
(305.397,137.526,o),
(310.555,132.368,c),
(315.712,127.211,o),
(322.707,124.314,o),
(330,124.314,c),
(337.293,124.314,o),
(344.288,127.211,o),
(349.445,132.368,c),
(354.603,137.526,o),
(357.5,144.52,o),
(357.5,151.814,c)
);
},
{
closed = 1;
nodes = (
(357.5,235.014,o),
(354.603,242.009,o),
(349.445,247.166,c),
(344.288,252.323,o),
(337.293,255.221,o),
(330,255.221,c),
(322.707,255.221,o),
(315.712,252.323,o),
(310.555,247.166,c),
(305.397,242.009,o),
(302.5,235.014,o),
(302.5,227.721,c),
(302.5,220.427,o),
(305.397,213.432,o),
(310.555,208.275,c),
(315.712,203.118,o),
(322.707,200.221,o),
(330,200.221,c),
(337.293,200.221,o),
(344.288,203.118,o),
(349.445,208.275,c),
(354.603,213.432,o),
(357.5,220.427,o),
(357.5,227.721,c)
);
},
{
closed = 1;
nodes = (
(357.5,310.921,o),
(354.603,317.916,o),
(349.445,323.073,c),
(344.288,328.23,o),
(337.293,331.127,o),
(330,331.127,c),
(322.707,331.127,o),
(315.712,328.23,o),
(310.555,323.073,c),
(305.397,317.916,o),
(302.5,310.921,o),
(302.5,303.627,c),
(302.5,296.334,o),
(305.397,289.339,o),
(310.555,284.182,c),
(315.712,279.025,o),
(322.707,276.127,o),
(330,276.127,c),
(337.293,276.127,o),
(344.288,279.025,o),
(349.445,284.182,c),
(354.603,289.339,o),
(357.5,296.334,o),
(357.5,303.627,c)
);
},
{
closed = 1;
nodes = (
(357.5,386.828,o),
(354.603,393.822,o),
(349.445,398.98,c),
(344.288,404.137,o),
(337.293,407.034,o),
(330,407.034,c),
(322.707,407.034,o),
(315.712,404.137,o),
(310.555,398.98,c),
(305.397,393.822,o),
(302.5,386.828,o),
(302.5,379.534,c),
(302.5,372.241,o),
(305.397,365.246,o),
(310.555,360.089,c),
(315.712,354.932,o),
(322.707,352.034,o),
(330,352.034,c),
(337.293,352.034,o),
(344.288,354.932,o),
(349.445,360.089,c),
(354.603,365.246,o),
(357.5,372.241,o),
(357.5,379.534,c)
);
},
{
closed = 1;
nodes = (
(357.5,462.735,o),
(354.603,469.729,o),
(349.445,474.886,c),
(344.288,480.044,o),
(337.293,482.941,o),
(330,482.941,c),
(322.707,482.941,o),
(315.712,480.044,o),
(310.555,474.886,c),
(305.397,469.729,o),
(302.5,462.735,o),
(302.5,455.441,c),
(302.5,448.148,o),
(305.397,441.153,o),
(310.555,435.996,c),
(315.712,430.838,o),
(322.707,427.941,o),
(330,427.941,c),
(337.293,427.941,o),
(344.288,430.838,o),
(349.445,435.996,c),
(354.603,441.153,o),
(357.5,448.148,o),
(357.5,455.441,c)
);
},
{
closed = 1;
nodes = (
(357.5,538.641,o),
(354.603,545.636,o),
(349.445,550.793,c),
(344.288,555.951,o),
(337.293,558.848,o),
(330,558.848,c),
(322.707,558.848,o),
(315.712,555.951,o),
(310.555,550.793,c),
(305.397,545.636,o),
(302.5,538.641,o),
(302.5,531.348,c),
(302.5,524.055,o),
(305.397,517.06,o),
(310.555,511.903,c),
(315.712,506.745,o),
(322.707,503.848,o),
(330,503.848,c),
(337.293,503.848,o),
(344.288,506.745,o),
(349.445,511.903,c),
(354.603,517.06,o),
(357.5,524.055,o),
(357.5,531.348,c)
);
},
{
closed = 1;
nodes = (
(357.5,614.548,o),
(354.603,621.543,o),
(349.445,626.7,c),
(344.288,631.858,o),
(337.293,634.755,o),
(330,634.755,c),
(322.707,634.755,o),
(315.712,631.858,o),
(310.555,626.7,c),
(305.397,621.543,o),
(302.5,614.548,o),
(302.5,607.255,c),
(302.5,599.961,o),
(305.397,592.967,o),
(310.555,587.81,c),
(315.712,582.652,o),
(322.707,579.755,o),
(330,579.755,c),
(337.293,579.755,o),
(344.288,582.652,o),
(349.445,587.81,c),
(354.603,592.967,o),
(357.5,599.961,o),
(357.5,607.255,c)
);
},
{
closed = 1;
nodes = (
(357.5,690.455,o),
(354.603,697.45,o),
(349.445,702.607,c),
(344.288,707.764,o),
(337.293,710.662,o),
(330,710.662,c),
(322.707,710.662,o),
(315.712,707.764,o),
(310.555,702.607,c),
(305.397,697.45,o),
(302.5,690.455,o),
(302.5,683.162,c),
(302.5,675.868,o),
(305.397,668.874,o),
(310.555,663.716,c),
(315.712,658.559,o),
(322.707,655.662,o),
(330,655.662,c),
(337.293,655.662,o),
(344.288,658.559,o),
(349.445,663.716,c),
(354.603,668.874,o),
(357.5,675.868,o),
(357.5,683.162,c)
);
},
{
closed = 1;
nodes = (
(357.5,766.362,o),
(354.603,773.357,o),
(349.445,778.514,c),
(344.288,783.671,o),
(337.293,786.569,o),
(330,786.569,c),
(322.707,786.569,o),
(315.712,783.671,o),
(310.555,778.514,c),
(305.397,773.357,o),
(302.5,766.362,o),
(302.5,759.069,c),
(302.5,751.775,o),
(305.397,744.78,o),
(310.555,739.623,c),
(315.712,734.466,o),
(322.707,731.569,o),
(330,731.569,c),
(337.293,731.569,o),
(344.288,734.466,o),
(349.445,739.623,c),
(354.603,744.78,o),
(357.5,751.775,o),
(357.5,759.069,c)
);
},
{
closed = 1;
nodes = (
(357.5,842.269,o),
(354.603,849.264,o),
(349.445,854.421,c),
(344.288,859.578,o),
(337.293,862.475,o),
(330,862.475,c),
(322.707,862.475,o),
(315.712,859.578,o),
(310.555,854.421,c),
(305.397,849.264,o),
(302.5,842.269,o),
(302.5,834.975,c),
(302.5,827.682,o),
(305.397,820.687,o),
(310.555,815.53,c),
(315.712,810.373,o),
(322.707,807.475,o),
(330,807.475,c),
(337.293,807.475,o),
(344.288,810.373,o),
(349.445,815.53,c),
(354.603,820.687,o),
(357.5,827.682,o),
(357.5,834.975,c)
);
},
{
closed = 1;
nodes = (
(357.5,918.176,o),
(354.603,925.17,o),
(349.445,930.328,c),
(344.288,935.485,o),
(337.293,938.382,o),
(330,938.382,c),
(322.707,938.382,o),
(315.712,935.485,o),
(310.555,930.328,c),
(305.397,925.17,o),
(302.5,918.176,o),
(302.5,910.882,c),
(302.5,903.589,o),
(305.397,896.594,o),
(310.555,891.437,c),
(315.712,886.28,o),
(322.707,883.382,o),
(330,883.382,c),
(337.293,883.382,o),
(344.288,886.28,o),
(349.445,891.437,c),
(354.603,896.594,o),
(357.5,903.589,o),
(357.5,910.882,c)
);
},
{
closed = 1;
nodes = (
(357.5,994.083,o),
(354.603,1001.077,o),
(349.445,1006.234,c),
(344.288,1011.392,o),
(337.293,1014.289,o),
(330,1014.289,c),
(322.707,1014.289,o),
(315.712,1011.392,o),
(310.555,1006.234,c),
(305.397,1001.077,o),
(302.5,994.083,o),
(302.5,986.789,c),
(302.5,979.496,o),
(305.397,972.501,o),
(310.555,967.344,c),
(315.712,962.186,o),
(322.707,959.289,o),
(330,959.289,c),
(337.293,959.289,o),
(344.288,962.186,o),
(349.445,967.344,c),
(354.603,972.501,o),
(357.5,979.496,o),
(357.5,986.789,c)
);
},
{
closed = 1;
nodes = (
(357.5,1069.989,o),
(354.603,1076.984,o),
(349.445,1082.141,c),
(344.288,1087.299,o),
(337.293,1090.196,o),
(330,1090.196,c),
(322.707,1090.196,o),
(315.712,1087.299,o),
(310.555,1082.141,c),
(305.397,1076.984,o),
(302.5,1069.989,o),
(302.5,1062.696,c),
(302.5,1055.403,o),
(305.397,1048.408,o),
(310.555,1043.251,c),
(315.712,1038.093,o),
(322.707,1035.196,o),
(330,1035.196,c),
(337.293,1035.196,o),
(344.288,1038.093,o),
(349.445,1043.251,c),
(354.603,1048.408,o),
(357.5,1055.403,o),
(357.5,1062.696,c)
);
},
{
closed = 1;
nodes = (
(357.5,1145.896,o),
(354.603,1152.891,o),
(349.445,1158.048,c),
(344.288,1163.206,o),
(337.293,1166.103,o),
(330,1166.103,c),
(322.707,1166.103,o),
(315.712,1163.206,o),
(310.555,1158.048,c),
(305.397,1152.891,o),
(302.5,1145.896,o),
(302.5,1138.603,c),
(302.5,1131.309,o),
(305.397,1124.315,o),
(310.555,1119.158,c),
(315.712,1114,o),
(322.707,1111.103,o),
(330,1111.103,c),
(337.293,1111.103,o),
(344.288,1114,o),
(349.445,1119.158,c),
(354.603,1124.315,o),
(357.5,1131.309,o),
(357.5,1138.603,c)
);
},
{
closed = 1;
nodes = (
(357.5,1221.803,o),
(354.603,1228.798,o),
(349.445,1233.955,c),
(344.288,1239.112,o),
(337.293,1242.01,o),
(330,1242.01,c),
(322.707,1242.01,o),
(315.712,1239.112,o),
(310.555,1233.955,c),
(305.397,1228.798,o),
(302.5,1221.803,o),
(302.5,1214.51,c),
(302.5,1207.216,o),
(305.397,1200.222,o),
(310.555,1195.064,c),
(315.712,1189.907,o),
(322.707,1187.01,o),
(330,1187.01,c),
(337.293,1187.01,o),
(344.288,1189.907,o),
(349.445,1195.064,c),
(354.603,1200.222,o),
(357.5,1207.216,o),
(357.5,1214.51,c)
);
},
{
closed = 1;
nodes = (
(357.5,1297.71,o),
(354.603,1304.705,o),
(349.445,1309.862,c),
(344.288,1315.019,o),
(337.293,1317.917,o),
(330,1317.917,c),
(322.707,1317.917,o),
(315.712,1315.019,o),
(310.555,1309.862,c),
(305.397,1304.705,o),
(302.5,1297.71,o),
(302.5,1290.417,c),
(302.5,1283.123,o),
(305.397,1276.128,o),
(310.555,1270.971,c),
(315.712,1265.814,o),
(322.707,1262.917,o),
(330,1262.917,c),
(337.293,1262.917,o),
(344.288,1265.814,o),
(349.445,1270.971,c),
(354.603,1276.128,o),
(357.5,1283.123,o),
(357.5,1290.417,c)
);
},
{
closed = 1;
nodes = (
(359.77,1373.564,o),
(356.873,1380.559,o),
(351.716,1385.716,c),
(346.559,1390.873,o),
(339.564,1393.77,o),
(332.27,1393.77,c),
(324.977,1393.77,o),
(317.982,1390.873,o),
(312.825,1385.716,c),
(307.668,1380.559,o),
(304.77,1373.564,o),
(304.77,1366.27,c),
(304.77,1358.977,o),
(307.668,1351.982,o),
(312.825,1346.825,c),
(317.982,1341.668,o),
(324.977,1338.77,o),
(332.27,1338.77,c),
(339.564,1338.77,o),
(346.559,1341.668,o),
(351.716,1346.825,c),
(356.873,1351.982,o),
(359.77,1358.977,o),
(359.77,1366.27,c)
);
},
{
closed = 1;
nodes = (
(369.082,1448.859,o),
(366.184,1455.854,o),
(361.027,1461.011,c),
(355.87,1466.168,o),
(348.875,1469.065,o),
(341.582,1469.065,c),
(334.288,1469.065,o),
(327.294,1466.168,o),
(322.136,1461.011,c),
(316.979,1455.854,o),
(314.082,1448.859,o),
(314.082,1441.565,c),
(314.082,1434.272,o),
(316.979,1427.277,o),
(322.136,1422.12,c),
(327.294,1416.963,o),
(334.288,1414.065,o),
(341.582,1414.065,c),
(348.875,1414.065,o),
(355.87,1416.963,o),
(361.027,1422.12,c),
(366.184,1427.277,o),
(369.082,1434.272,o),
(369.082,1441.565,c)
);
},
{
closed = 1;
nodes = (
(388.044,1522.281,o),
(385.146,1529.275,o),
(379.989,1534.432,c),
(374.832,1539.59,o),
(367.837,1542.487,o),
(360.544,1542.487,c),
(353.25,1542.487,o),
(346.255,1539.59,o),
(341.098,1534.432,c),
(335.941,1529.275,o),
(333.044,1522.281,o),
(333.044,1514.987,c),
(333.044,1507.694,o),
(335.941,1500.699,o),
(341.098,1495.542,c),
(346.255,1490.385,o),
(353.25,1487.487,o),
(360.544,1487.487,c),
(367.837,1487.487,o),
(374.832,1490.385,o),
(379.989,1495.542,c),
(385.146,1500.699,o),
(388.044,1507.694,o),
(388.044,1514.987,c)
);
},
{
closed = 1;
nodes = (
(420.197,1590.87,o),
(417.3,1597.865,o),
(412.142,1603.022,c),
(406.985,1608.179,o),
(399.99,1611.076,o),
(392.697,1611.076,c),
(385.403,1611.076,o),
(378.409,1608.179,o),
(373.252,1603.022,c),
(368.094,1597.865,o),
(365.197,1590.87,o),
(365.197,1583.576,c),
(365.197,1576.283,o),
(368.094,1569.288,o),
(373.252,1564.131,c),
(378.409,1558.974,o),
(385.403,1556.076,o),
(392.697,1556.076,c),
(399.99,1556.076,o),
(406.985,1558.974,o),
(412.142,1564.131,c),
(417.3,1569.288,o),
(420.197,1576.283,o),
(420.197,1583.576,c)
);
},
{
closed = 1;
nodes = (
(468.869,1648.745,o),
(465.972,1655.74,o),
(460.814,1660.897,c),
(455.657,1666.054,o),
(448.662,1668.952,o),
(441.369,1668.952,c),
(434.075,1668.952,o),
(427.081,1666.054,o),
(421.924,1660.897,c),
(416.766,1655.74,o),
(413.869,1648.745,o),
(413.869,1641.452,c),
(413.869,1634.158,o),
(416.766,1627.163,o),
(421.924,1622.006,c),
(427.081,1616.849,o),
(434.075,1613.952,o),
(441.369,1613.952,c),
(448.662,1613.952,o),
(455.657,1616.849,o),
(460.814,1622.006,c),
(465.972,1627.163,o),
(468.869,1634.158,o),
(468.869,1641.452,c)
);
},
{
closed = 1;
nodes = (
(533.286,1688.226,o),
(530.389,1695.221,o),
(525.232,1700.378,c),
(520.075,1705.536,o),
(513.08,1708.433,o),
(505.786,1708.433,c),
(498.493,1708.433,o),
(491.498,1705.536,o),
(486.341,1700.378,c),
(481.184,1695.221,o),
(478.286,1688.226,o),
(478.286,1680.933,c),
(478.286,1673.64,o),
(481.184,1666.645,o),
(486.341,1661.488,c),
(491.498,1656.33,o),
(498.493,1653.433,o),
(505.786,1653.433,c),
(513.08,1653.433,o),
(520.075,1656.33,o),
(525.232,1661.488,c),
(530.389,1666.645,o),
(533.286,1673.64,o),
(533.286,1680.933,c)
);
},
{
closed = 1;
nodes = (
(606.872,1705.837,o),
(603.975,1712.832,o),
(598.817,1717.989,c),
(593.66,1723.146,o),
(586.665,1726.044,o),
(579.372,1726.044,c),
(572.079,1726.044,o),
(565.084,1723.146,o),
(559.927,1717.989,c),
(554.769,1712.832,o),
(551.872,1705.837,o),
(551.872,1698.544,c),
(551.872,1691.25,o),
(554.769,1684.255,o),
(559.927,1679.098,c),
(565.084,1673.941,o),
(572.079,1671.044,o),
(579.372,1671.044,c),
(586.665,1671.044,o),
(593.66,1673.941,o),
(598.817,1679.098,c),
(603.975,1684.255,o),
(606.872,1691.25,o),
(606.872,1698.544,c)
);
},
{
closed = 1;
nodes = (
(682.531,1703.871,o),
(679.633,1710.865,o),
(674.476,1716.022,c),
(669.319,1721.18,o),
(662.324,1724.077,o),
(655.031,1724.077,c),
(647.737,1724.077,o),
(640.742,1721.18,o),
(635.585,1716.022,c),
(630.428,1710.865,o),
(627.531,1703.871,o),
(627.531,1696.577,c),
(627.531,1689.284,o),
(630.428,1682.289,o),
(635.585,1677.132,c),
(640.742,1671.975,o),
(647.737,1669.077,o),
(655.031,1669.077,c),
(662.324,1669.077,o),
(669.319,1671.975,o),
(674.476,1677.132,c),
(679.633,1682.289,o),
(682.531,1689.284,o),
(682.531,1696.577,c)
);
},
{
closed = 1;
nodes = (
(754.092,1679.709,o),
(751.195,1686.704,o),
(746.037,1691.861,c),
(740.88,1697.018,o),
(733.886,1699.916,o),
(726.592,1699.916,c),
(719.299,1699.916,o),
(712.304,1697.018,o),
(707.147,1691.861,c),
(701.99,1686.704,o),
(699.092,1679.709,o),
(699.092,1672.416,c),
(699.092,1665.122,o),
(701.99,1658.128,o),
(707.147,1652.97,c),
(712.304,1647.813,o),
(719.299,1644.916,o),
(726.592,1644.916,c),
(733.886,1644.916,o),
(740.88,1647.813,o),
(746.037,1652.97,c),
(751.195,1658.128,o),
(754.092,1665.122,o),
(754.092,1672.416,c)
);
},
{
closed = 1;
nodes = (
(813.721,1633.222,o),
(810.823,1640.217,o),
(805.666,1645.374,c),
(800.509,1650.531,o),
(793.514,1653.429,o),
(786.221,1653.429,c),
(778.927,1653.429,o),
(771.933,1650.531,o),
(766.775,1645.374,c),
(761.618,1640.217,o),
(758.721,1633.222,o),
(758.721,1625.929,c),
(758.721,1618.635,o),
(761.618,1611.64,o),
(766.775,1606.483,c),
(771.933,1601.326,o),
(778.927,1598.429,o),
(786.221,1598.429,c),
(793.514,1598.429,o),
(800.509,1601.326,o),
(805.666,1606.483,c),
(810.823,1611.64,o),
(813.721,1618.635,o),
(813.721,1625.929,c)
);
},
{
closed = 1;
nodes = (
(860.217,1573.367,o),
(857.32,1580.362,o),
(852.162,1585.519,c),
(847.005,1590.677,o),
(840.01,1593.574,o),
(832.717,1593.574,c),
(825.423,1593.574,o),
(818.429,1590.677,o),
(813.272,1585.519,c),
(808.114,1580.362,o),
(805.217,1573.367,o),
(805.217,1566.074,c),
(805.217,1558.781,o),
(808.114,1551.786,o),
(813.272,1546.629,c),
(818.429,1541.471,o),
(825.423,1538.574,o),
(832.717,1538.574,c),
(840.01,1538.574,o),
(847.005,1541.471,o),
(852.162,1546.629,c),
(857.32,1551.786,o),
(860.217,1558.781,o),
(860.217,1566.074,c)
);
},
{
closed = 1;
nodes = (
(182.5,1007.293,o),
(179.603,1014.288,o),
(174.445,1019.445,c),
(169.288,1024.603,o),
(162.293,1027.5,o),
(155,1027.5,c),
(147.707,1027.5,o),
(140.712,1024.603,o),
(135.555,1019.445,c),
(130.397,1014.288,o),
(127.5,1007.293,o),
(127.5,1000,c),
(127.5,992.707,o),
(130.397,985.712,o),
(135.555,980.555,c),
(140.712,975.397,o),
(147.707,972.5,o),
(155,972.5,c),
(162.293,972.5,o),
(169.288,975.397,o),
(174.445,980.555,c),
(179.603,985.712,o),
(182.5,992.707,o),
(182.5,1000,c)
);
},
{
closed = 1;
nodes = (
(257.5,1007.293,o),
(254.603,1014.288,o),
(249.445,1019.445,c),
(244.288,1024.603,o),
(237.293,1027.5,o),
(230,1027.5,c),
(222.707,1027.5,o),
(215.712,1024.603,o),
(210.555,1019.445,c),
(205.397,1014.288,o),
(202.5,1007.293,o),
(202.5,1000,c),
(202.5,992.707,o),
(205.397,985.712,o),
(210.555,980.555,c),
(215.712,975.397,o),
(222.707,972.5,o),
(230,972.5,c),
(237.293,972.5,o),
(244.288,975.397,o),
(249.445,980.555,c),
(254.603,985.712,o),
(257.5,992.707,o),
(257.5,1000,c)
);
},
{
closed = 1;
nodes = (
(482.5,1007.293,o),
(479.603,1014.288,o),
(474.445,1019.445,c),
(469.288,1024.603,o),
(462.293,1027.5,o),
(455,1027.5,c),
(447.707,1027.5,o),
(440.712,1024.603,o),
(435.555,1019.445,c),
(430.397,1014.288,o),
(427.5,1007.293,o),
(427.5,1000,c),
(427.5,992.707,o),
(430.397,985.712,o),
(435.555,980.555,c),
(440.712,975.397,o),
(447.707,972.5,o),
(455,972.5,c),
(462.293,972.5,o),
(469.288,975.397,o),
(474.445,980.555,c),
(479.603,985.712,o),
(482.5,992.707,o),
(482.5,1000,c)
);
},
{
closed = 1;
nodes = (
(557.5,1007.293,o),
(554.603,1014.288,o),
(549.445,1019.445,c),
(544.288,1024.603,o),
(537.293,1027.5,o),
(530,1027.5,c),
(522.707,1027.5,o),
(515.712,1024.603,o),
(510.555,1019.445,c),
(505.397,1014.288,o),
(502.5,1007.293,o),
(502.5,1000,c),
(502.5,992.707,o),
(505.397,985.712,o),
(510.555,980.555,c),
(515.712,975.397,o),
(522.707,972.5,o),
(530,972.5,c),
(537.293,972.5,o),
(544.288,975.397,o),
(549.445,980.555,c),
(554.603,985.712,o),
(557.5,992.707,o),
(557.5,1000,c)
);
},
{
closed = 1;
nodes = (
(632.5,1007.293,o),
(629.603,1014.288,o),
(624.445,1019.445,c),
(619.288,1024.603,o),
(612.293,1027.5,o),
(605,1027.5,c),
(597.707,1027.5,o),
(590.712,1024.603,o),
(585.555,1019.445,c),
(580.397,1014.288,o),
(577.5,1007.293,o),
(577.5,1000,c),
(577.5,992.707,o),
(580.397,985.712,o),
(585.555,980.555,c),
(590.712,975.397,o),
(597.707,972.5,o),
(605,972.5,c),
(612.293,972.5,o),
(619.288,975.397,o),
(624.445,980.555,c),
(629.603,985.712,o),
(632.5,992.707,o),
(632.5,1000,c)
);
},
{
closed = 1;
nodes = (
(0,0,l),
(750,0,l),
(750,15,l),
(0,15,l)
);
},
{
closed = 1;
nodes = (
(0,0,l),
(750,0,l),
(750,10,l),
(0,10,l)
);
}
);
visible = 1;
width = 750;
}
);
unicode = 102;
}
{
glyphname = g;
layers = (
{
layerId = m01;
shapes = (
{
closed = 0;
nodes = (
(920,1000,l),
(920,900,o),
(920,60,o),
(920,-40,cs),
(920,-410,o),
(685,-500,o),
(550,-500,cs),
(415,-500,o),
(290,-440,o),
(220,-300,c)
);
},
{
ref = _c.bowlL;
}
);
width = 1150;
},
{
layerId = "75405DBD-BDE7-4DB9-970A-41B7BDE3CB72";
shapes = (
{
pos = (920,1000);
ref = _dot;
},
{
pos = (220,-300);
ref = _dot;
},
{
pos = (920,500);
ref = _dot;
},
{
pos = (920,849.243);
ref = _dot;
},
{
pos = (920,698.486);
ref = _dot;
},
{
pos = (920,246.214);
ref = _dot;
},
{
pos = (920,95.457);
ref = _dot;
},
{
pos = (919.847,-55.299);
ref = _dot;
},
{
pos = (901.453,-204.605);
ref = _dot;
},
{
pos = (842.346,-342.483);
ref = _dot;
},
{
pos = (735.126,-446.779);
ref = _dot;
},
{
pos = (594.14,-496.976);
ref = _dot;
},
{
pos = (444.65,-486.728);
ref = _dot;
},
{
pos = (311.664,-418.356);
ref = _dot;
},
{
pos = (752.247,914.466);
ref = _dot;
},
{
pos = (622.072,990.197);
ref = _dot;
},
{
pos = (471.562,990.683);
ref = _dot;
},
{
pos = (337.852,921.144);
ref = _dot;
},
{
pos = (245.322,801.54);
ref = _dot;
},
{
pos = (195.532,658.278);
ref = _dot;
},
{
pos = (180.047,507.182);
ref = _dot;
},
{
pos = (190.497,355.568);
ref = _dot;
},
{
pos = (230.692,209.234);
ref = _dot;
},
{
pos = (313.925,83.07);
ref = _dot;
},
{
pos = (444.788,9.082);
ref = _dot;
},
{
pos = (594.756,12.825);
ref = _dot;
},
{
pos = (722.927,92.69);
ref = _dot;
},
{
pos = (818.537,210.453);
ref = _dot;
},
{
pos = (884.047,347.44);
ref = _dot;
},
{
closed = 1;
nodes = (
(0,1483,l),
(1150,1483,l),
(1150,1505,l),
(0,1505,l)
);
},
{
closed = 1;
nodes = (
(0,962,l),
(1150,962,l),
(1150,977,l),
(0,977,l)
);
},
{
closed = 1;
nodes = (
(0,680,l),
(1150,680,l),
(1150,695,l),
(0,695,l)
);
},
{
closed = 1;
nodes = (
(0,-493,l),
(1150,-493,l),
(1150,-478,l),
(0,-478,l)
);
},
{
closed = 1;
nodes = (
(0,-1130,l),
(1150,-1130,l),
(1150,-1108,l),
(0,-1108,l)
);
},
{
closed = 1;
nodes = (
(0,0,l),
(1150,0,l),
(1150,22,l),
(0,22,l)
);
}
);
width = 1150;
},
{
layerId = m003;
shapes = (
{
closed = 0;
nodes = (
(920,1000,l),
(920,900,o),
(920,60,o),
(920,-40,cs),
(920,-410,o),
(685,-500,o),
(550,-500,cs),
(415,-500,o),
(290,-440,o),
(220,-300,c)
);
},
{
ref = _c.bowlL;
}
);
width = 1150;
},
{
associatedMasterId = m01;
layerId = m004;
shapes = (
{
closed = 0;
nodes = (
(920,1000,l),
(920,900,o),
(920,60,o),
(920,-40,cs),
(920,-410,o),
(685,-500,o),
(550,-500,cs),
(415,-500,o),
(290,-440,o),
(220,-300,c)
);
},
{
ref = _c.bowlL;
}
);
width = 1150;
},
{
associatedMasterId = m003;
layerId = "97F3F241-0C33-456A-8C9A-43B4EF0E99A1";
shapes = (
{
closed = 0;
nodes = (
(920,1000,l),
(920,900,o),
(920,60,o),
(920,-40,cs),
(920,-410,o),
(685,-500,o),
(550,-500,cs),
(415,-500,o),
(290,-440,o),
(220,-300,c)
);
},
{
ref = _c.bowlL;
}
);
width = 1150;
},
{
associatedMasterId = m003;
layerId = "3283A9C3-DC3F-4C2B-80A1-DEC91026F899";
shapes = (
{
closed = 0;
nodes = (
(920,1000,l),
(920,900,o),
(920,60,o),
(920,-40,cs),
(920,-410,o),
(685,-500,o),
(550,-500,cs),
(415,-500,o),
(290,-440,o),
(220,-300,c)
);
},
{
ref = _c.bowlL;
}
);
width = 1150;
}
);
unicode = 103;
}
{
glyphname = h;
layers = (
{
layerId = m01;
shapes = (
{
ref = _c.stemLA;
},
{
ref = _c.arch;
}
);
width = 1185;
},
{
layerId = "75405DBD-BDE7-4DB9-970A-41B7BDE3CB72";
shapes = (
{
pos = (250,1700);
ref = _dot;
},
{
pos = (250,0);
ref = _dot;
},
{
pos = (960,0);
ref = _dot;
},
{
pos = (250,500);
ref = _dot;
},
{
pos = (250,1586.667);
ref = _dot;
},
{
pos = (250,1473.333);
ref = _dot;
},
{
pos = (250,1360);
ref = _dot;
},
{
pos = (250,1246.667);
ref = _dot;
},
{
pos = (250,1133.333);
ref = _dot;
},
{
pos = (250,1020);
ref = _dot;
},
{
pos = (250,906.667);
ref = _dot;
},
{
pos = (250,793.333);
ref = _dot;
},
{
pos = (250,680);
ref = _dot;
},
{
pos = (250,340);
ref = _dot;
},
{
pos = (250,226.667);
ref = _dot;
},
{
pos = (250,113.333);
ref = _dot;
},
{
pos = (960,110.029);
ref = _dot;
},
{
pos = (960,220.058);
ref = _dot;
},
{
pos = (960,330.086);
ref = _dot;
},
{
pos = (960,440.115);
ref = _dot;
},
{
pos = (960,550.144);
ref = _dot;
},
{
pos = (958.466,660.146);
ref = _dot;
},
{
pos = (945.275,769.281);
ref = _dot;
},
{
pos = (910.371,873.261);
ref = _dot;
},
{
pos = (840.075,956.507);
ref = _dot;
},
{
pos = (738.341,995.749);
ref = _dot;
},
{
pos = (628.699,996.391);
ref = _dot;
},
{
pos = (525.029,961.43);
ref = _dot;
},
{
pos = (439.449,892.993);
ref = _dot;
},
{
pos = (373.799,804.931);
ref = _dot;
},
{
pos = (323.126,707.351);
ref = _dot;
},
{
pos = (282.867,604.988);
ref = _dot;
},
{
closed = 1;
nodes = (
(0,0,l),
(1185,0,l),
(1185,15,l),
(0,15,l)
);
},
{
closed = 1;
nodes = (
(0,680,l),
(1185,680,l),
(1185,695,l),
(0,695,l)
);
},
{
closed = 1;
nodes = (
(0,962,l),
(1185,962,l),
(1185,977,l),
(0,977,l)
);
},
{
closed = 1;
nodes = (
(0,1483,l),
(1185,1483,l),
(1185,1498,l),
(0,1498,l)
);
},
{
closed = 1;
nodes = (
(0,-493,l),
(1185,-493,l),
(1185,-478,l),
(0,-478,l)
);
},
{
closed = 1;
nodes = (
(0,-1130,l),
(1185,-1130,l),
(1185,-1115,l),
(0,-1115,l)
);
}
);
width = 1185;
}
);
unicode = 104;
}
{
glyphname = i;
layers = (
{
layerId = m01;
shapes = (
{
closed = 0;
nodes = (
(310,0,l),
(310,100,o),
(310,900,o),
(310,1000,cs)
);
},
{
pos = (0,100);
ref = dotaccentcomb;
}
);
width = 620;
},
{
layerId = "75405DBD-BDE7-4DB9-970A-41B7BDE3CB72";
shapes = (
{
closed = 1;
nodes = (
(325,-10,o),
(325,0,c),
(325,333.333,o),
(325,666.667,o),
(325,1000,c),
(325,1010,o),
(317.5,1015,o),
(310,1015,c),
(302.5,1015,o),
(295,1010,o),
(295,1000,c),
(295,666.667,o),
(295,333.333,o),
(295,0,c),
(295,-10,o),
(302.5,-15,o),
(310,-15,c),
(317.5,-15,o)
);
},
{
closed = 1;
nodes = (
(325.536,1332.322,o),
(332.607,1339.393,c),
(342.543,1349.33,o),
(345,1356.026,o),
(345,1370,c),
(345,1390.097,o),
(330.097,1405,o),
(310,1405,c),
(289.903,1405,o),
(275,1390.097,o),
(275,1370,c),
(275,1349.903,o),
(289.903,1335,o),
(310,1335,c),
(320,1335,o),
(325,1342.5,o),
(325,1350,c),
(325,1357.5,o),
(320,1365,o),
(310,1365,c),
(306.383,1365,o),
(305,1366.383,o),
(305,1370,c),
(305,1373.617,o),
(306.383,1375,o),
(310,1375,c),
(313.617,1375,o),
(315,1373.617,o),
(315,1370,c),
(315,1361.974,o),
(316.715,1365.928,o),
(311.393,1360.607,c),
(304.322,1353.536,o),
(306.09,1344.697,o),
(311.393,1339.393,c),
(316.697,1334.09,o)
);
}
);
width = 620;
}
);
unicode = 105;
}
{
glyphname = j;
layers = (
{
layerId = m01;
shapes = (
{
closed = 0;
nodes = (
(310,1000,l),
(310,900,o),
(310,0,o),
(310,-100,cs),
(310,-430,o),
(155,-500,o),
(30,-500,cs),
(-85,-500,o),
(-160,-440,o),
(-230,-300,c)
);
},
{
closed = 0;
nodes = (
(310,1360,l)
);
}
);
width = 620;
},
{
layerId = "75405DBD-BDE7-4DB9-970A-41B7BDE3CB72";
shapes = (
{
pos = (310,1000);
ref = _dot;
},
{
pos = (-230,-300);
ref = _dot;
},
{
pos = (310,846.054);
ref = _dot;
},
{
pos = (310,692.109);
ref = _dot;
},
{
pos = (310,538.163);
ref = _dot;
},
{
pos = (310,384.217);
ref = _dot;
},
{
pos = (310,230.271);
ref = _dot;
},
{
pos = (310,76.326);
ref = _dot;
},
{
pos = (310,-77.62);
ref = _dot;
},
{
pos = (300.246,-231.059);
ref = _dot;
},
{
pos = (251.688,-376.257);
ref = _dot;
},
{
pos = (140.11,-478.444);
ref = _dot;
},
{
pos = (-10.814,-497.216);
ref = _dot;
},
{
pos = (-144.736,-427.459);
ref = _dot;
},
{
closed = 1;
nodes = (
(0,1483,l),
(620,1483,l),
(620,1505,l),
(0,1505,l)
);
},
{
closed = 1;
nodes = (
(0,962,l),
(620,962,l),
(620,977,l),
(0,977,l)
);
},
{
closed = 1;
nodes = (
(0,680,l),
(620,680,l),
(620,695,l),
(0,695,l)
);
},
{
closed = 1;
nodes = (
(0,-493,l),
(620,-493,l),
(620,-478,l),
(0,-478,l)
);
},
{
closed = 1;
nodes = (
(0,-1130,l),
(620,-1130,l),
(620,-1108,l),
(0,-1108,l)
);
},
{
closed = 1;
nodes = (
(0,0,l),
(620,0,l),
(620,22,l),
(0,22,l)
);
}
);
width = 620;
},
{
layerId = m003;
shapes = (
{
closed = 0;
nodes = (
(310,1000,l),
(310,900,o),
(310,0,o),
(310,-100,cs),
(310,-430,o),
(155,-500,o),
(30,-500,cs),
(-85,-500,o),
(-160,-440,o),
(-230,-300,c)
);
},
{
closed = 0;
nodes = (
(310,1360,l)
);
}
);
width = 620;
},
{
associatedMasterId = m01;
layerId = m004;
shapes = (
{
closed = 0;
nodes = (
(310,1000,l),
(310,900,o),
(310,0,o),
(310,-100,cs),
(310,-430,o),
(155,-500,o),
(30,-500,cs),
(-85,-500,o),
(-160,-440,o),
(-230,-300,c)
);
},
{
closed = 0;
nodes = (
(310,1360,l)
);
}
);
width = 620;
},
{
associatedMasterId = m003;
layerId = "3B7FFA43-F733-44B8-9BCC-DFF0F2EAA406";
shapes = (
{
closed = 0;
nodes = (
(310,1000,l),
(310,900,o),
(310,0,o),
(310,-100,cs),
(310,-430,o),
(155,-500,o),
(30,-500,cs),
(-85,-500,o),
(-160,-440,o),
(-230,-300,c)
);
},
{
closed = 0;
nodes = (
(310,1360,l)
);
}
);
width = 620;
},
{
associatedMasterId = m003;
layerId = "B6317F2A-173E-4D66-81D3-2B57A6D92C38";
shapes = (
{
closed = 0;
nodes = (
(310,1000,l),
(310,900,o),
(310,0,o),
(310,-100,cs),
(310,-430,o),
(155,-500,o),
(30,-500,cs),
(-85,-500,o),
(-160,-440,o),
(-230,-300,c)
);
},
{
closed = 0;
nodes = (
(310,1360,l)
);
}
);
width = 620;
}
);
unicode = 106;
}
{
glyphname = k;
layers = (
{
layerId = m01;
shapes = (
{
ref = _c.stemLA;
},
{
closed = 0;
nodes = (
(850,1000,l),
(280,600,l),
(890,0,l)
);
}
);
width = 1020;
},
{
layerId = "75405DBD-BDE7-4DB9-970A-41B7BDE3CB72";
shapes = (
{
pos = (250,1700);
ref = _dot;
},
{
pos = (250,0);
ref = _dot;
},
{
pos = (850,1000);
ref = _dot;
},
{
pos = (890,0);
ref = _dot;
},
{
pos = (250,1610.526);
ref = _dot;
},
{
pos = (250,1521.053);
ref = _dot;
},
{
pos = (250,1431.579);
ref = _dot;
},
{
pos = (250,1342.105);
ref = _dot;
},
{
pos = (250,1252.632);
ref = _dot;
},
{
pos = (250,1163.158);
ref = _dot;
},
{
pos = (250,1073.684);
ref = _dot;
},
{
pos = (250,984.211);
ref = _dot;
},
{
pos = (250,894.737);
ref = _dot;
},
{
pos = (250,805.263);
ref = _dot;
},
{
pos = (250,715.789);
ref = _dot;
},
{
pos = (250,626.316);
ref = _dot;
},
{
pos = (250,536.842);
ref = _dot;
},
{
pos = (250,447.368);
ref = _dot;
},
{
pos = (250,357.895);
ref = _dot;
},
{
pos = (250,268.421);
ref = _dot;
},
{
pos = (250,178.947);
ref = _dot;
},
{
pos = (250,89.474);
ref = _dot;
},
{
pos = (775.272,947.559);
ref = _dot;
},
{
pos = (700.543,895.118);
ref = _dot;
},
{
pos = (625.815,842.677);
ref = _dot;
},
{
pos = (551.087,790.236);
ref = _dot;
},
{
pos = (476.359,737.796);
ref = _dot;
},
{
pos = (401.63,685.355);
ref = _dot;
},
{
pos = (326.902,632.914);
ref = _dot;
},
{
pos = (304.235,576.162);
ref = _dot;
},
{
pos = (369.32,512.144);
ref = _dot;
},
{
pos = (434.405,448.126);
ref = _dot;
},
{
pos = (499.49,384.108);
ref = _dot;
},
{
pos = (564.575,320.09);
ref = _dot;
},
{
pos = (629.66,256.072);
ref = _dot;
},
{
pos = (694.745,192.054);
ref = _dot;
},
{
pos = (759.83,128.036);
ref = _dot;
},
{
pos = (824.915,64.018);
ref = _dot;
}
);
width = 1020;
}
);
unicode = 107;
}
{
glyphname = m;
layers = (
{
background = {
shapes = (
{
closed = 0;
nodes = (
(850,0,l),
(850,100,o),
(850,500,o),
(850,600,cs),
(850,900,o),
(785,1000,o),
(630,1000,cs),
(490,1000,o),
(338,895,o),
(250,600,c,{
co.uk.corvelsoftware.Dotter = {
locally_forced = "1";
};
})
);
},
{
closed = 0;
nodes = (
(1450,0,l),
(1450,100,o),
(1450,500,o),
(1450,600,cs),
(1450,900,o),
(1385,1000,o),
(1230,1000,cs),
(1090,1000,o),
(938,895,o),
(850,600,c,{
co.uk.corvelsoftware.Dotter = {
locally_forced = "1";
};
})
);
}
);
};
layerId = m01;
shapes = (
{
ref = _c.stemL;
},
{
closed = 0;
nodes = (
(850,0,l),
(850,100,o),
(850,400,o),
(850,500,cs),
(850,900,o),
(785,1000,o),
(630,1000,cs),
(490,1000,o),
(338,895,o),
(250,500,c,{
co.uk.corvelsoftware.Dotter = {
locally_forced = 1;
};
})
);
},
{
closed = 0;
nodes = (
(1450,0,l),
(1450,100,o),
(1450,400,o),
(1450,500,cs),
(1450,900,o),
(1385,1000,o),
(1230,1000,cs),
(1090,1000,o),
(938,895,o),
(850,500,c,{
co.uk.corvelsoftware.Dotter = {
locally_forced = 1;
};
})
);
}
);
width = 1675;
},
{
layerId = "75405DBD-BDE7-4DB9-970A-41B7BDE3CB72";
shapes = (
{
pos = (250,0);
ref = _dot;
},
{
pos = (200,1000);
ref = _dot;
},
{
pos = (850,0);
ref = _dot;
},
{
pos = (250,500);
ref = _dot;
},
{
pos = (1450,0);
ref = _dot;
},
{
pos = (850,500);
ref = _dot;
},
{
pos = (250,72.063);
ref = _dot;
},
{
pos = (250,144.333);
ref = _dot;
},
{
pos = (250,216.47);
ref = _dot;
},
{
pos = (250,288.295);
ref = _dot;
},
{
pos = (250,360.142);
ref = _dot;
},
{
pos = (250,432.214);
ref = _dot;
},
{
pos = (249.456,576.34);
ref = _dot;
},
{
pos = (247.725,648.589);
ref = _dot;
},
{
pos = (244.394,720.768);
ref = _dot;
},
{
pos = (238.857,792.57);
ref = _dot;
},
{
pos = (230.191,863.923);
ref = _dot;
},
{
pos = (217.103,934.772);
ref = _dot;
},
{
pos = (850,74.949);
ref = _dot;
},
{
pos = (850,149.965);
ref = _dot;
},
{
pos = (850,224.83);
ref = _dot;
},
{
pos = (850,299.571);
ref = _dot;
},
{
pos = (850,374.48);
ref = _dot;
},
{
pos = (848.438,599.812);
ref = _dot;
},
{
pos = (844.512,675.314);
ref = _dot;
},
{
pos = (837.01,750.013);
ref = _dot;
},
{
pos = (823.711,824.061);
ref = _dot;
},
{
pos = (800.448,894.977);
ref = _dot;
},
{
pos = (758.739,956.635);
ref = _dot;
},
{
pos = (694.145,992.471);
ref = _dot;
},
{
pos = (619.9,999.816);
ref = _dot;
},
{
pos = (546.444,986.361);
ref = _dot;
},
{
pos = (480.18,952.319);
ref = _dot;
},
{
pos = (424.498,902.603);
ref = _dot;
},
{
pos = (379.173,843.15);
ref = _dot;
},
{
pos = (342.28,777.892);
ref = _dot;
},
{
pos = (311.867,708.808);
ref = _dot;
},
{
pos = (1450,74.949);
ref = _dot;
},
{
pos = (1450,149.965);
ref = _dot;
},
{
pos = (1450,224.83);
ref = _dot;
},
{
pos = (1450,299.571);
ref = _dot;
},
{
pos = (1450,374.48);
ref = _dot;
},
{
pos = (1450,449.549);
ref = _dot;
},
{
pos = (1449.914,524.805);
ref = _dot;
},
{
pos = (1448.438,599.812);
ref = _dot;
},
{
pos = (1444.512,675.314);
ref = _dot;
},
{
pos = (1437.01,750.013);
ref = _dot;
},
{
pos = (1423.711,824.061);
ref = _dot;
},
{
pos = (1400.448,894.977);
ref = _dot;
},
{
pos = (1358.739,956.635);
ref = _dot;
},
{
pos = (1294.145,992.471);
ref = _dot;
},
{
pos = (1219.9,999.816);
ref = _dot;
},
{
pos = (1146.444,986.361);
ref = _dot;
},
{
pos = (1080.18,952.319);
ref = _dot;
},
{
pos = (1024.498,902.603);
ref = _dot;
},
{
pos = (979.173,843.15);
ref = _dot;
},
{
pos = (942.28,777.892);
ref = _dot;
},
{
pos = (911.867,708.808);
ref = _dot;
}
);
width = 1675;
}
);
unicode = 109;
}
{
glyphname = n;
layers = (
{
layerId = m01;
shapes = (
{
ref = _c.stemL;
},
{
ref = _c.arch;
}
);
width = 1185;
},
{
layerId = "75405DBD-BDE7-4DB9-970A-41B7BDE3CB72";
shapes = (
{
pos = (250,0);
ref = _dot;
},
{
pos = (200,1000);
ref = _dot;
},
{
pos = (960,0);
ref = _dot;
},
{
pos = (250,500);
ref = _dot;
},
{
pos = (250,77.252);
ref = _dot;
},
{
pos = (250,154.504);
ref = _dot;
},
{
pos = (250,231.756);
ref = _dot;
},
{
pos = (250,309.008);
ref = _dot;
},
{
pos = (250,386.26);
ref = _dot;
},
{
pos = (248.624,618.005);
ref = _dot;
},
{
pos = (245.791,695.203);
ref = _dot;
},
{
pos = (240.694,772.283);
ref = _dot;
},
{
pos = (232.317,849.071);
ref = _dot;
},
{
pos = (219.19,925.182);
ref = _dot;
},
{
pos = (960,77.937);
ref = _dot;
},
{
pos = (960,155.874);
ref = _dot;
},
{
pos = (960,233.812);
ref = _dot;
},
{
pos = (960,311.749);
ref = _dot;
},
{
pos = (960,389.686);
ref = _dot;
},
{
pos = (960,467.623);
ref = _dot;
},
{
pos = (960,545.56);
ref = _dot;
},
{
pos = (959.771,623.496);
ref = _dot;
},
{
pos = (955.345,701.286);
ref = _dot;
},
{
pos = (943.365,778.25);
ref = _dot;
},
{
pos = (920.114,852.52);
ref = _dot;
},
{
pos = (880.27,919.181);
ref = _dot;
},
{
pos = (820.657,968.664);
ref = _dot;
},
{
pos = (747.386,994.198);
ref = _dot;
},
{
pos = (669.788,999.865);
ref = _dot;
},
{
pos = (592.797,988.999);
ref = _dot;
},
{
pos = (521.044,959.162);
ref = _dot;
},
{
pos = (458.843,912.491);
ref = _dot;
},
{
pos = (407.147,854.296);
ref = _dot;
},
{
pos = (364.456,789.15);
ref = _dot;
},
{
pos = (328.809,719.871);
ref = _dot;
},
{
pos = (298.592,648.047);
ref = _dot;
},
{
closed = 1;
nodes = (
(0,0,l),
(1185,0,l),
(1185,15,l),
(0,15,l)
);
},
{
closed = 1;
nodes = (
(0,680,l),
(1185,680,l),
(1185,695,l),
(0,695,l)
);
},
{
closed = 1;
nodes = (
(0,962,l),
(1185,962,l),
(1185,977,l),
(0,977,l)
);
},
{
closed = 1;
nodes = (
(0,1483,l),
(1185,1483,l),
(1185,1498,l),
(0,1498,l)
);
},
{
closed = 1;
nodes = (
(0,-683,l),
(1185,-683,l),
(1185,-668,l),
(0,-668,l)
);
}
);
width = 1185;
}
);
unicode = 110;
}
{
glyphname = o;
layers = (
{
layerId = m01;
shapes = (
{
closed = 0;
nodes = (
(561,1000,l),
(351,1000,o),
(180,830,o),
(180,500,cs),
(180,170,o),
(350,0,o),
(560,0,cs),
(770,0,o),
(940,170,o),
(940,500,cs),
(940,830,o),
(769,1000,o),
(559,1000,cs)
);
}
);
width = 1120;
},
{
layerId = "75405DBD-BDE7-4DB9-970A-41B7BDE3CB72";
shapes = (
{
pos = (561,1000);
ref = _dot;
},
{
pos = (485.301,992.243);
ref = _dot;
},
{
pos = (413.073,968.371);
ref = _dot;
},
{
pos = (348.131,928.766);
ref = _dot;
},
{
pos = (293.487,875.822);
ref = _dot;
},
{
pos = (250.487,813.01);
ref = _dot;
},
{
pos = (218.912,743.711);
ref = _dot;
},
{
pos = (197.587,670.578);
ref = _dot;
},
{
pos = (185.139,595.406);
ref = _dot;
},
{
pos = (180.2,519.359);
ref = _dot;
},
{
pos = (181.759,443.165);
ref = _dot;
},
{
pos = (190.199,367.432);
ref = _dot;
},
{
pos = (206.755,293.065);
ref = _dot;
},
{
pos = (232.849,221.508);
ref = _dot;
},
{
pos = (269.84,154.961);
ref = _dot;
},
{
pos = (318.546,96.488);
ref = _dot;
},
{
pos = (378.521,49.691);
ref = _dot;
},
{
pos = (447.523,17.687);
ref = _dot;
},
{
pos = (521.949,1.911);
ref = _dot;
},
{
pos = (598.052,1.911);
ref = _dot;
},
{
pos = (672.478,17.687);
ref = _dot;
},
{
pos = (741.48,49.691);
ref = _dot;
},
{
pos = (801.455,96.489);
ref = _dot;
},
{
pos = (850.161,154.962);
ref = _dot;
},
{
pos = (887.152,221.509);
ref = _dot;
},
{
pos = (913.245,293.067);
ref = _dot;
},
{
pos = (929.802,367.434);
ref = _dot;
},
{
pos = (938.241,443.168);
ref = _dot;
},
{
pos = (939.8,519.36);
ref = _dot;
},
{
pos = (934.86,595.407);
ref = _dot;
},
{
pos = (922.413,670.579);
ref = _dot;
},
{
pos = (901.088,743.712);
ref = _dot;
},
{
pos = (869.513,813.01);
ref = _dot;
},
{
pos = (826.513,875.822);
ref = _dot;
},
{
pos = (771.869,928.766);
ref = _dot;
},
{
pos = (706.927,968.371);
ref = _dot;
},
{
pos = (634.699,992.243);
ref = _dot;
},
{
closed = 1;
nodes = (
(0,0,l),
(1120,0,l),
(1120,15,l),
(0,15,l)
);
},
{
closed = 1;
nodes = (
(0,680,l),
(1120,680,l),
(1120,695,l),
(0,695,l)
);
},
{
closed = 1;
nodes = (
(0,962,l),
(1120,962,l),
(1120,977,l),
(0,977,l)
);
},
{
closed = 1;
nodes = (
(0,1483,l),
(1120,1483,l),
(1120,1498,l),
(0,1498,l)
);
},
{
closed = 1;
nodes = (
(0,-683,l),
(1120,-683,l),
(1120,-668,l),
(0,-668,l)
);
}
);
width = 1120;
}
);
unicode = 111;
}
{
glyphname = p;
layers = (
{
layerId = m01;
shapes = (
{
ref = _c.stemLD;
},
{
ref = _c.bowlR;
}
);
width = 1170;
},
{
layerId = "75405DBD-BDE7-4DB9-970A-41B7BDE3CB72";
shapes = (
{
pos = (250,-500);
ref = _dot;
},
{
pos = (200,1000);
ref = _dot;
},
{
pos = (250,500);
ref = _dot;
},
{
pos = (250,-424.786);
ref = _dot;
},
{
pos = (250,-349.572);
ref = _dot;
},
{
pos = (250,-274.359);
ref = _dot;
},
{
pos = (250,-199.145);
ref = _dot;
},
{
pos = (250,-123.931);
ref = _dot;
},
{
pos = (250,-48.717);
ref = _dot;
},
{
pos = (250,26.497);
ref = _dot;
},
{
pos = (250,101.71);
ref = _dot;
},
{
pos = (250,176.924);
ref = _dot;
},
{
pos = (250,252.138);
ref = _dot;
},
{
pos = (250,327.352);
ref = _dot;
},
{
pos = (250,402.566);
ref = _dot;
},
{
pos = (248.354,628.192);
ref = _dot;
},
{
pos = (245.373,703.345);
ref = _dot;
},
{
pos = (240.168,778.375);
ref = _dot;
},
{
pos = (231.758,853.108);
ref = _dot;
},
{
pos = (218.765,927.175);
ref = _dot;
},
{
pos = (308.067,720.799);
ref = _dot;
},
{
pos = (343.057,788.686);
ref = _dot;
},
{
pos = (386.233,851.671);
ref = _dot;
},
{
pos = (437.953,907.821);
ref = _dot;
},
{
pos = (498.53,954.215);
ref = _dot;
},
{
pos = (567.545,986.601);
ref = _dot;
},
{
pos = (642.541,999.877);
ref = _dot;
},
{
pos = (718.5,993.302);
ref = _dot;
},
{
pos = (790.566,968.56);
ref = _dot;
},
{
pos = (853.306,925.352);
ref = _dot;
},
{
pos = (902.891,867.449);
ref = _dot;
},
{
pos = (939.042,800.252);
ref = _dot;
},
{
pos = (963.701,727.989);
ref = _dot;
},
{
pos = (979.198,653.195);
ref = _dot;
},
{
pos = (987.459,577.248);
ref = _dot;
},
{
pos = (989.952,500.891);
ref = _dot;
},
{
pos = (986.489,424.584);
ref = _dot;
},
{
pos = (975.114,349.057);
ref = _dot;
},
{
pos = (954.725,275.465);
ref = _dot;
},
{
pos = (924.267,205.46);
ref = _dot;
},
{
pos = (882.893,141.326);
ref = _dot;
},
{
pos = (830.426,85.937);
ref = _dot;
},
{
pos = (767.792,42.415);
ref = _dot;
},
{
pos = (697.234,13.48);
ref = _dot;
},
{
pos = (622.049,0.68);
ref = _dot;
},
{
pos = (546.012,5.435);
ref = _dot;
},
{
pos = (474.479,31.528);
ref = _dot;
},
{
pos = (412.845,76.339);
ref = _dot;
},
{
pos = (363.209,134.264);
ref = _dot;
},
{
pos = (324.798,200.234);
ref = _dot;
},
{
closed = 1;
nodes = (
(0,0,l),
(1170,0,l),
(1170,15,l),
(0,15,l)
);
},
{
closed = 1;
nodes = (
(0,680,l),
(1170,680,l),
(1170,695,l),
(0,695,l)
);
},
{
closed = 1;
nodes = (
(0,962,l),
(1170,962,l),
(1170,977,l),
(0,977,l)
);
},
{
closed = 1;
nodes = (
(0,1483,l),
(1170,1483,l),
(1170,1498,l),
(0,1498,l)
);
},
{
closed = 1;
nodes = (
(0,-683,l),
(1170,-683,l),
(1170,-668,l),
(0,-668,l)
);
}
);
width = 1170;
}
);
unicode = 112;
}
{
glyphname = q;
layers = (
{
layerId = m01;
shapes = (
{
closed = 0;
nodes = (
(920,1000,l),
(920,900,o),
(920,100,o),
(920,0,cs),
(920,-280,o),
(940,-400,o),
(970,-500,cs)
);
},
{
ref = _c.bowlL;
}
);
width = 1150;
},
{
layerId = "75405DBD-BDE7-4DB9-970A-41B7BDE3CB72";
shapes = (
{
pos = (920,1000);
ref = _dot;
},
{
pos = (970,-500);
ref = _dot;
},
{
pos = (920,500);
ref = _dot;
},
{
pos = (920,905.983);
ref = _dot;
},
{
pos = (920,811.965);
ref = _dot;
},
{
pos = (920,717.948);
ref = _dot;
},
{
pos = (920,623.931);
ref = _dot;
},
{
pos = (920,435.896);
ref = _dot;
},
{
pos = (920,341.879);
ref = _dot;
},
{
pos = (920,247.862);
ref = _dot;
},
{
pos = (920,153.845);
ref = _dot;
},
{
pos = (920,59.827);
ref = _dot;
},
{
pos = (920.104,-34.19);
ref = _dot;
},
{
pos = (921.646,-128.192);
ref = _dot;
},
{
pos = (925.689,-222.118);
ref = _dot;
},
{
pos = (933.56,-315.795);
ref = _dot;
},
{
pos = (947.475,-408.752);
ref = _dot;
},
{
pos = (854.662,764.717);
ref = _dot;
},
{
pos = (810.688,844.585);
ref = _dot;
},
{
pos = (752.246,914.468);
ref = _dot;
},
{
pos = (678.528,967.802);
ref = _dot;
},
{
pos = (592.351,996.646);
ref = _dot;
},
{
pos = (501.415,996.499);
ref = _dot;
},
{
pos = (414.208,970.62);
ref = _dot;
},
{
pos = (337.85,921.143);
ref = _dot;
},
{
pos = (276.875,853.516);
ref = _dot;
},
{
pos = (232.174,774.103);
ref = _dot;
},
{
pos = (202.448,687.904);
ref = _dot;
},
{
pos = (185.71,598.239);
ref = _dot;
},
{
pos = (180.047,507.182);
ref = _dot;
},
{
pos = (183.36,415.988);
ref = _dot;
},
{
pos = (195.784,325.603);
ref = _dot;
},
{
pos = (219.67,237.586);
ref = _dot;
},
{
pos = (258.055,154.928);
ref = _dot;
},
{
pos = (313.928,83.067);
ref = _dot;
},
{
pos = (387.814,30.11);
ref = _dot;
},
{
pos = (474.627,3.202);
ref = _dot;
},
{
pos = (565.426,4.814);
ref = _dot;
},
{
pos = (650.002,38.11);
ref = _dot;
},
{
pos = (722.93,92.693);
ref = _dot;
},
{
pos = (784.032,160.361);
ref = _dot;
},
{
pos = (833.996,236.665);
ref = _dot;
}
);
width = 1150;
}
);
unicode = 113;
}
{
glyphname = r;
layers = (
{
background = {
shapes = (
{
closed = 0;
nodes = (
(870,700,l),
(870,880,o),
(780,1000,o),
(640,1000,cs),
(500,1000,o),
(358,895,o),
(250,600,c,{
co.uk.corvelsoftware.Dotter = {
locally_forced = "1";
};
})
);
}
);
};
layerId = m01;
shapes = (
{
ref = _c.stemL;
},
{
closed = 0;
nodes = (
(870,700,l),
(870,880,o),
(780,1000,o),
(640,1000,cs),
(500,1000,o),
(358,895,o),
(250,500,c,{
co.uk.corvelsoftware.Dotter = {
locally_forced = 1;
};
})
);
}
);
width = 970;
},
{
layerId = "75405DBD-BDE7-4DB9-970A-41B7BDE3CB72";
shapes = (
{
pos = (250,0);
ref = _dot;
},
{
pos = (200,1000);
ref = _dot;
},
{
pos = (870,700);
ref = _dot;
},
{
pos = (250,500);
ref = _dot;
},
{
pos = (250,111.587);
ref = _dot;
},
{
pos = (250,223.175);
ref = _dot;
},
{
pos = (250,334.762);
ref = _dot;
},
{
pos = (246.949,669.486);
ref = _dot;
},
{
pos = (239.947,780.842);
ref = _dot;
},
{
pos = (225.714,891.484);
ref = _dot;
},
{
pos = (857.367,809.412);
ref = _dot;
},
{
pos = (813.068,909.872);
ref = _dot;
},
{
pos = (730.111,980.788);
ref = _dot;
},
{
pos = (622.48,999.434);
ref = _dot;
},
{
pos = (517.497,968.388);
ref = _dot;
},
{
pos = (433.009,898.135);
ref = _dot;
},
{
pos = (369.601,807.966);
ref = _dot;
},
{
pos = (320.84,708.979);
ref = _dot;
},
{
pos = (281.944,605.675);
ref = _dot;
},
{
closed = 1;
nodes = (
(0,0,l),
(970,0,l),
(970,15,l),
(0,15,l)
);
},
{
closed = 1;
nodes = (
(0,680,l),
(970,680,l),
(970,695,l),
(0,695,l)
);
},
{
closed = 1;
nodes = (
(0,962,l),
(970,962,l),
(970,977,l),
(0,977,l)
);
},
{
closed = 1;
nodes = (
(0,1483,l),
(970,1483,l),
(970,1498,l),
(0,1498,l)
);
},
{
closed = 1;
nodes = (
(0,-493,l),
(970,-493,l),
(970,-478,l),
(0,-478,l)
);
},
{
closed = 1;
nodes = (
(0,-1130,l),
(970,-1130,l),
(970,-1115,l),
(0,-1115,l)
);
}
);
width = 970;
}
);
unicode = 114;
}
{
glyphname = s;
layers = (
{
layerId = m01;
shapes = (
{
closed = 0;
nodes = (
(850,850,l),
(770,950,o),
(660,1000,o),
(500,1000,cs),
(300,1000,o),
(210,885,o),
(210,770,cs),
(210,635,o),
(354,575,o),
(510,540,cs),
(684,502,o),
(870,430,o),
(870,265,cs),
(870,119,o),
(710,0,o),
(530,0,cs),
(385,0,o),
(285,45,o),
(170,160,cs)
);
}
);
width = 1040;
},
{
layerId = "75405DBD-BDE7-4DB9-970A-41B7BDE3CB72";
shapes = (
{
pos = (850,850);
ref = _dot;
},
{
pos = (170,160);
ref = _dot;
},
{
pos = (787.086,913.242);
ref = _dot;
},
{
pos = (711.041,959.807);
ref = _dot;
},
{
pos = (626.247,987.562);
ref = _dot;
},
{
pos = (537.688,999.027);
ref = _dot;
},
{
pos = (448.409,997.26);
ref = _dot;
},
{
pos = (361.566,977.076);
ref = _dot;
},
{
pos = (284.725,932.286);
ref = _dot;
},
{
pos = (230.595,861.966);
ref = _dot;
},
{
pos = (210.078,775.631);
ref = _dot;
},
{
pos = (230.366,689.716);
ref = _dot;
},
{
pos = (290.8,624.829);
ref = _dot;
},
{
pos = (369.303,582.486);
ref = _dot;
},
{
pos = (453.952,553.943);
ref = _dot;
},
{
pos = (540.831,532.918);
ref = _dot;
},
{
pos = (626.82,508.575);
ref = _dot;
},
{
pos = (709.739,475.347);
ref = _dot;
},
{
pos = (785.665,428.508);
ref = _dot;
},
{
pos = (844.558,361.954);
ref = _dot;
},
{
pos = (869.651,277.015);
ref = _dot;
},
{
pos = (855.341,189.52);
ref = _dot;
},
{
pos = (807.63,114.498);
ref = _dot;
},
{
pos = (738.767,57.953);
ref = _dot;
},
{
pos = (657.835,20.475);
ref = _dot;
},
{
pos = (570.549,2.022);
ref = _dot;
},
{
pos = (481.274,1.858);
ref = _dot;
},
{
pos = (393.344,17.152);
ref = _dot;
},
{
pos = (310.676,50.688);
ref = _dot;
},
{
pos = (236.4,100.219);
ref = _dot;
}
);
width = 1040;
}
);
unicode = 115;
}
{
glyphname = t;
layers = (
{
layerId = m01;
shapes = (
{
closed = 0;
nodes = (
(350,1400,l),
(350,1300,o),
(350,400,o),
(350,300,cs),
(350,40,o),
(465,0,o),
(565,0,cs),
(665,0,o),
(775,80,o),
(810,200,c)
);
},
{
closed = 0;
nodes = (
(80,1000,l),
(180,1000,o),
(700,1000,o),
(800,1000,c)
);
}
);
width = 960;
},
{
layerId = "75405DBD-BDE7-4DB9-970A-41B7BDE3CB72";
shapes = (
{
pos = (350,1400);
ref = _dot;
},
{
pos = (810,200);
ref = _dot;
},
{
pos = (80,1000);
ref = _dot;
},
{
pos = (800,1000);
ref = _dot;
},
{
pos = (350,1324.796);
ref = _dot;
},
{
pos = (350,1250.341);
ref = _dot;
},
{
pos = (350,1175.533);
ref = _dot;
},
{
pos = (350,1099.858);
ref = _dot;
},
{
pos = (350,1024.371);
ref = _dot;
},
{
pos = (350,948.54);
ref = _dot;
},
{
pos = (350,873.993);
ref = _dot;
},
{
pos = (350,799.063);
ref = _dot;
},
{
pos = (350,723.483);
ref = _dot;
},
{
pos = (350,648.614);
ref = _dot;
},
{
pos = (350,573.325);
ref = _dot;
},
{
pos = (350,498.801);
ref = _dot;
},
{
pos = (350,423.439);
ref = _dot;
},
{
pos = (350,348.788);
ref = _dot;
},
{
pos = (350.394,274.236);
ref = _dot;
},
{
pos = (356.949,199.628);
ref = _dot;
},
{
pos = (375.013,127.142);
ref = _dot;
},
{
pos = (411.29,62.194);
ref = _dot;
},
{
pos = (470.098,17.533);
ref = _dot;
},
{
pos = (542.302,0.751);
ref = _dot;
},
{
pos = (616.147,6.662);
ref = _dot;
},
{
pos = (684.36,35.84);
ref = _dot;
},
{
pos = (742.274,82.723);
ref = _dot;
},
{
pos = (786.239,142.78);
ref = _dot;
},
{
pos = (152.387,1000);
ref = _dot;
},
{
pos = (224.503,1000);
ref = _dot;
},
{
pos = (297.241,1000);
ref = _dot;
},
{
pos = (441.86,1000);
ref = _dot;
},
{
pos = (513.97,1000);
ref = _dot;
},
{
pos = (586.224,1000);
ref = _dot;
},
{
pos = (658.602,1000);
ref = _dot;
},
{
pos = (730.724,1000);
ref = _dot;
}
);
width = 960;
}
);
unicode = 116;
}
{
glyphname = u;
layers = (
{
background = {
shapes = (
{
closed = 0;
nodes = (
(250,1000,l),
(250,900,o),
(250,500,o),
(250,400,cs),
(250,100,o),
(355,0,o),
(530,0,cs),
(700,0,o),
(852,105,o),
(960,400,c,{
co.uk.corvelsoftware.Dotter = {
locally_forced = "1";
};
})
);
}
);
};
layerId = m01;
shapes = (
{
pos = (710,0);
ref = _c.stemR;
},
{
closed = 0;
nodes = (
(250,1000,l),
(250,900,o),
(250,500,o),
(250,400,cs),
(250,100,o),
(355,0,o),
(530,0,cs),
(700,0,o),
(850,110,o),
(960,500,c,{
co.uk.corvelsoftware.Dotter = {
locally_forced = 1;
};
})
);
}
);
width = 1210;
},
{
layerId = "75405DBD-BDE7-4DB9-970A-41B7BDE3CB72";
shapes = (
{
pos = (960,1000);
ref = _dot;
},
{
pos = (1010,0);
ref = _dot;
},
{
pos = (250,1000);
ref = _dot;
},
{
pos = (960,500);
ref = _dot;
},
{
pos = (960,832.619);
ref = _dot;
},
{
pos = (960,665.238);
ref = _dot;
},
{
pos = (963.051,330.514);
ref = _dot;
},
{
pos = (976.003,163.686);
ref = _dot;
},
{
pos = (250,844.126);
ref = _dot;
},
{
pos = (250,688.252);
ref = _dot;
},
{
pos = (250,532.378);
ref = _dot;
},
{
pos = (250.229,376.505);
ref = _dot;
},
{
pos = (266.635,221.751);
ref = _dot;
},
{
pos = (329.729,80.821);
ref = _dot;
},
{
pos = (462.622,5.8);
ref = _dot;
},
{
pos = (617.202,11.001);
ref = _dot;
},
{
pos = (751.156,87.509);
ref = _dot;
},
{
pos = (845.543,210.848);
ref = _dot;
}
);
width = 1210;
},
{
background = {
shapes = (
{
closed = 0;
nodes = (
(250,1000,l),
(250,900,o),
(250,500,o),
(250,400,cs),
(250,100,o),
(355,0,o),
(530,0,cs),
(700,0,o),
(852,105,o),
(960,400,c,{
co.uk.corvelsoftware.Dotter = {
locally_forced = "1";
};
})
);
}
);
};
layerId = m003;
shapes = (
{
pos = (710,0);
ref = _c.stemR;
},
{
closed = 0;
nodes = (
(250,1000,l),
(250,900,o),
(250,500,o),
(250,400,cs),
(250,100,o),
(355,0,o),
(530,0,cs),
(700,0,o),
(850,110,o),
(960,500,c,{
co.uk.corvelsoftware.Dotter = {
locally_forced = 1;
};
})
);
}
);
width = 1210;
},
{
associatedMasterId = m01;
background = {
shapes = (
{
closed = 0;
nodes = (
(250,1000,l),
(250,900,o),
(250,500,o),
(250,400,cs),
(250,100,o),
(355,0,o),
(530,0,cs),
(700,0,o),
(852,105,o),
(960,400,c,{
co.uk.corvelsoftware.Dotter = {
locally_forced = "1";
};
})
);
}
);
};
layerId = m004;
shapes = (
{
pos = (710,0);
ref = _c.stemR;
},
{
closed = 0;
nodes = (
(250,1000,l),
(250,900,o),
(250,500,o),
(250,400,cs),
(250,100,o),
(355,0,o),
(530,0,cs),
(700,0,o),
(850,110,o),
(960,500,c,{
co.uk.corvelsoftware.Dotter = {
locally_forced = 1;
};
})
);
}
);
width = 1210;
},
{
associatedMasterId = m003;
background = {
shapes = (
{
closed = 0;
nodes = (
(250,1000,l),
(250,900,o),
(250,500,o),
(250,400,cs),
(250,100,o),
(355,0,o),
(530,0,cs),
(700,0,o),
(852,105,o),
(960,400,c,{
co.uk.corvelsoftware.Dotter = {
locally_forced = "1";
};
})
);
}
);
};
layerId = "4D44B380-7E75-4060-B658-C76DBB179442";
shapes = (
{
pos = (710,0);
ref = _c.stemR;
},
{
closed = 0;
nodes = (
(250,1000,l),
(250,900,o),
(250,500,o),
(250,400,cs),
(250,100,o),
(355,0,o),
(530,0,cs),
(700,0,o),
(850,110,o),
(960,500,c,{
co.uk.corvelsoftware.Dotter = {
locally_forced = 1;
};
})
);
}
);
width = 1210;
},
{
associatedMasterId = m003;
background = {
shapes = (
{
closed = 0;
nodes = (
(250,1000,l),
(250,900,o),
(250,500,o),
(250,400,cs),
(250,100,o),
(355,0,o),
(530,0,cs),
(700,0,o),
(852,105,o),
(960,400,c,{
co.uk.corvelsoftware.Dotter = {
locally_forced = "1";
};
})
);
}
);
};
layerId = "2021031E-3A19-40BF-B80F-8C06C9554CB3";
shapes = (
{
pos = (710,0);
ref = _c.stemR;
},
{
closed = 0;
nodes = (
(250,1000,l),
(250,900,o),
(250,500,o),
(250,400,cs),
(250,100,o),
(355,0,o),
(530,0,cs),
(700,0,o),
(850,110,o),
(960,500,c,{
co.uk.corvelsoftware.Dotter = {
locally_forced = 1;
};
})
);
}
);
width = 1210;
}
);
unicode = 117;
}
{
glyphname = v;
layers = (
{
layerId = m01;
shapes = (
{
closed = 0;
nodes = (
(150,1000,l),
(550,0,l),
(950,1000,l)
);
}
);
width = 1100;
},
{
layerId = "75405DBD-BDE7-4DB9-970A-41B7BDE3CB72";
shapes = (
{
pos = (150,1000);
ref = _dot;
},
{
pos = (950,1000);
ref = _dot;
},
{
pos = (183.333,916.667);
ref = _dot;
},
{
pos = (216.667,833.333);
ref = _dot;
},
{
pos = (250,750);
ref = _dot;
},
{
pos = (283.333,666.667);
ref = _dot;
},
{
pos = (316.667,583.333);
ref = _dot;
},
{
pos = (350,500);
ref = _dot;
},
{
pos = (383.333,416.667);
ref = _dot;
},
{
pos = (416.667,333.333);
ref = _dot;
},
{
pos = (450,250);
ref = _dot;
},
{
pos = (483.333,166.667);
ref = _dot;
},
{
pos = (516.667,83.333);
ref = _dot;
},
{
pos = (550,10);
ref = _dot;
},
{
pos = (583.333,83.333);
ref = _dot;
},
{
pos = (616.667,166.667);
ref = _dot;
},
{
pos = (650,250);
ref = _dot;
},
{
pos = (683.333,333.333);
ref = _dot;
},
{
pos = (716.667,416.667);
ref = _dot;
},
{
pos = (750,500);
ref = _dot;
},
{
pos = (783.333,583.333);
ref = _dot;
},
{
pos = (816.667,666.667);
ref = _dot;
},
{
pos = (850,750);
ref = _dot;
},
{
pos = (883.333,833.333);
ref = _dot;
},
{
pos = (916.667,916.667);
ref = _dot;
}
);
width = 1100;
}
);
unicode = 118;
}
{
glyphname = w;
layers = (
{
layerId = m01;
shapes = (
{
closed = 0;
nodes = (
(150,1000,l),
(470,0,l),
(790,1000,l),
(1110,0,l),
(1430,1000,l)
);
}
);
width = 1580;
},
{
layerId = "75405DBD-BDE7-4DB9-970A-41B7BDE3CB72";
shapes = (
{
pos = (150,1000);
ref = _dot;
},
{
pos = (1430,1000);
ref = _dot;
},
{
pos = (172.069,931.034);
ref = _dot;
},
{
pos = (194.138,862.069);
ref = _dot;
},
{
pos = (216.207,793.103);
ref = _dot;
},
{
pos = (238.276,724.138);
ref = _dot;
},
{
pos = (260.345,655.172);
ref = _dot;
},
{
pos = (282.414,586.207);
ref = _dot;
},
{
pos = (304.483,517.241);
ref = _dot;
},
{
pos = (326.552,448.276);
ref = _dot;
},
{
pos = (348.621,379.31);
ref = _dot;
},
{
pos = (370.69,310.345);
ref = _dot;
},
{
pos = (392.759,241.379);
ref = _dot;
},
{
pos = (414.828,172.414);
ref = _dot;
},
{
pos = (436.897,103.448);
ref = _dot;
},
{
pos = (458.966,34.483);
ref = _dot;
},
{
pos = (503.103,103.448);
ref = _dot;
},
{
pos = (525.172,172.414);
ref = _dot;
},
{
pos = (547.241,241.379);
ref = _dot;
},
{
pos = (569.31,310.345);
ref = _dot;
},
{
pos = (591.379,379.31);
ref = _dot;
},
{
pos = (613.448,448.276);
ref = _dot;
},
{
pos = (635.517,517.241);
ref = _dot;
},
{
pos = (657.586,586.207);
ref = _dot;
},
{
pos = (679.655,655.172);
ref = _dot;
},
{
pos = (701.724,724.138);
ref = _dot;
},
{
pos = (723.793,793.103);
ref = _dot;
},
{
pos = (745.862,862.069);
ref = _dot;
},
{
pos = (767.931,931.034);
ref = _dot;
},
{
pos = (790,990);
ref = _dot;
},
{
pos = (834.138,862.069);
ref = _dot;
},
{
pos = (856.207,793.103);
ref = _dot;
},
{
pos = (878.276,724.138);
ref = _dot;
},
{
pos = (900.345,655.172);
ref = _dot;
},
{
pos = (922.414,586.207);
ref = _dot;
},
{
pos = (944.483,517.241);
ref = _dot;
},
{
pos = (966.552,448.276);
ref = _dot;
},
{
pos = (988.621,379.31);
ref = _dot;
},
{
pos = (1010.69,310.345);
ref = _dot;
},
{
pos = (1032.759,241.379);
ref = _dot;
},
{
pos = (1054.828,172.414);
ref = _dot;
},
{
pos = (1076.897,103.448);
ref = _dot;
},
{
pos = (1098.966,34.483);
ref = _dot;
},
{
pos = (1143.103,103.448);
ref = _dot;
},
{
pos = (1165.172,172.414);
ref = _dot;
},
{
pos = (1187.241,241.379);
ref = _dot;
},
{
pos = (1209.31,310.345);
ref = _dot;
},
{
pos = (1231.379,379.31);
ref = _dot;
},
{
pos = (1253.448,448.276);
ref = _dot;
},
{
pos = (1275.517,517.241);
ref = _dot;
},
{
pos = (1297.586,586.207);
ref = _dot;
},
{
pos = (1319.655,655.172);
ref = _dot;
},
{
pos = (1341.724,724.138);
ref = _dot;
},
{
pos = (1363.793,793.103);
ref = _dot;
},
{
pos = (1385.862,862.069);
ref = _dot;
},
{
pos = (1407.931,931.034);
ref = _dot;
}
);
width = 1580;
}
);
unicode = 119;
}
{
glyphname = x;
layers = (
{
layerId = m01;
shapes = (
{
closed = 0;
nodes = (
(170,1000,l),
(940,0,l)
);
},
{
closed = 0;
nodes = (
(920,1000,l),
(150,0,l)
);
}
);
width = 1090;
},
{
layerId = "75405DBD-BDE7-4DB9-970A-41B7BDE3CB72";
shapes = (
{
pos = (170,1000);
ref = _dot;
},
{
pos = (940,0);
ref = _dot;
},
{
pos = (920,1000);
ref = _dot;
},
{
pos = (150,0);
ref = _dot;
},
{
pos = (218.125,937.5);
ref = _dot;
},
{
pos = (266.25,875);
ref = _dot;
},
{
pos = (314.375,812.5);
ref = _dot;
},
{
pos = (362.5,750);
ref = _dot;
},
{
pos = (410.625,687.5);
ref = _dot;
},
{
pos = (458.75,625);
ref = _dot;
},
{
pos = (506.875,562.5);
ref = _dot;
},
{
pos = (555,500);
ref = _dot;
},
{
pos = (603.125,437.5);
ref = _dot;
},
{
pos = (651.25,375);
ref = _dot;
},
{
pos = (699.375,312.5);
ref = _dot;
},
{
pos = (747.5,250);
ref = _dot;
},
{
pos = (795.625,187.5);
ref = _dot;
},
{
pos = (843.75,125);
ref = _dot;
},
{
pos = (891.875,62.5);
ref = _dot;
},
{
pos = (871.875,937.5);
ref = _dot;
},
{
pos = (823.75,875);
ref = _dot;
},
{
pos = (775.625,812.5);
ref = _dot;
},
{
pos = (727.5,750);
ref = _dot;
},
{
pos = (679.375,687.5);
ref = _dot;
},
{
pos = (631.25,625);
ref = _dot;
},
{
pos = (583.125,562.5);
ref = _dot;
},
{
pos = (486.875,437.5);
ref = _dot;
},
{
pos = (438.75,375);
ref = _dot;
},
{
pos = (390.625,312.5);
ref = _dot;
},
{
pos = (342.5,250);
ref = _dot;
},
{
pos = (294.375,187.5);
ref = _dot;
},
{
pos = (246.25,125);
ref = _dot;
},
{
pos = (198.125,62.5);
ref = _dot;
},
{
closed = 1;
nodes = (
(0,0,l),
(1090,0,l),
(1090,15,l),
(0,15,l)
);
},
{
closed = 1;
nodes = (
(0,680,l),
(1090,680,l),
(1090,695,l),
(0,695,l)
);
},
{
closed = 1;
nodes = (
(0,962,l),
(1090,962,l),
(1090,977,l),
(0,977,l)
);
},
{
closed = 1;
nodes = (
(0,1483,l),
(1090,1483,l),
(1090,1498,l),
(0,1498,l)
);
},
{
closed = 1;
nodes = (
(0,-683,l),
(1090,-683,l),
(1090,-668,l),
(0,-668,l)
);
}
);
width = 1090;
}
);
unicode = 120;
}
{
glyphname = y;
layers = (
{
layerId = m01;
shapes = (
{
closed = 0;
nodes = (
(940,1000,l),
(610,0,ls),
(478,-399,o),
(402,-500,o),
(277,-500,cs),
(152,-500,o),
(100,-410,o),
(60,-300,c)
);
},
{
closed = 0;
nodes = (
(120,1000,l),
(610,0,l,{
co.uk.corvelsoftware.Dotter = {
locally_forced = 1;
};
})
);
}
);
width = 1060;
},
{
layerId = "75405DBD-BDE7-4DB9-970A-41B7BDE3CB72";
width = 1060;
}
);
unicode = 121;
}
{
glyphname = z;
layers = (
{
layerId = m01;
shapes = (
{
closed = 0;
nodes = (
(190,1000,l),
(920,1000,l,{
co.uk.corvelsoftware.Dotter = {
forced = 1;
};
}),
(170,0,l,{
co.uk.corvelsoftware.Dotter = {
forced = 1;
};
}),
(940,0,l)
);
}
);
width = 1110;
},
{
layerId = "75405DBD-BDE7-4DB9-970A-41B7BDE3CB72";
width = 1110;
}
);
unicode = 122;
}
{
glyphname = dotaccentcomb;
layers = (
{
layerId = m01;
shapes = (
{
closed = 1;
nodes = (
(322,1250,o),
(330,1258,o),
(330,1270,cs),
(330,1282,o),
(322,1290,o),
(310,1290,cs),
(298,1290,o),
(290,1282,o),
(290,1270,cs),
(290,1258,o),
(298,1250,o),
(310,1250,cs)
);
}
);
width = 620;
},
{
layerId = "75405DBD-BDE7-4DB9-970A-41B7BDE3CB72";
shapes = (
{
pos = (322,1250);
ref = _dot;
}
);
width = 620;
},
{
associatedMasterId = "75405DBD-BDE7-4DB9-970A-41B7BDE3CB72";
layerId = "9BFB050C-D8D4-4F54-A8DB-3B84372AD55B";
name = "Regular dotted";
shapes = (
{
closed = 1;
nodes = (
(432,1279.587,o),
(426.205,1293.576,o),
(415.89,1303.89,c),
(405.576,1314.205,o),
(391.587,1320,o),
(377,1320,c),
(362.413,1320,o),
(348.424,1314.205,o),
(338.11,1303.89,c),
(327.795,1293.576,o),
(322,1279.587,o),
(322,1265,c),
(322,1250.413,o),
(327.795,1236.424,o),
(338.11,1226.11,c),
(348.424,1215.795,o),
(362.413,1210,o),
(377,1210,c),
(391.587,1210,o),
(405.576,1215.795,o),
(415.89,1226.11,c),
(426.205,1236.424,o),
(432,1250.413,o),
(432,1265,c)
);
},
{
closed = 1;
nodes = (
(322.453,1257.476,o),
(316.658,1271.465,o),
(306.343,1281.78,c),
(296.029,1292.094,o),
(282.039,1297.889,o),
(267.453,1297.889,c),
(252.866,1297.889,o),
(238.876,1292.094,o),
(228.562,1281.78,c),
(218.247,1271.465,o),
(212.453,1257.476,o),
(212.453,1242.889,c),
(212.453,1228.302,o),
(218.247,1214.313,o),
(228.562,1203.999,c),
(238.876,1193.684,o),
(252.866,1187.889,o),
(267.453,1187.889,c),
(282.039,1187.889,o),
(296.029,1193.684,o),
(306.343,1203.999,c),
(316.658,1214.313,o),
(322.453,1228.302,o),
(322.453,1242.889,c)
);
}
);
visible = 1;
width = 620;
}
);
unicode = 775;
}
{
glyphname = "alefMadda-ar";
layers = (
{
layerId = m01;
shapes = (
{
ref = "alef-ar";
},
{
pos = (-50,895);
ref = _madda;
}
);
width = 432;
},
{
layerId = "75405DBD-BDE7-4DB9-970A-41B7BDE3CB72";
shapes = (
{
pos = (202,1371);
ref = _dot;
},
{
pos = (232,8);
ref = _dot;
},
{
pos = (400,1666);
ref = _dot;
},
{
pos = (37,1667);
ref = _dot;
},
{
pos = (200.037,1219.515);
ref = _dot;
},
{
pos = (200.773,1068.019);
ref = _dot;
},
{
pos = (203.56,916.546);
ref = _dot;
},
{
pos = (207.785,765.105);
ref = _dot;
},
{
pos = (212.877,613.691);
ref = _dot;
},
{
pos = (218.305,462.288);
ref = _dot;
},
{
pos = (223.587,310.881);
ref = _dot;
},
{
pos = (228.283,159.454);
ref = _dot;
},
{
pos = (216.896,1669.628);
ref = _dot;
}
);
width = 432;
},
{
associatedMasterId = m01;
layerId = "B3BCD11F-EA8A-43F6-B67E-83CD99AAD682";
name = "Pendot Quick Preview";
shapes = (
{
closed = 1;
nodes = (
(237,1380.283,o),
(233.313,1389.185,o),
(226.749,1395.748,c),
(220.185,1402.313,o),
(211.283,1406,o),
(202,1406,c),
(192.717,1406,o),
(183.815,1402.313,o),
(177.251,1395.748,c),
(170.687,1389.185,o),
(167,1380.283,o),
(167,1371,c),
(167,1361.717,o),
(170.687,1352.815,o),
(177.251,1346.252,c),
(183.815,1339.687,o),
(192.717,1336,o),
(202,1336,c),
(211.283,1336,o),
(220.185,1339.687,o),
(226.749,1346.252,c),
(233.313,1352.815,o),
(237,1361.717,o),
(237,1371,c)
);
},
{
closed = 1;
nodes = (
(267,17.283,o),
(263.313,26.185,o),
(256.748,32.748,c),
(250.185,39.313,o),
(241.283,43,o),
(232,43,c),
(222.717,43,o),
(213.815,39.313,o),
(207.251,32.748,c),
(200.687,26.185,o),
(197,17.283,o),
(197,8,c),
(197,-1.283,o),
(200.687,-10.185,o),
(207.251,-16.748,c),
(213.815,-23.313,o),
(222.717,-27,o),
(232,-27,c),
(241.283,-27,o),
(250.185,-23.313,o),
(256.748,-16.748,c),
(263.313,-10.185,o),
(267,-1.283,o),
(267,8,c)
);
},
{
closed = 1;
nodes = (
(435,1675.283,o),
(431.313,1684.185,o),
(424.748,1690.748,c),
(418.185,1697.313,o),
(409.283,1701,o),
(400,1701,c),
(390.717,1701,o),
(381.815,1697.313,o),
(375.252,1690.748,c),
(368.687,1684.185,o),
(365,1675.283,o),
(365,1666,c),
(365,1656.717,o),
(368.687,1647.815,o),
(375.252,1641.252,c),
(381.815,1634.687,o),
(390.717,1631,o),
(400,1631,c),
(409.283,1631,o),
(418.185,1634.687,o),
(424.748,1641.252,c),
(431.313,1647.815,o),
(435,1656.717,o),
(435,1666,c)
);
},
{
closed = 1;
nodes = (
(72,1676.283,o),
(68.313,1685.185,o),
(61.748,1691.748,c),
(55.185,1698.313,o),
(46.283,1702,o),
(37,1702,c),
(27.717,1702,o),
(18.815,1698.313,o),
(12.252,1691.748,c),
(5.687,1685.185,o),
(2,1676.283,o),
(2,1667,c),
(2,1657.717,o),
(5.687,1648.815,o),
(12.252,1642.252,c),
(18.815,1635.687,o),
(27.717,1632,o),
(37,1632,c),
(46.283,1632,o),
(55.185,1635.687,o),
(61.748,1642.252,c),
(68.313,1648.815,o),
(72,1657.717,o),
(72,1667,c)
);
},
{
closed = 1;
nodes = (
(235.249,1266.672,o),
(231.561,1275.575,o),
(224.997,1282.138,c),
(218.434,1288.702,o),
(209.531,1292.39,o),
(200.249,1292.39,c),
(190.966,1292.39,o),
(182.064,1288.702,o),
(175.5,1282.138,c),
(168.936,1275.575,o),
(165.249,1266.672,o),
(165.249,1257.39,c),
(165.249,1248.107,o),
(168.936,1239.205,o),
(175.5,1232.641,c),
(182.064,1226.077,o),
(190.966,1222.39,o),
(200.249,1222.39,c),
(209.531,1222.39,o),
(218.434,1226.077,o),
(224.997,1232.641,c),
(231.561,1239.205,o),
(235.249,1248.107,o),
(235.249,1257.39,c)
);
},
{
closed = 1;
nodes = (
(235.109,1153.048,o),
(231.421,1161.951,o),
(224.857,1168.514,c),
(218.294,1175.078,o),
(209.392,1178.766,o),
(200.109,1178.766,c),
(190.826,1178.766,o),
(181.924,1175.078,o),
(175.36,1168.514,c),
(168.796,1161.951,o),
(165.109,1153.048,o),
(165.109,1143.766,c),
(165.109,1134.483,o),
(168.796,1125.581,o),
(175.36,1119.017,c),
(181.924,1112.453,o),
(190.826,1108.766,o),
(200.109,1108.766,c),
(209.392,1108.766,o),
(218.294,1112.453,o),
(224.857,1119.017,c),
(231.421,1125.581,o),
(235.109,1134.483,o),
(235.109,1143.766,c)
);
},
{
closed = 1;
nodes = (
(236.301,1039.43,o),
(232.614,1048.333,o),
(226.05,1054.896,c),
(219.486,1061.46,o),
(210.584,1065.148,o),
(201.301,1065.148,c),
(192.019,1065.148,o),
(183.117,1061.46,o),
(176.553,1054.896,c),
(169.989,1048.333,o),
(166.301,1039.43,o),
(166.301,1030.148,c),
(166.301,1020.865,o),
(169.989,1011.963,o),
(176.553,1005.399,c),
(183.117,998.835,o),
(192.019,995.148,o),
(201.301,995.148,c),
(210.584,995.148,o),
(219.486,998.835,o),
(226.05,1005.399,c),
(232.614,1011.963,o),
(236.301,1020.865,o),
(236.301,1030.148,c)
);
},
{
closed = 1;
nodes = (
(238.56,925.828,o),
(234.872,934.731,o),
(228.308,941.294,c),
(221.745,947.858,o),
(212.842,951.546,o),
(203.56,951.546,c),
(194.277,951.546,o),
(185.375,947.858,o),
(178.811,941.294,c),
(172.247,934.731,o),
(168.56,925.828,o),
(168.56,916.546,c),
(168.56,907.263,o),
(172.247,898.361,o),
(178.811,891.797,c),
(185.375,885.233,o),
(194.277,881.546,o),
(203.56,881.546,c),
(212.842,881.546,o),
(221.745,885.233,o),
(228.308,891.797,c),
(234.872,898.361,o),
(238.56,907.263,o),
(238.56,916.546,c)
);
},
{
closed = 1;
nodes = (
(241.626,812.245,o),
(237.939,821.147,o),
(231.375,827.711,c),
(224.811,834.275,o),
(215.909,837.962,o),
(206.626,837.962,c),
(197.344,837.962,o),
(188.441,834.275,o),
(181.878,827.711,c),
(175.314,821.147,o),
(171.626,812.245,o),
(171.626,802.962,c),
(171.626,793.68,o),
(175.314,784.777,o),
(181.878,778.214,c),
(188.441,771.65,o),
(197.344,767.962,o),
(206.626,767.962,c),
(215.909,767.962,o),
(224.811,771.65,o),
(231.375,778.214,c),
(237.939,784.777,o),
(241.626,793.68,o),
(241.626,802.962,c)
);
},
{
closed = 1;
nodes = (
(245.257,698.678,o),
(241.57,707.58,o),
(235.006,714.144,c),
(228.442,720.708,o),
(219.54,724.396,o),
(210.257,724.396,c),
(200.974,724.396,o),
(192.072,720.708,o),
(185.509,714.144,c),
(178.945,707.58,o),
(175.257,698.678,o),
(175.257,689.396,c),
(175.257,680.113,o),
(178.945,671.211,o),
(185.509,664.647,c),
(192.072,658.083,o),
(200.974,654.396,o),
(210.257,654.396,c),
(219.54,654.396,o),
(228.442,658.083,o),
(235.006,664.647,c),
(241.57,671.211,o),
(245.257,680.113,o),
(245.257,689.396,c)
);
},
{
closed = 1;
nodes = (
(249.222,585.122,o),
(245.534,594.025,o),
(238.97,600.588,c),
(232.407,607.152,o),
(223.504,610.84,o),
(214.222,610.84,c),
(204.939,610.84,o),
(196.037,607.152,o),
(189.473,600.588,c),
(182.909,594.025,o),
(179.222,585.122,o),
(179.222,575.84,c),
(179.222,566.557,o),
(182.909,557.655,o),
(189.473,551.091,c),
(196.037,544.527,o),
(204.939,540.84,o),
(214.222,540.84,c),
(223.504,540.84,o),
(232.407,544.527,o),
(238.97,551.091,c),
(245.534,557.655,o),
(249.222,566.557,o),
(249.222,575.84,c)
);
},
{
closed = 1;
nodes = (
(253.305,471.571,o),
(249.618,480.473,o),
(243.054,487.037,c),
(236.49,493.601,o),
(227.588,497.288,o),
(218.305,497.288,c),
(209.023,497.288,o),
(200.12,493.601,o),
(193.557,487.037,c),
(186.993,480.473,o),
(183.305,471.571,o),
(183.305,462.288,c),
(183.305,453.006,o),
(186.993,444.103,o),
(193.557,437.54,c),
(200.12,430.976,o),
(209.023,427.288,o),
(218.305,427.288,c),
(227.588,427.288,o),
(236.49,430.976,o),
(243.054,437.54,c),
(249.618,444.103,o),
(253.305,453.006,o),
(253.305,462.288,c)
);
},
{
closed = 1;
nodes = (
(257.305,358.017,o),
(253.618,366.919,o),
(247.054,373.482,c),
(240.49,380.046,o),
(231.588,383.734,o),
(222.305,383.734,c),
(213.023,383.734,o),
(204.12,380.046,o),
(197.557,373.482,c),
(190.993,366.919,o),
(187.305,358.017,o),
(187.305,348.734,c),
(187.305,339.451,o),
(190.993,330.549,o),
(197.557,323.985,c),
(204.12,317.421,o),
(213.023,313.734,o),
(222.305,313.734,c),
(231.588,313.734,o),
(240.49,317.421,o),
(247.054,323.985,c),
(253.618,330.549,o),
(257.305,339.451,o),
(257.305,348.734,c)
);
},
{
closed = 1;
nodes = (
(261.034,244.453,o),
(257.347,253.355,o),
(250.783,259.919,c),
(244.219,266.483,o),
(235.317,270.17,o),
(226.034,270.17,c),
(216.752,270.17,o),
(207.849,266.483,o),
(201.286,259.919,c),
(194.722,253.355,o),
(191.034,244.453,o),
(191.034,235.17,c),
(191.034,225.888,o),
(194.722,216.985,o),
(201.286,210.422,c),
(207.849,203.858,o),
(216.752,200.17,o),
(226.034,200.17,c),
(235.317,200.17,o),
(244.219,203.858,o),
(250.783,210.422,c),
(257.347,216.985,o),
(261.034,225.888,o),
(261.034,235.17,c)
);
},
{
closed = 1;
nodes = (
(264.319,130.876,o),
(260.631,139.778,o),
(254.067,146.342,c),
(247.504,152.906,o),
(238.602,156.593,o),
(229.319,156.593,c),
(220.036,156.593,o),
(211.134,152.906,o),
(204.57,146.342,c),
(198.006,139.778,o),
(194.319,130.876,o),
(194.319,121.593,c),
(194.319,112.311,o),
(198.006,103.408,o),
(204.57,96.845,c),
(211.134,90.281,o),
(220.036,86.593,o),
(229.319,86.593,c),
(238.602,86.593,o),
(247.504,90.281,o),
(254.067,96.845,c),
(260.631,103.408,o),
(264.319,112.311,o),
(264.319,121.593,c)
);
},
{
closed = 1;
nodes = (
(312.393,1664.808,o),
(308.705,1673.71,o),
(302.141,1680.274,c),
(295.577,1686.838,o),
(286.675,1690.525,o),
(277.393,1690.525,c),
(268.11,1690.525,o),
(259.208,1686.838,o),
(252.644,1680.274,c),
(246.08,1673.71,o),
(242.393,1664.808,o),
(242.393,1655.525,c),
(242.393,1646.243,o),
(246.08,1637.34,o),
(252.644,1630.777,c),
(259.208,1624.213,o),
(268.11,1620.525,o),
(277.393,1620.525,c),
(286.675,1620.525,o),
(295.577,1624.213,o),
(302.141,1630.777,c),
(308.705,1637.34,o),
(312.393,1646.243,o),
(312.393,1655.525,c)
);
},
{
closed = 1;
nodes = (
(191.79,1694.684,o),
(188.102,1703.586,o),
(181.538,1710.15,c),
(174.975,1716.714,o),
(166.073,1720.401,o),
(156.79,1720.401,c),
(147.507,1720.401,o),
(138.605,1716.714,o),
(132.041,1710.15,c),
(125.477,1703.586,o),
(121.79,1694.684,o),
(121.79,1685.401,c),
(121.79,1676.119,o),
(125.477,1667.216,o),
(132.041,1660.653,c),
(138.605,1654.089,o),
(147.507,1650.401,o),
(156.79,1650.401,c),
(166.073,1650.401,o),
(174.975,1654.089,o),
(181.538,1660.653,c),
(188.102,1667.216,o),
(191.79,1676.119,o),
(191.79,1685.401,c)
);
}
);
visible = 1;
width = 1200;
},
{
layerId = m003;
shapes = (
{
ref = "alef-ar";
},
{
pos = (-50,895);
ref = _madda;
}
);
width = 432;
},
{
associatedMasterId = m01;
layerId = "ABA9D35C-B20D-40C8-B819-E2E20F870FFA";
name = "Pendot Quick Preview";
shapes = (
{
closed = 1;
nodes = (
(237,1380.283,o),
(233.313,1389.185,o),
(226.749,1395.748,c),
(220.185,1402.313,o),
(211.283,1406,o),
(202,1406,c),
(192.717,1406,o),
(183.815,1402.313,o),
(177.251,1395.748,c),
(170.687,1389.185,o),
(167,1380.283,o),
(167,1371,c),
(167,1361.717,o),
(170.687,1352.815,o),
(177.251,1346.252,c),
(183.815,1339.687,o),
(192.717,1336,o),
(202,1336,c),
(211.283,1336,o),
(220.185,1339.687,o),
(226.749,1346.252,c),
(233.313,1352.815,o),
(237,1361.717,o),
(237,1371,c)
);
},
{
closed = 1;
nodes = (
(267,17.283,o),
(263.313,26.185,o),
(256.748,32.748,c),
(250.185,39.313,o),
(241.283,43,o),
(232,43,c),
(222.717,43,o),
(213.815,39.313,o),
(207.251,32.748,c),
(200.687,26.185,o),
(197,17.283,o),
(197,8,c),
(197,-1.283,o),
(200.687,-10.185,o),
(207.251,-16.748,c),
(213.815,-23.313,o),
(222.717,-27,o),
(232,-27,c),
(241.283,-27,o),
(250.185,-23.313,o),
(256.748,-16.748,c),
(263.313,-10.185,o),
(267,-1.283,o),
(267,8,c)
);
},
{
closed = 1;
nodes = (
(435,1675.283,o),
(431.313,1684.185,o),
(424.748,1690.748,c),
(418.185,1697.313,o),
(409.283,1701,o),
(400,1701,c),
(390.717,1701,o),
(381.815,1697.313,o),
(375.252,1690.748,c),
(368.687,1684.185,o),
(365,1675.283,o),
(365,1666,c),
(365,1656.717,o),
(368.687,1647.815,o),
(375.252,1641.252,c),
(381.815,1634.687,o),
(390.717,1631,o),
(400,1631,c),
(409.283,1631,o),
(418.185,1634.687,o),
(424.748,1641.252,c),
(431.313,1647.815,o),
(435,1656.717,o),
(435,1666,c)
);
},
{
closed = 1;
nodes = (
(72,1676.283,o),
(68.313,1685.185,o),
(61.748,1691.748,c),
(55.185,1698.313,o),
(46.283,1702,o),
(37,1702,c),
(27.717,1702,o),
(18.815,1698.313,o),
(12.252,1691.748,c),
(5.687,1685.185,o),
(2,1676.283,o),
(2,1667,c),
(2,1657.717,o),
(5.687,1648.815,o),
(12.252,1642.252,c),
(18.815,1635.687,o),
(27.717,1632,o),
(37,1632,c),
(46.283,1632,o),
(55.185,1635.687,o),
(61.748,1642.252,c),
(68.313,1648.815,o),
(72,1657.717,o),
(72,1667,c)
);
},
{
closed = 1;
nodes = (
(235.249,1266.672,o),
(231.561,1275.575,o),
(224.997,1282.138,c),
(218.434,1288.702,o),
(209.531,1292.39,o),
(200.249,1292.39,c),
(190.966,1292.39,o),
(182.064,1288.702,o),
(175.5,1282.138,c),
(168.936,1275.575,o),
(165.249,1266.672,o),
(165.249,1257.39,c),
(165.249,1248.107,o),
(168.936,1239.205,o),
(175.5,1232.641,c),
(182.064,1226.077,o),
(190.966,1222.39,o),
(200.249,1222.39,c),
(209.531,1222.39,o),
(218.434,1226.077,o),
(224.997,1232.641,c),
(231.561,1239.205,o),
(235.249,1248.107,o),
(235.249,1257.39,c)
);
},
{
closed = 1;
nodes = (
(235.109,1153.048,o),
(231.421,1161.951,o),
(224.857,1168.514,c),
(218.294,1175.078,o),
(209.392,1178.766,o),
(200.109,1178.766,c),
(190.826,1178.766,o),
(181.924,1175.078,o),
(175.36,1168.514,c),
(168.796,1161.951,o),
(165.109,1153.048,o),
(165.109,1143.766,c),
(165.109,1134.483,o),
(168.796,1125.581,o),
(175.36,1119.017,c),
(181.924,1112.453,o),
(190.826,1108.766,o),
(200.109,1108.766,c),
(209.392,1108.766,o),
(218.294,1112.453,o),
(224.857,1119.017,c),
(231.421,1125.581,o),
(235.109,1134.483,o),
(235.109,1143.766,c)
);
},
{
closed = 1;
nodes = (
(236.301,1039.43,o),
(232.614,1048.333,o),
(226.05,1054.896,c),
(219.486,1061.46,o),
(210.584,1065.148,o),
(201.301,1065.148,c),
(192.019,1065.148,o),
(183.117,1061.46,o),
(176.553,1054.896,c),
(169.989,1048.333,o),
(166.301,1039.43,o),
(166.301,1030.148,c),
(166.301,1020.865,o),
(169.989,1011.963,o),
(176.553,1005.399,c),
(183.117,998.835,o),
(192.019,995.148,o),
(201.301,995.148,c),
(210.584,995.148,o),
(219.486,998.835,o),
(226.05,1005.399,c),
(232.614,1011.963,o),
(236.301,1020.865,o),
(236.301,1030.148,c)
);
},
{
closed = 1;
nodes = (
(238.56,925.828,o),
(234.872,934.731,o),
(228.308,941.294,c),
(221.745,947.858,o),
(212.842,951.546,o),
(203.56,951.546,c),
(194.277,951.546,o),
(185.375,947.858,o),
(178.811,941.294,c),
(172.247,934.731,o),
(168.56,925.828,o),
(168.56,916.546,c),
(168.56,907.263,o),
(172.247,898.361,o),
(178.811,891.797,c),
(185.375,885.233,o),
(194.277,881.546,o),
(203.56,881.546,c),
(212.842,881.546,o),
(221.745,885.233,o),
(228.308,891.797,c),
(234.872,898.361,o),
(238.56,907.263,o),
(238.56,916.546,c)
);
},
{
closed = 1;
nodes = (
(241.626,812.245,o),
(237.939,821.147,o),
(231.375,827.711,c),
(224.811,834.275,o),
(215.909,837.962,o),
(206.626,837.962,c),
(197.344,837.962,o),
(188.441,834.275,o),
(181.878,827.711,c),
(175.314,821.147,o),
(171.626,812.245,o),
(171.626,802.962,c),
(171.626,793.68,o),
(175.314,784.777,o),
(181.878,778.214,c),
(188.441,771.65,o),
(197.344,767.962,o),
(206.626,767.962,c),
(215.909,767.962,o),
(224.811,771.65,o),
(231.375,778.214,c),
(237.939,784.777,o),
(241.626,793.68,o),
(241.626,802.962,c)
);
},
{
closed = 1;
nodes = (
(245.257,698.678,o),
(241.57,707.58,o),
(235.006,714.144,c),
(228.442,720.708,o),
(219.54,724.396,o),
(210.257,724.396,c),
(200.974,724.396,o),
(192.072,720.708,o),
(185.509,714.144,c),
(178.945,707.58,o),
(175.257,698.678,o),
(175.257,689.396,c),
(175.257,680.113,o),
(178.945,671.211,o),
(185.509,664.647,c),
(192.072,658.083,o),
(200.974,654.396,o),
(210.257,654.396,c),
(219.54,654.396,o),
(228.442,658.083,o),
(235.006,664.647,c),
(241.57,671.211,o),
(245.257,680.113,o),
(245.257,689.396,c)
);
},
{
closed = 1;
nodes = (
(249.222,585.122,o),
(245.534,594.025,o),
(238.97,600.588,c),
(232.407,607.152,o),
(223.504,610.84,o),
(214.222,610.84,c),
(204.939,610.84,o),
(196.037,607.152,o),
(189.473,600.588,c),
(182.909,594.025,o),
(179.222,585.122,o),
(179.222,575.84,c),
(179.222,566.557,o),
(182.909,557.655,o),
(189.473,551.091,c),
(196.037,544.527,o),
(204.939,540.84,o),
(214.222,540.84,c),
(223.504,540.84,o),
(232.407,544.527,o),
(238.97,551.091,c),
(245.534,557.655,o),
(249.222,566.557,o),
(249.222,575.84,c)
);
},
{
closed = 1;
nodes = (
(253.305,471.571,o),
(249.618,480.473,o),
(243.054,487.037,c),
(236.49,493.601,o),
(227.588,497.288,o),
(218.305,497.288,c),
(209.023,497.288,o),
(200.12,493.601,o),
(193.557,487.037,c),
(186.993,480.473,o),
(183.305,471.571,o),
(183.305,462.288,c),
(183.305,453.006,o),
(186.993,444.103,o),
(193.557,437.54,c),
(200.12,430.976,o),
(209.023,427.288,o),
(218.305,427.288,c),
(227.588,427.288,o),
(236.49,430.976,o),
(243.054,437.54,c),
(249.618,444.103,o),
(253.305,453.006,o),
(253.305,462.288,c)
);
},
{
closed = 1;
nodes = (
(257.305,358.017,o),
(253.618,366.919,o),
(247.054,373.482,c),
(240.49,380.046,o),
(231.588,383.734,o),
(222.305,383.734,c),
(213.023,383.734,o),
(204.12,380.046,o),
(197.557,373.482,c),
(190.993,366.919,o),
(187.305,358.017,o),
(187.305,348.734,c),
(187.305,339.451,o),
(190.993,330.549,o),
(197.557,323.985,c),
(204.12,317.421,o),
(213.023,313.734,o),
(222.305,313.734,c),
(231.588,313.734,o),
(240.49,317.421,o),
(247.054,323.985,c),
(253.618,330.549,o),
(257.305,339.451,o),
(257.305,348.734,c)
);
},
{
closed = 1;
nodes = (
(261.034,244.453,o),
(257.347,253.355,o),
(250.783,259.919,c),
(244.219,266.483,o),
(235.317,270.17,o),
(226.034,270.17,c),
(216.752,270.17,o),
(207.849,266.483,o),
(201.286,259.919,c),
(194.722,253.355,o),
(191.034,244.453,o),
(191.034,235.17,c),
(191.034,225.888,o),
(194.722,216.985,o),
(201.286,210.422,c),
(207.849,203.858,o),
(216.752,200.17,o),
(226.034,200.17,c),
(235.317,200.17,o),
(244.219,203.858,o),
(250.783,210.422,c),
(257.347,216.985,o),
(261.034,225.888,o),
(261.034,235.17,c)
);
},
{
closed = 1;
nodes = (
(264.319,130.876,o),
(260.631,139.778,o),
(254.067,146.342,c),
(247.504,152.906,o),
(238.602,156.593,o),
(229.319,156.593,c),
(220.036,156.593,o),
(211.134,152.906,o),
(204.57,146.342,c),
(198.006,139.778,o),
(194.319,130.876,o),
(194.319,121.593,c),
(194.319,112.311,o),
(198.006,103.408,o),
(204.57,96.845,c),
(211.134,90.281,o),
(220.036,86.593,o),
(229.319,86.593,c),
(238.602,86.593,o),
(247.504,90.281,o),
(254.067,96.845,c),
(260.631,103.408,o),
(264.319,112.311,o),
(264.319,121.593,c)
);
},
{
closed = 1;
nodes = (
(312.393,1664.808,o),
(308.705,1673.71,o),
(302.141,1680.274,c),
(295.577,1686.838,o),
(286.675,1690.525,o),
(277.393,1690.525,c),
(268.11,1690.525,o),
(259.208,1686.838,o),
(252.644,1680.274,c),
(246.08,1673.71,o),
(242.393,1664.808,o),
(242.393,1655.525,c),
(242.393,1646.243,o),
(246.08,1637.34,o),
(252.644,1630.777,c),
(259.208,1624.213,o),
(268.11,1620.525,o),
(277.393,1620.525,c),
(286.675,1620.525,o),
(295.577,1624.213,o),
(302.141,1630.777,c),
(308.705,1637.34,o),
(312.393,1646.243,o),
(312.393,1655.525,c)
);
},
{
closed = 1;
nodes = (
(191.79,1694.684,o),
(188.102,1703.586,o),
(181.538,1710.15,c),
(174.975,1716.714,o),
(166.073,1720.401,o),
(156.79,1720.401,c),
(147.507,1720.401,o),
(138.605,1716.714,o),
(132.041,1710.15,c),
(125.477,1703.586,o),
(121.79,1694.684,o),
(121.79,1685.401,c),
(121.79,1676.119,o),
(125.477,1667.216,o),
(132.041,1660.653,c),
(138.605,1654.089,o),
(147.507,1650.401,o),
(156.79,1650.401,c),
(166.073,1650.401,o),
(174.975,1654.089,o),
(181.538,1660.653,c),
(188.102,1667.216,o),
(191.79,1676.119,o),
(191.79,1685.401,c)
);
}
);
width = 1200;
},
{
associatedMasterId = m01;
layerId = m004;
shapes = (
{
ref = "alef-ar";
},
{
pos = (-50,895);
ref = _madda;
}
);
width = 432;
},
{
associatedMasterId = m01;
layerId = "A561EA6A-3040-43AB-9FB5-277C6F5C350B";
name = "Pendot Quick Preview";
shapes = (
{
closed = 1;
nodes = (
(237,1380.283,o),
(233.313,1389.185,o),
(226.749,1395.748,c),
(220.185,1402.313,o),
(211.283,1406,o),
(202,1406,c),
(192.717,1406,o),
(183.815,1402.313,o),
(177.251,1395.748,c),
(170.687,1389.185,o),
(167,1380.283,o),
(167,1371,c),
(167,1361.717,o),
(170.687,1352.815,o),
(177.251,1346.252,c),
(183.815,1339.687,o),
(192.717,1336,o),
(202,1336,c),
(211.283,1336,o),
(220.185,1339.687,o),
(226.749,1346.252,c),
(233.313,1352.815,o),
(237,1361.717,o),
(237,1371,c)
);
},
{
closed = 1;
nodes = (
(267,17.283,o),
(263.313,26.185,o),
(256.748,32.748,c),
(250.185,39.313,o),
(241.283,43,o),
(232,43,c),
(222.717,43,o),
(213.815,39.313,o),
(207.251,32.748,c),
(200.687,26.185,o),
(197,17.283,o),
(197,8,c),
(197,-1.283,o),
(200.687,-10.185,o),
(207.251,-16.748,c),
(213.815,-23.313,o),
(222.717,-27,o),
(232,-27,c),
(241.283,-27,o),
(250.185,-23.313,o),
(256.748,-16.748,c),
(263.313,-10.185,o),
(267,-1.283,o),
(267,8,c)
);
},
{
closed = 1;
nodes = (
(435,1675.283,o),
(431.313,1684.185,o),
(424.748,1690.748,c),
(418.185,1697.313,o),
(409.283,1701,o),
(400,1701,c),
(390.717,1701,o),
(381.815,1697.313,o),
(375.252,1690.748,c),
(368.687,1684.185,o),
(365,1675.283,o),
(365,1666,c),
(365,1656.717,o),
(368.687,1647.815,o),
(375.252,1641.252,c),
(381.815,1634.687,o),
(390.717,1631,o),
(400,1631,c),
(409.283,1631,o),
(418.185,1634.687,o),
(424.748,1641.252,c),
(431.313,1647.815,o),
(435,1656.717,o),
(435,1666,c)
);
},
{
closed = 1;
nodes = (
(72,1676.283,o),
(68.313,1685.185,o),
(61.748,1691.748,c),
(55.185,1698.313,o),
(46.283,1702,o),
(37,1702,c),
(27.717,1702,o),
(18.815,1698.313,o),
(12.252,1691.748,c),
(5.687,1685.185,o),
(2,1676.283,o),
(2,1667,c),
(2,1657.717,o),
(5.687,1648.815,o),
(12.252,1642.252,c),
(18.815,1635.687,o),
(27.717,1632,o),
(37,1632,c),
(46.283,1632,o),
(55.185,1635.687,o),
(61.748,1642.252,c),
(68.313,1648.815,o),
(72,1657.717,o),
(72,1667,c)
);
},
{
closed = 1;
nodes = (
(235.249,1266.672,o),
(231.561,1275.575,o),
(224.997,1282.138,c),
(218.434,1288.702,o),
(209.531,1292.39,o),
(200.249,1292.39,c),
(190.966,1292.39,o),
(182.064,1288.702,o),
(175.5,1282.138,c),
(168.936,1275.575,o),
(165.249,1266.672,o),
(165.249,1257.39,c),
(165.249,1248.107,o),
(168.936,1239.205,o),
(175.5,1232.641,c),
(182.064,1226.077,o),
(190.966,1222.39,o),
(200.249,1222.39,c),
(209.531,1222.39,o),
(218.434,1226.077,o),
(224.997,1232.641,c),
(231.561,1239.205,o),
(235.249,1248.107,o),
(235.249,1257.39,c)
);
},
{
closed = 1;
nodes = (
(235.109,1153.048,o),
(231.421,1161.951,o),
(224.857,1168.514,c),
(218.294,1175.078,o),
(209.392,1178.766,o),
(200.109,1178.766,c),
(190.826,1178.766,o),
(181.924,1175.078,o),
(175.36,1168.514,c),
(168.796,1161.951,o),
(165.109,1153.048,o),
(165.109,1143.766,c),
(165.109,1134.483,o),
(168.796,1125.581,o),
(175.36,1119.017,c),
(181.924,1112.453,o),
(190.826,1108.766,o),
(200.109,1108.766,c),
(209.392,1108.766,o),
(218.294,1112.453,o),
(224.857,1119.017,c),
(231.421,1125.581,o),
(235.109,1134.483,o),
(235.109,1143.766,c)
);
},
{
closed = 1;
nodes = (
(236.301,1039.43,o),
(232.614,1048.333,o),
(226.05,1054.896,c),
(219.486,1061.46,o),
(210.584,1065.148,o),
(201.301,1065.148,c),
(192.019,1065.148,o),
(183.117,1061.46,o),
(176.553,1054.896,c),
(169.989,1048.333,o),
(166.301,1039.43,o),
(166.301,1030.148,c),
(166.301,1020.865,o),
(169.989,1011.963,o),
(176.553,1005.399,c),
(183.117,998.835,o),
(192.019,995.148,o),
(201.301,995.148,c),
(210.584,995.148,o),
(219.486,998.835,o),
(226.05,1005.399,c),
(232.614,1011.963,o),
(236.301,1020.865,o),
(236.301,1030.148,c)
);
},
{
closed = 1;
nodes = (
(238.56,925.828,o),
(234.872,934.731,o),
(228.308,941.294,c),
(221.745,947.858,o),
(212.842,951.546,o),
(203.56,951.546,c),
(194.277,951.546,o),
(185.375,947.858,o),
(178.811,941.294,c),
(172.247,934.731,o),
(168.56,925.828,o),
(168.56,916.546,c),
(168.56,907.263,o),
(172.247,898.361,o),
(178.811,891.797,c),
(185.375,885.233,o),
(194.277,881.546,o),
(203.56,881.546,c),
(212.842,881.546,o),
(221.745,885.233,o),
(228.308,891.797,c),
(234.872,898.361,o),
(238.56,907.263,o),
(238.56,916.546,c)
);
},
{
closed = 1;
nodes = (
(241.626,812.245,o),
(237.939,821.147,o),
(231.375,827.711,c),
(224.811,834.275,o),
(215.909,837.962,o),
(206.626,837.962,c),
(197.344,837.962,o),
(188.441,834.275,o),
(181.878,827.711,c),
(175.314,821.147,o),
(171.626,812.245,o),
(171.626,802.962,c),
(171.626,793.68,o),
(175.314,784.777,o),
(181.878,778.214,c),
(188.441,771.65,o),
(197.344,767.962,o),
(206.626,767.962,c),
(215.909,767.962,o),
(224.811,771.65,o),
(231.375,778.214,c),
(237.939,784.777,o),
(241.626,793.68,o),
(241.626,802.962,c)
);
},
{
closed = 1;
nodes = (
(245.257,698.678,o),
(241.57,707.58,o),
(235.006,714.144,c),
(228.442,720.708,o),
(219.54,724.396,o),
(210.257,724.396,c),
(200.974,724.396,o),
(192.072,720.708,o),
(185.509,714.144,c),
(178.945,707.58,o),
(175.257,698.678,o),
(175.257,689.396,c),
(175.257,680.113,o),
(178.945,671.211,o),
(185.509,664.647,c),
(192.072,658.083,o),
(200.974,654.396,o),
(210.257,654.396,c),
(219.54,654.396,o),
(228.442,658.083,o),
(235.006,664.647,c),
(241.57,671.211,o),
(245.257,680.113,o),
(245.257,689.396,c)
);
},
{
closed = 1;
nodes = (
(249.222,585.122,o),
(245.534,594.025,o),
(238.97,600.588,c),
(232.407,607.152,o),
(223.504,610.84,o),
(214.222,610.84,c),
(204.939,610.84,o),
(196.037,607.152,o),
(189.473,600.588,c),
(182.909,594.025,o),
(179.222,585.122,o),
(179.222,575.84,c),
(179.222,566.557,o),
(182.909,557.655,o),
(189.473,551.091,c),
(196.037,544.527,o),
(204.939,540.84,o),
(214.222,540.84,c),
(223.504,540.84,o),
(232.407,544.527,o),
(238.97,551.091,c),
(245.534,557.655,o),
(249.222,566.557,o),
(249.222,575.84,c)
);
},
{
closed = 1;
nodes = (
(253.305,471.571,o),
(249.618,480.473,o),
(243.054,487.037,c),
(236.49,493.601,o),
(227.588,497.288,o),
(218.305,497.288,c),
(209.023,497.288,o),
(200.12,493.601,o),
(193.557,487.037,c),
(186.993,480.473,o),
(183.305,471.571,o),
(183.305,462.288,c),
(183.305,453.006,o),
(186.993,444.103,o),
(193.557,437.54,c),
(200.12,430.976,o),
(209.023,427.288,o),
(218.305,427.288,c),
(227.588,427.288,o),
(236.49,430.976,o),
(243.054,437.54,c),
(249.618,444.103,o),
(253.305,453.006,o),
(253.305,462.288,c)
);
},
{
closed = 1;
nodes = (
(257.305,358.017,o),
(253.618,366.919,o),
(247.054,373.482,c),
(240.49,380.046,o),
(231.588,383.734,o),
(222.305,383.734,c),
(213.023,383.734,o),
(204.12,380.046,o),
(197.557,373.482,c),
(190.993,366.919,o),
(187.305,358.017,o),
(187.305,348.734,c),
(187.305,339.451,o),
(190.993,330.549,o),
(197.557,323.985,c),
(204.12,317.421,o),
(213.023,313.734,o),
(222.305,313.734,c),
(231.588,313.734,o),
(240.49,317.421,o),
(247.054,323.985,c),
(253.618,330.549,o),
(257.305,339.451,o),
(257.305,348.734,c)
);
},
{
closed = 1;
nodes = (
(261.034,244.453,o),
(257.347,253.355,o),
(250.783,259.919,c),
(244.219,266.483,o),
(235.317,270.17,o),
(226.034,270.17,c),
(216.752,270.17,o),
(207.849,266.483,o),
(201.286,259.919,c),
(194.722,253.355,o),
(191.034,244.453,o),
(191.034,235.17,c),
(191.034,225.888,o),
(194.722,216.985,o),
(201.286,210.422,c),
(207.849,203.858,o),
(216.752,200.17,o),
(226.034,200.17,c),
(235.317,200.17,o),
(244.219,203.858,o),
(250.783,210.422,c),
(257.347,216.985,o),
(261.034,225.888,o),
(261.034,235.17,c)
);
},
{
closed = 1;
nodes = (
(264.319,130.876,o),
(260.631,139.778,o),
(254.067,146.342,c),
(247.504,152.906,o),
(238.602,156.593,o),
(229.319,156.593,c),
(220.036,156.593,o),
(211.134,152.906,o),
(204.57,146.342,c),
(198.006,139.778,o),
(194.319,130.876,o),
(194.319,121.593,c),
(194.319,112.311,o),
(198.006,103.408,o),
(204.57,96.845,c),
(211.134,90.281,o),
(220.036,86.593,o),
(229.319,86.593,c),
(238.602,86.593,o),
(247.504,90.281,o),
(254.067,96.845,c),
(260.631,103.408,o),
(264.319,112.311,o),
(264.319,121.593,c)
);
},
{
closed = 1;
nodes = (
(312.393,1664.808,o),
(308.705,1673.71,o),
(302.141,1680.274,c),
(295.577,1686.838,o),
(286.675,1690.525,o),
(277.393,1690.525,c),
(268.11,1690.525,o),
(259.208,1686.838,o),
(252.644,1680.274,c),
(246.08,1673.71,o),
(242.393,1664.808,o),
(242.393,1655.525,c),
(242.393,1646.243,o),
(246.08,1637.34,o),
(252.644,1630.777,c),
(259.208,1624.213,o),
(268.11,1620.525,o),
(277.393,1620.525,c),
(286.675,1620.525,o),
(295.577,1624.213,o),
(302.141,1630.777,c),
(308.705,1637.34,o),
(312.393,1646.243,o),
(312.393,1655.525,c)
);
},
{
closed = 1;
nodes = (
(191.79,1694.684,o),
(188.102,1703.586,o),
(181.538,1710.15,c),
(174.975,1716.714,o),
(166.073,1720.401,o),
(156.79,1720.401,c),
(147.507,1720.401,o),
(138.605,1716.714,o),
(132.041,1710.15,c),
(125.477,1703.586,o),
(121.79,1694.684,o),
(121.79,1685.401,c),
(121.79,1676.119,o),
(125.477,1667.216,o),
(132.041,1660.653,c),
(138.605,1654.089,o),
(147.507,1650.401,o),
(156.79,1650.401,c),
(166.073,1650.401,o),
(174.975,1654.089,o),
(181.538,1660.653,c),
(188.102,1667.216,o),
(191.79,1676.119,o),
(191.79,1685.401,c)
);
}
);
width = 1200;
},
{
associatedMasterId = m003;
layerId = "0D5055AB-4694-4D58-B4A1-ECCD7EDA9EFD";
name = "Pendot Quick Preview";
shapes = (
{
closed = 1;
nodes = (
(237,1380.283,o),
(233.313,1389.185,o),
(226.749,1395.748,c),
(220.185,1402.313,o),
(211.283,1406,o),
(202,1406,c),
(192.717,1406,o),
(183.815,1402.313,o),
(177.251,1395.748,c),
(170.687,1389.185,o),
(167,1380.283,o),
(167,1371,c),
(167,1361.717,o),
(170.687,1352.815,o),
(177.251,1346.252,c),
(183.815,1339.687,o),
(192.717,1336,o),
(202,1336,c),
(211.283,1336,o),
(220.185,1339.687,o),
(226.749,1346.252,c),
(233.313,1352.815,o),
(237,1361.717,o),
(237,1371,c)
);
},
{
closed = 1;
nodes = (
(267,17.283,o),
(263.313,26.185,o),
(256.748,32.748,c),
(250.185,39.313,o),
(241.283,43,o),
(232,43,c),
(222.717,43,o),
(213.815,39.313,o),
(207.251,32.748,c),
(200.687,26.185,o),
(197,17.283,o),
(197,8,c),
(197,-1.283,o),
(200.687,-10.185,o),
(207.251,-16.748,c),
(213.815,-23.313,o),
(222.717,-27,o),
(232,-27,c),
(241.283,-27,o),
(250.185,-23.313,o),
(256.748,-16.748,c),
(263.313,-10.185,o),
(267,-1.283,o),
(267,8,c)
);
},
{
closed = 1;
nodes = (
(435,1675.283,o),
(431.313,1684.185,o),
(424.748,1690.748,c),
(418.185,1697.313,o),
(409.283,1701,o),
(400,1701,c),
(390.717,1701,o),
(381.815,1697.313,o),
(375.252,1690.748,c),
(368.687,1684.185,o),
(365,1675.283,o),
(365,1666,c),
(365,1656.717,o),
(368.687,1647.815,o),
(375.252,1641.252,c),
(381.815,1634.687,o),
(390.717,1631,o),
(400,1631,c),
(409.283,1631,o),
(418.185,1634.687,o),
(424.748,1641.252,c),
(431.313,1647.815,o),
(435,1656.717,o),
(435,1666,c)
);
},
{
closed = 1;
nodes = (
(72,1676.283,o),
(68.313,1685.185,o),
(61.748,1691.748,c),
(55.185,1698.313,o),
(46.283,1702,o),
(37,1702,c),
(27.717,1702,o),
(18.815,1698.313,o),
(12.252,1691.748,c),
(5.687,1685.185,o),
(2,1676.283,o),
(2,1667,c),
(2,1657.717,o),
(5.687,1648.815,o),
(12.252,1642.252,c),
(18.815,1635.687,o),
(27.717,1632,o),
(37,1632,c),
(46.283,1632,o),
(55.185,1635.687,o),
(61.748,1642.252,c),
(68.313,1648.815,o),
(72,1657.717,o),
(72,1667,c)
);
},
{
closed = 1;
nodes = (
(235.249,1266.672,o),
(231.561,1275.575,o),
(224.997,1282.138,c),
(218.434,1288.702,o),
(209.531,1292.39,o),
(200.249,1292.39,c),
(190.966,1292.39,o),
(182.064,1288.702,o),
(175.5,1282.138,c),
(168.936,1275.575,o),
(165.249,1266.672,o),
(165.249,1257.39,c),
(165.249,1248.107,o),
(168.936,1239.205,o),
(175.5,1232.641,c),
(182.064,1226.077,o),
(190.966,1222.39,o),
(200.249,1222.39,c),
(209.531,1222.39,o),
(218.434,1226.077,o),
(224.997,1232.641,c),
(231.561,1239.205,o),
(235.249,1248.107,o),
(235.249,1257.39,c)
);
},
{
closed = 1;
nodes = (
(235.109,1153.048,o),
(231.421,1161.951,o),
(224.857,1168.514,c),
(218.294,1175.078,o),
(209.392,1178.766,o),
(200.109,1178.766,c),
(190.826,1178.766,o),
(181.924,1175.078,o),
(175.36,1168.514,c),
(168.796,1161.951,o),
(165.109,1153.048,o),
(165.109,1143.766,c),
(165.109,1134.483,o),
(168.796,1125.581,o),
(175.36,1119.017,c),
(181.924,1112.453,o),
(190.826,1108.766,o),
(200.109,1108.766,c),
(209.392,1108.766,o),
(218.294,1112.453,o),
(224.857,1119.017,c),
(231.421,1125.581,o),
(235.109,1134.483,o),
(235.109,1143.766,c)
);
},
{
closed = 1;
nodes = (
(236.301,1039.43,o),
(232.614,1048.333,o),
(226.05,1054.896,c),
(219.486,1061.46,o),
(210.584,1065.148,o),
(201.301,1065.148,c),
(192.019,1065.148,o),
(183.117,1061.46,o),
(176.553,1054.896,c),
(169.989,1048.333,o),
(166.301,1039.43,o),
(166.301,1030.148,c),
(166.301,1020.865,o),
(169.989,1011.963,o),
(176.553,1005.399,c),
(183.117,998.835,o),
(192.019,995.148,o),
(201.301,995.148,c),
(210.584,995.148,o),
(219.486,998.835,o),
(226.05,1005.399,c),
(232.614,1011.963,o),
(236.301,1020.865,o),
(236.301,1030.148,c)
);
},
{
closed = 1;
nodes = (
(238.56,925.828,o),
(234.872,934.731,o),
(228.308,941.294,c),
(221.745,947.858,o),
(212.842,951.546,o),
(203.56,951.546,c),
(194.277,951.546,o),
(185.375,947.858,o),
(178.811,941.294,c),
(172.247,934.731,o),
(168.56,925.828,o),
(168.56,916.546,c),
(168.56,907.263,o),
(172.247,898.361,o),
(178.811,891.797,c),
(185.375,885.233,o),
(194.277,881.546,o),
(203.56,881.546,c),
(212.842,881.546,o),
(221.745,885.233,o),
(228.308,891.797,c),
(234.872,898.361,o),
(238.56,907.263,o),
(238.56,916.546,c)
);
},
{
closed = 1;
nodes = (
(241.626,812.245,o),
(237.939,821.147,o),
(231.375,827.711,c),
(224.811,834.275,o),
(215.909,837.962,o),
(206.626,837.962,c),
(197.344,837.962,o),
(188.441,834.275,o),
(181.878,827.711,c),
(175.314,821.147,o),
(171.626,812.245,o),
(171.626,802.962,c),
(171.626,793.68,o),
(175.314,784.777,o),
(181.878,778.214,c),
(188.441,771.65,o),
(197.344,767.962,o),
(206.626,767.962,c),
(215.909,767.962,o),
(224.811,771.65,o),
(231.375,778.214,c),
(237.939,784.777,o),
(241.626,793.68,o),
(241.626,802.962,c)
);
},
{
closed = 1;
nodes = (
(245.257,698.678,o),
(241.57,707.58,o),
(235.006,714.144,c),
(228.442,720.708,o),
(219.54,724.396,o),
(210.257,724.396,c),
(200.974,724.396,o),
(192.072,720.708,o),
(185.509,714.144,c),
(178.945,707.58,o),
(175.257,698.678,o),
(175.257,689.396,c),
(175.257,680.113,o),
(178.945,671.211,o),
(185.509,664.647,c),
(192.072,658.083,o),
(200.974,654.396,o),
(210.257,654.396,c),
(219.54,654.396,o),
(228.442,658.083,o),
(235.006,664.647,c),
(241.57,671.211,o),
(245.257,680.113,o),
(245.257,689.396,c)
);
},
{
closed = 1;
nodes = (
(249.222,585.122,o),
(245.534,594.025,o),
(238.97,600.588,c),
(232.407,607.152,o),
(223.504,610.84,o),
(214.222,610.84,c),
(204.939,610.84,o),
(196.037,607.152,o),
(189.473,600.588,c),
(182.909,594.025,o),
(179.222,585.122,o),
(179.222,575.84,c),
(179.222,566.557,o),
(182.909,557.655,o),
(189.473,551.091,c),
(196.037,544.527,o),
(204.939,540.84,o),
(214.222,540.84,c),
(223.504,540.84,o),
(232.407,544.527,o),
(238.97,551.091,c),
(245.534,557.655,o),
(249.222,566.557,o),
(249.222,575.84,c)
);
},
{
closed = 1;
nodes = (
(253.305,471.571,o),
(249.618,480.473,o),
(243.054,487.037,c),
(236.49,493.601,o),
(227.588,497.288,o),
(218.305,497.288,c),
(209.023,497.288,o),
(200.12,493.601,o),
(193.557,487.037,c),
(186.993,480.473,o),
(183.305,471.571,o),
(183.305,462.288,c),
(183.305,453.006,o),
(186.993,444.103,o),
(193.557,437.54,c),
(200.12,430.976,o),
(209.023,427.288,o),
(218.305,427.288,c),
(227.588,427.288,o),
(236.49,430.976,o),
(243.054,437.54,c),
(249.618,444.103,o),
(253.305,453.006,o),
(253.305,462.288,c)
);
},
{
closed = 1;
nodes = (
(257.305,358.017,o),
(253.618,366.919,o),
(247.054,373.482,c),
(240.49,380.046,o),
(231.588,383.734,o),
(222.305,383.734,c),
(213.023,383.734,o),
(204.12,380.046,o),
(197.557,373.482,c),
(190.993,366.919,o),
(187.305,358.017,o),
(187.305,348.734,c),
(187.305,339.451,o),
(190.993,330.549,o),
(197.557,323.985,c),
(204.12,317.421,o),
(213.023,313.734,o),
(222.305,313.734,c),
(231.588,313.734,o),
(240.49,317.421,o),
(247.054,323.985,c),
(253.618,330.549,o),
(257.305,339.451,o),
(257.305,348.734,c)
);
},
{
closed = 1;
nodes = (
(261.034,244.453,o),
(257.347,253.355,o),
(250.783,259.919,c),
(244.219,266.483,o),
(235.317,270.17,o),
(226.034,270.17,c),
(216.752,270.17,o),
(207.849,266.483,o),
(201.286,259.919,c),
(194.722,253.355,o),
(191.034,244.453,o),
(191.034,235.17,c),
(191.034,225.888,o),
(194.722,216.985,o),
(201.286,210.422,c),
(207.849,203.858,o),
(216.752,200.17,o),
(226.034,200.17,c),
(235.317,200.17,o),
(244.219,203.858,o),
(250.783,210.422,c),
(257.347,216.985,o),
(261.034,225.888,o),
(261.034,235.17,c)
);
},
{
closed = 1;
nodes = (
(264.319,130.876,o),
(260.631,139.778,o),
(254.067,146.342,c),
(247.504,152.906,o),
(238.602,156.593,o),
(229.319,156.593,c),
(220.036,156.593,o),
(211.134,152.906,o),
(204.57,146.342,c),
(198.006,139.778,o),
(194.319,130.876,o),
(194.319,121.593,c),
(194.319,112.311,o),
(198.006,103.408,o),
(204.57,96.845,c),
(211.134,90.281,o),
(220.036,86.593,o),
(229.319,86.593,c),
(238.602,86.593,o),
(247.504,90.281,o),
(254.067,96.845,c),
(260.631,103.408,o),
(264.319,112.311,o),
(264.319,121.593,c)
);
},
{
closed = 1;
nodes = (
(312.393,1664.808,o),
(308.705,1673.71,o),
(302.141,1680.274,c),
(295.577,1686.838,o),
(286.675,1690.525,o),
(277.393,1690.525,c),
(268.11,1690.525,o),
(259.208,1686.838,o),
(252.644,1680.274,c),
(246.08,1673.71,o),
(242.393,1664.808,o),
(242.393,1655.525,c),
(242.393,1646.243,o),
(246.08,1637.34,o),
(252.644,1630.777,c),
(259.208,1624.213,o),
(268.11,1620.525,o),
(277.393,1620.525,c),
(286.675,1620.525,o),
(295.577,1624.213,o),
(302.141,1630.777,c),
(308.705,1637.34,o),
(312.393,1646.243,o),
(312.393,1655.525,c)
);
},
{
closed = 1;
nodes = (
(191.79,1694.684,o),
(188.102,1703.586,o),
(181.538,1710.15,c),
(174.975,1716.714,o),
(166.073,1720.401,o),
(156.79,1720.401,c),
(147.507,1720.401,o),
(138.605,1716.714,o),
(132.041,1710.15,c),
(125.477,1703.586,o),
(121.79,1694.684,o),
(121.79,1685.401,c),
(121.79,1676.119,o),
(125.477,1667.216,o),
(132.041,1660.653,c),
(138.605,1654.089,o),
(147.507,1650.401,o),
(156.79,1650.401,c),
(166.073,1650.401,o),
(174.975,1654.089,o),
(181.538,1660.653,c),
(188.102,1667.216,o),
(191.79,1676.119,o),
(191.79,1685.401,c)
);
}
);
width = 1200;
},
{
associatedMasterId = m003;
layerId = "F77BB3F7-19ED-45B9-8BBC-6767E88DCDB1";
shapes = (
{
ref = "alef-ar";
},
{
pos = (-50,895);
ref = _madda;
}
);
width = 432;
},
{
associatedMasterId = m003;
layerId = "98E0F0BF-A07D-49E7-86A1-6F00C46984FB";
name = "Pendot Quick Preview";
shapes = (
{
closed = 1;
nodes = (
(237,1380.283,o),
(233.313,1389.185,o),
(226.749,1395.748,c),
(220.185,1402.313,o),
(211.283,1406,o),
(202,1406,c),
(192.717,1406,o),
(183.815,1402.313,o),
(177.251,1395.748,c),
(170.687,1389.185,o),
(167,1380.283,o),
(167,1371,c),
(167,1361.717,o),
(170.687,1352.815,o),
(177.251,1346.252,c),
(183.815,1339.687,o),
(192.717,1336,o),
(202,1336,c),
(211.283,1336,o),
(220.185,1339.687,o),
(226.749,1346.252,c),
(233.313,1352.815,o),
(237,1361.717,o),
(237,1371,c)
);
},
{
closed = 1;
nodes = (
(267,17.283,o),
(263.313,26.185,o),
(256.748,32.748,c),
(250.185,39.313,o),
(241.283,43,o),
(232,43,c),
(222.717,43,o),
(213.815,39.313,o),
(207.251,32.748,c),
(200.687,26.185,o),
(197,17.283,o),
(197,8,c),
(197,-1.283,o),
(200.687,-10.185,o),
(207.251,-16.748,c),
(213.815,-23.313,o),
(222.717,-27,o),
(232,-27,c),
(241.283,-27,o),
(250.185,-23.313,o),
(256.748,-16.748,c),
(263.313,-10.185,o),
(267,-1.283,o),
(267,8,c)
);
},
{
closed = 1;
nodes = (
(435,1675.283,o),
(431.313,1684.185,o),
(424.748,1690.748,c),
(418.185,1697.313,o),
(409.283,1701,o),
(400,1701,c),
(390.717,1701,o),
(381.815,1697.313,o),
(375.252,1690.748,c),
(368.687,1684.185,o),
(365,1675.283,o),
(365,1666,c),
(365,1656.717,o),
(368.687,1647.815,o),
(375.252,1641.252,c),
(381.815,1634.687,o),
(390.717,1631,o),
(400,1631,c),
(409.283,1631,o),
(418.185,1634.687,o),
(424.748,1641.252,c),
(431.313,1647.815,o),
(435,1656.717,o),
(435,1666,c)
);
},
{
closed = 1;
nodes = (
(72,1676.283,o),
(68.313,1685.185,o),
(61.748,1691.748,c),
(55.185,1698.313,o),
(46.283,1702,o),
(37,1702,c),
(27.717,1702,o),
(18.815,1698.313,o),
(12.252,1691.748,c),
(5.687,1685.185,o),
(2,1676.283,o),
(2,1667,c),
(2,1657.717,o),
(5.687,1648.815,o),
(12.252,1642.252,c),
(18.815,1635.687,o),
(27.717,1632,o),
(37,1632,c),
(46.283,1632,o),
(55.185,1635.687,o),
(61.748,1642.252,c),
(68.313,1648.815,o),
(72,1657.717,o),
(72,1667,c)
);
},
{
closed = 1;
nodes = (
(235.249,1266.672,o),
(231.561,1275.575,o),
(224.997,1282.138,c),
(218.434,1288.702,o),
(209.531,1292.39,o),
(200.249,1292.39,c),
(190.966,1292.39,o),
(182.064,1288.702,o),
(175.5,1282.138,c),
(168.936,1275.575,o),
(165.249,1266.672,o),
(165.249,1257.39,c),
(165.249,1248.107,o),
(168.936,1239.205,o),
(175.5,1232.641,c),
(182.064,1226.077,o),
(190.966,1222.39,o),
(200.249,1222.39,c),
(209.531,1222.39,o),
(218.434,1226.077,o),
(224.997,1232.641,c),
(231.561,1239.205,o),
(235.249,1248.107,o),
(235.249,1257.39,c)
);
},
{
closed = 1;
nodes = (
(235.109,1153.048,o),
(231.421,1161.951,o),
(224.857,1168.514,c),
(218.294,1175.078,o),
(209.392,1178.766,o),
(200.109,1178.766,c),
(190.826,1178.766,o),
(181.924,1175.078,o),
(175.36,1168.514,c),
(168.796,1161.951,o),
(165.109,1153.048,o),
(165.109,1143.766,c),
(165.109,1134.483,o),
(168.796,1125.581,o),
(175.36,1119.017,c),
(181.924,1112.453,o),
(190.826,1108.766,o),
(200.109,1108.766,c),
(209.392,1108.766,o),
(218.294,1112.453,o),
(224.857,1119.017,c),
(231.421,1125.581,o),
(235.109,1134.483,o),
(235.109,1143.766,c)
);
},
{
closed = 1;
nodes = (
(236.301,1039.43,o),
(232.614,1048.333,o),
(226.05,1054.896,c),
(219.486,1061.46,o),
(210.584,1065.148,o),
(201.301,1065.148,c),
(192.019,1065.148,o),
(183.117,1061.46,o),
(176.553,1054.896,c),
(169.989,1048.333,o),
(166.301,1039.43,o),
(166.301,1030.148,c),
(166.301,1020.865,o),
(169.989,1011.963,o),
(176.553,1005.399,c),
(183.117,998.835,o),
(192.019,995.148,o),
(201.301,995.148,c),
(210.584,995.148,o),
(219.486,998.835,o),
(226.05,1005.399,c),
(232.614,1011.963,o),
(236.301,1020.865,o),
(236.301,1030.148,c)
);
},
{
closed = 1;
nodes = (
(238.56,925.828,o),
(234.872,934.731,o),
(228.308,941.294,c),
(221.745,947.858,o),
(212.842,951.546,o),
(203.56,951.546,c),
(194.277,951.546,o),
(185.375,947.858,o),
(178.811,941.294,c),
(172.247,934.731,o),
(168.56,925.828,o),
(168.56,916.546,c),
(168.56,907.263,o),
(172.247,898.361,o),
(178.811,891.797,c),
(185.375,885.233,o),
(194.277,881.546,o),
(203.56,881.546,c),
(212.842,881.546,o),
(221.745,885.233,o),
(228.308,891.797,c),
(234.872,898.361,o),
(238.56,907.263,o),
(238.56,916.546,c)
);
},
{
closed = 1;
nodes = (
(241.626,812.245,o),
(237.939,821.147,o),
(231.375,827.711,c),
(224.811,834.275,o),
(215.909,837.962,o),
(206.626,837.962,c),
(197.344,837.962,o),
(188.441,834.275,o),
(181.878,827.711,c),
(175.314,821.147,o),
(171.626,812.245,o),
(171.626,802.962,c),
(171.626,793.68,o),
(175.314,784.777,o),
(181.878,778.214,c),
(188.441,771.65,o),
(197.344,767.962,o),
(206.626,767.962,c),
(215.909,767.962,o),
(224.811,771.65,o),
(231.375,778.214,c),
(237.939,784.777,o),
(241.626,793.68,o),
(241.626,802.962,c)
);
},
{
closed = 1;
nodes = (
(245.257,698.678,o),
(241.57,707.58,o),
(235.006,714.144,c),
(228.442,720.708,o),
(219.54,724.396,o),
(210.257,724.396,c),
(200.974,724.396,o),
(192.072,720.708,o),
(185.509,714.144,c),
(178.945,707.58,o),
(175.257,698.678,o),
(175.257,689.396,c),
(175.257,680.113,o),
(178.945,671.211,o),
(185.509,664.647,c),
(192.072,658.083,o),
(200.974,654.396,o),
(210.257,654.396,c),
(219.54,654.396,o),
(228.442,658.083,o),
(235.006,664.647,c),
(241.57,671.211,o),
(245.257,680.113,o),
(245.257,689.396,c)
);
},
{
closed = 1;
nodes = (
(249.222,585.122,o),
(245.534,594.025,o),
(238.97,600.588,c),
(232.407,607.152,o),
(223.504,610.84,o),
(214.222,610.84,c),
(204.939,610.84,o),
(196.037,607.152,o),
(189.473,600.588,c),
(182.909,594.025,o),
(179.222,585.122,o),
(179.222,575.84,c),
(179.222,566.557,o),
(182.909,557.655,o),
(189.473,551.091,c),
(196.037,544.527,o),
(204.939,540.84,o),
(214.222,540.84,c),
(223.504,540.84,o),
(232.407,544.527,o),
(238.97,551.091,c),
(245.534,557.655,o),
(249.222,566.557,o),
(249.222,575.84,c)
);
},
{
closed = 1;
nodes = (
(253.305,471.571,o),
(249.618,480.473,o),
(243.054,487.037,c),
(236.49,493.601,o),
(227.588,497.288,o),
(218.305,497.288,c),
(209.023,497.288,o),
(200.12,493.601,o),
(193.557,487.037,c),
(186.993,480.473,o),
(183.305,471.571,o),
(183.305,462.288,c),
(183.305,453.006,o),
(186.993,444.103,o),
(193.557,437.54,c),
(200.12,430.976,o),
(209.023,427.288,o),
(218.305,427.288,c),
(227.588,427.288,o),
(236.49,430.976,o),
(243.054,437.54,c),
(249.618,444.103,o),
(253.305,453.006,o),
(253.305,462.288,c)
);
},
{
closed = 1;
nodes = (
(257.305,358.017,o),
(253.618,366.919,o),
(247.054,373.482,c),
(240.49,380.046,o),
(231.588,383.734,o),
(222.305,383.734,c),
(213.023,383.734,o),
(204.12,380.046,o),
(197.557,373.482,c),
(190.993,366.919,o),
(187.305,358.017,o),
(187.305,348.734,c),
(187.305,339.451,o),
(190.993,330.549,o),
(197.557,323.985,c),
(204.12,317.421,o),
(213.023,313.734,o),
(222.305,313.734,c),
(231.588,313.734,o),
(240.49,317.421,o),
(247.054,323.985,c),
(253.618,330.549,o),
(257.305,339.451,o),
(257.305,348.734,c)
);
},
{
closed = 1;
nodes = (
(261.034,244.453,o),
(257.347,253.355,o),
(250.783,259.919,c),
(244.219,266.483,o),
(235.317,270.17,o),
(226.034,270.17,c),
(216.752,270.17,o),
(207.849,266.483,o),
(201.286,259.919,c),
(194.722,253.355,o),
(191.034,244.453,o),
(191.034,235.17,c),
(191.034,225.888,o),
(194.722,216.985,o),
(201.286,210.422,c),
(207.849,203.858,o),
(216.752,200.17,o),
(226.034,200.17,c),
(235.317,200.17,o),
(244.219,203.858,o),
(250.783,210.422,c),
(257.347,216.985,o),
(261.034,225.888,o),
(261.034,235.17,c)
);
},
{
closed = 1;
nodes = (
(264.319,130.876,o),
(260.631,139.778,o),
(254.067,146.342,c),
(247.504,152.906,o),
(238.602,156.593,o),
(229.319,156.593,c),
(220.036,156.593,o),
(211.134,152.906,o),
(204.57,146.342,c),
(198.006,139.778,o),
(194.319,130.876,o),
(194.319,121.593,c),
(194.319,112.311,o),
(198.006,103.408,o),
(204.57,96.845,c),
(211.134,90.281,o),
(220.036,86.593,o),
(229.319,86.593,c),
(238.602,86.593,o),
(247.504,90.281,o),
(254.067,96.845,c),
(260.631,103.408,o),
(264.319,112.311,o),
(264.319,121.593,c)
);
},
{
closed = 1;
nodes = (
(312.393,1664.808,o),
(308.705,1673.71,o),
(302.141,1680.274,c),
(295.577,1686.838,o),
(286.675,1690.525,o),
(277.393,1690.525,c),
(268.11,1690.525,o),
(259.208,1686.838,o),
(252.644,1680.274,c),
(246.08,1673.71,o),
(242.393,1664.808,o),
(242.393,1655.525,c),
(242.393,1646.243,o),
(246.08,1637.34,o),
(252.644,1630.777,c),
(259.208,1624.213,o),
(268.11,1620.525,o),
(277.393,1620.525,c),
(286.675,1620.525,o),
(295.577,1624.213,o),
(302.141,1630.777,c),
(308.705,1637.34,o),
(312.393,1646.243,o),
(312.393,1655.525,c)
);
},
{
closed = 1;
nodes = (
(191.79,1694.684,o),
(188.102,1703.586,o),
(181.538,1710.15,c),
(174.975,1716.714,o),
(166.073,1720.401,o),
(156.79,1720.401,c),
(147.507,1720.401,o),
(138.605,1716.714,o),
(132.041,1710.15,c),
(125.477,1703.586,o),
(121.79,1694.684,o),
(121.79,1685.401,c),
(121.79,1676.119,o),
(125.477,1667.216,o),
(132.041,1660.653,c),
(138.605,1654.089,o),
(147.507,1650.401,o),
(156.79,1650.401,c),
(166.073,1650.401,o),
(174.975,1654.089,o),
(181.538,1660.653,c),
(188.102,1667.216,o),
(191.79,1676.119,o),
(191.79,1685.401,c)
);
}
);
width = 1200;
},
{
associatedMasterId = m003;
layerId = "A70E18F1-F50D-4EC3-93F5-5B435F1A3FE9";
shapes = (
{
ref = "alef-ar";
},
{
pos = (-50,895);
ref = _madda;
}
);
width = 432;
},
{
associatedMasterId = m003;
layerId = "844CDD3D-6D92-4F38-B491-A6E68A31F0F6";
name = "Pendot Quick Preview";
shapes = (
{
closed = 1;
nodes = (
(237,1380.283,o),
(233.313,1389.185,o),
(226.749,1395.748,c),
(220.185,1402.313,o),
(211.283,1406,o),
(202,1406,c),
(192.717,1406,o),
(183.815,1402.313,o),
(177.251,1395.748,c),
(170.687,1389.185,o),
(167,1380.283,o),
(167,1371,c),
(167,1361.717,o),
(170.687,1352.815,o),
(177.251,1346.252,c),
(183.815,1339.687,o),
(192.717,1336,o),
(202,1336,c),
(211.283,1336,o),
(220.185,1339.687,o),
(226.749,1346.252,c),
(233.313,1352.815,o),
(237,1361.717,o),
(237,1371,c)
);
},
{
closed = 1;
nodes = (
(267,17.283,o),
(263.313,26.185,o),
(256.748,32.748,c),
(250.185,39.313,o),
(241.283,43,o),
(232,43,c),
(222.717,43,o),
(213.815,39.313,o),
(207.251,32.748,c),
(200.687,26.185,o),
(197,17.283,o),
(197,8,c),
(197,-1.283,o),
(200.687,-10.185,o),
(207.251,-16.748,c),
(213.815,-23.313,o),
(222.717,-27,o),
(232,-27,c),
(241.283,-27,o),
(250.185,-23.313,o),
(256.748,-16.748,c),
(263.313,-10.185,o),
(267,-1.283,o),
(267,8,c)
);
},
{
closed = 1;
nodes = (
(435,1675.283,o),
(431.313,1684.185,o),
(424.748,1690.748,c),
(418.185,1697.313,o),
(409.283,1701,o),
(400,1701,c),
(390.717,1701,o),
(381.815,1697.313,o),
(375.252,1690.748,c),
(368.687,1684.185,o),
(365,1675.283,o),
(365,1666,c),
(365,1656.717,o),
(368.687,1647.815,o),
(375.252,1641.252,c),
(381.815,1634.687,o),
(390.717,1631,o),
(400,1631,c),
(409.283,1631,o),
(418.185,1634.687,o),
(424.748,1641.252,c),
(431.313,1647.815,o),
(435,1656.717,o),
(435,1666,c)
);
},
{
closed = 1;
nodes = (
(72,1676.283,o),
(68.313,1685.185,o),
(61.748,1691.748,c),
(55.185,1698.313,o),
(46.283,1702,o),
(37,1702,c),
(27.717,1702,o),
(18.815,1698.313,o),
(12.252,1691.748,c),
(5.687,1685.185,o),
(2,1676.283,o),
(2,1667,c),
(2,1657.717,o),
(5.687,1648.815,o),
(12.252,1642.252,c),
(18.815,1635.687,o),
(27.717,1632,o),
(37,1632,c),
(46.283,1632,o),
(55.185,1635.687,o),
(61.748,1642.252,c),
(68.313,1648.815,o),
(72,1657.717,o),
(72,1667,c)
);
},
{
closed = 1;
nodes = (
(235.249,1266.672,o),
(231.561,1275.575,o),
(224.997,1282.138,c),
(218.434,1288.702,o),
(209.531,1292.39,o),
(200.249,1292.39,c),
(190.966,1292.39,o),
(182.064,1288.702,o),
(175.5,1282.138,c),
(168.936,1275.575,o),
(165.249,1266.672,o),
(165.249,1257.39,c),
(165.249,1248.107,o),
(168.936,1239.205,o),
(175.5,1232.641,c),
(182.064,1226.077,o),
(190.966,1222.39,o),
(200.249,1222.39,c),
(209.531,1222.39,o),
(218.434,1226.077,o),
(224.997,1232.641,c),
(231.561,1239.205,o),
(235.249,1248.107,o),
(235.249,1257.39,c)
);
},
{
closed = 1;
nodes = (
(235.109,1153.048,o),
(231.421,1161.951,o),
(224.857,1168.514,c),
(218.294,1175.078,o),
(209.392,1178.766,o),
(200.109,1178.766,c),
(190.826,1178.766,o),
(181.924,1175.078,o),
(175.36,1168.514,c),
(168.796,1161.951,o),
(165.109,1153.048,o),
(165.109,1143.766,c),
(165.109,1134.483,o),
(168.796,1125.581,o),
(175.36,1119.017,c),
(181.924,1112.453,o),
(190.826,1108.766,o),
(200.109,1108.766,c),
(209.392,1108.766,o),
(218.294,1112.453,o),
(224.857,1119.017,c),
(231.421,1125.581,o),
(235.109,1134.483,o),
(235.109,1143.766,c)
);
},
{
closed = 1;
nodes = (
(236.301,1039.43,o),
(232.614,1048.333,o),
(226.05,1054.896,c),
(219.486,1061.46,o),
(210.584,1065.148,o),
(201.301,1065.148,c),
(192.019,1065.148,o),
(183.117,1061.46,o),
(176.553,1054.896,c),
(169.989,1048.333,o),
(166.301,1039.43,o),
(166.301,1030.148,c),
(166.301,1020.865,o),
(169.989,1011.963,o),
(176.553,1005.399,c),
(183.117,998.835,o),
(192.019,995.148,o),
(201.301,995.148,c),
(210.584,995.148,o),
(219.486,998.835,o),
(226.05,1005.399,c),
(232.614,1011.963,o),
(236.301,1020.865,o),
(236.301,1030.148,c)
);
},
{
closed = 1;
nodes = (
(238.56,925.828,o),
(234.872,934.731,o),
(228.308,941.294,c),
(221.745,947.858,o),
(212.842,951.546,o),
(203.56,951.546,c),
(194.277,951.546,o),
(185.375,947.858,o),
(178.811,941.294,c),
(172.247,934.731,o),
(168.56,925.828,o),
(168.56,916.546,c),
(168.56,907.263,o),
(172.247,898.361,o),
(178.811,891.797,c),
(185.375,885.233,o),
(194.277,881.546,o),
(203.56,881.546,c),
(212.842,881.546,o),
(221.745,885.233,o),
(228.308,891.797,c),
(234.872,898.361,o),
(238.56,907.263,o),
(238.56,916.546,c)
);
},
{
closed = 1;
nodes = (
(241.626,812.245,o),
(237.939,821.147,o),
(231.375,827.711,c),
(224.811,834.275,o),
(215.909,837.962,o),
(206.626,837.962,c),
(197.344,837.962,o),
(188.441,834.275,o),
(181.878,827.711,c),
(175.314,821.147,o),
(171.626,812.245,o),
(171.626,802.962,c),
(171.626,793.68,o),
(175.314,784.777,o),
(181.878,778.214,c),
(188.441,771.65,o),
(197.344,767.962,o),
(206.626,767.962,c),
(215.909,767.962,o),
(224.811,771.65,o),
(231.375,778.214,c),
(237.939,784.777,o),
(241.626,793.68,o),
(241.626,802.962,c)
);
},
{
closed = 1;
nodes = (
(245.257,698.678,o),
(241.57,707.58,o),
(235.006,714.144,c),
(228.442,720.708,o),
(219.54,724.396,o),
(210.257,724.396,c),
(200.974,724.396,o),
(192.072,720.708,o),
(185.509,714.144,c),
(178.945,707.58,o),
(175.257,698.678,o),
(175.257,689.396,c),
(175.257,680.113,o),
(178.945,671.211,o),
(185.509,664.647,c),
(192.072,658.083,o),
(200.974,654.396,o),
(210.257,654.396,c),
(219.54,654.396,o),
(228.442,658.083,o),
(235.006,664.647,c),
(241.57,671.211,o),
(245.257,680.113,o),
(245.257,689.396,c)
);
},
{
closed = 1;
nodes = (
(249.222,585.122,o),
(245.534,594.025,o),
(238.97,600.588,c),
(232.407,607.152,o),
(223.504,610.84,o),
(214.222,610.84,c),
(204.939,610.84,o),
(196.037,607.152,o),
(189.473,600.588,c),
(182.909,594.025,o),
(179.222,585.122,o),
(179.222,575.84,c),
(179.222,566.557,o),
(182.909,557.655,o),
(189.473,551.091,c),
(196.037,544.527,o),
(204.939,540.84,o),
(214.222,540.84,c),
(223.504,540.84,o),
(232.407,544.527,o),
(238.97,551.091,c),
(245.534,557.655,o),
(249.222,566.557,o),
(249.222,575.84,c)
);
},
{
closed = 1;
nodes = (
(253.305,471.571,o),
(249.618,480.473,o),
(243.054,487.037,c),
(236.49,493.601,o),
(227.588,497.288,o),
(218.305,497.288,c),
(209.023,497.288,o),
(200.12,493.601,o),
(193.557,487.037,c),
(186.993,480.473,o),
(183.305,471.571,o),
(183.305,462.288,c),
(183.305,453.006,o),
(186.993,444.103,o),
(193.557,437.54,c),
(200.12,430.976,o),
(209.023,427.288,o),
(218.305,427.288,c),
(227.588,427.288,o),
(236.49,430.976,o),
(243.054,437.54,c),
(249.618,444.103,o),
(253.305,453.006,o),
(253.305,462.288,c)
);
},
{
closed = 1;
nodes = (
(257.305,358.017,o),
(253.618,366.919,o),
(247.054,373.482,c),
(240.49,380.046,o),
(231.588,383.734,o),
(222.305,383.734,c),
(213.023,383.734,o),
(204.12,380.046,o),
(197.557,373.482,c),
(190.993,366.919,o),
(187.305,358.017,o),
(187.305,348.734,c),
(187.305,339.451,o),
(190.993,330.549,o),
(197.557,323.985,c),
(204.12,317.421,o),
(213.023,313.734,o),
(222.305,313.734,c),
(231.588,313.734,o),
(240.49,317.421,o),
(247.054,323.985,c),
(253.618,330.549,o),
(257.305,339.451,o),
(257.305,348.734,c)
);
},
{
closed = 1;
nodes = (
(261.034,244.453,o),
(257.347,253.355,o),
(250.783,259.919,c),
(244.219,266.483,o),
(235.317,270.17,o),
(226.034,270.17,c),
(216.752,270.17,o),
(207.849,266.483,o),
(201.286,259.919,c),
(194.722,253.355,o),
(191.034,244.453,o),
(191.034,235.17,c),
(191.034,225.888,o),
(194.722,216.985,o),
(201.286,210.422,c),
(207.849,203.858,o),
(216.752,200.17,o),
(226.034,200.17,c),
(235.317,200.17,o),
(244.219,203.858,o),
(250.783,210.422,c),
(257.347,216.985,o),
(261.034,225.888,o),
(261.034,235.17,c)
);
},
{
closed = 1;
nodes = (
(264.319,130.876,o),
(260.631,139.778,o),
(254.067,146.342,c),
(247.504,152.906,o),
(238.602,156.593,o),
(229.319,156.593,c),
(220.036,156.593,o),
(211.134,152.906,o),
(204.57,146.342,c),
(198.006,139.778,o),
(194.319,130.876,o),
(194.319,121.593,c),
(194.319,112.311,o),
(198.006,103.408,o),
(204.57,96.845,c),
(211.134,90.281,o),
(220.036,86.593,o),
(229.319,86.593,c),
(238.602,86.593,o),
(247.504,90.281,o),
(254.067,96.845,c),
(260.631,103.408,o),
(264.319,112.311,o),
(264.319,121.593,c)
);
},
{
closed = 1;
nodes = (
(312.393,1664.808,o),
(308.705,1673.71,o),
(302.141,1680.274,c),
(295.577,1686.838,o),
(286.675,1690.525,o),
(277.393,1690.525,c),
(268.11,1690.525,o),
(259.208,1686.838,o),
(252.644,1680.274,c),
(246.08,1673.71,o),
(242.393,1664.808,o),
(242.393,1655.525,c),
(242.393,1646.243,o),
(246.08,1637.34,o),
(252.644,1630.777,c),
(259.208,1624.213,o),
(268.11,1620.525,o),
(277.393,1620.525,c),
(286.675,1620.525,o),
(295.577,1624.213,o),
(302.141,1630.777,c),
(308.705,1637.34,o),
(312.393,1646.243,o),
(312.393,1655.525,c)
);
},
{
closed = 1;
nodes = (
(191.79,1694.684,o),
(188.102,1703.586,o),
(181.538,1710.15,c),
(174.975,1716.714,o),
(166.073,1720.401,o),
(156.79,1720.401,c),
(147.507,1720.401,o),
(138.605,1716.714,o),
(132.041,1710.15,c),
(125.477,1703.586,o),
(121.79,1694.684,o),
(121.79,1685.401,c),
(121.79,1676.119,o),
(125.477,1667.216,o),
(132.041,1660.653,c),
(138.605,1654.089,o),
(147.507,1650.401,o),
(156.79,1650.401,c),
(166.073,1650.401,o),
(174.975,1654.089,o),
(181.538,1660.653,c),
(188.102,1667.216,o),
(191.79,1676.119,o),
(191.79,1685.401,c)
);
}
);
width = 1200;
}
);
unicode = 1570;
}
